  0
SECTION
  2
HEADER
  9
$ACADVER
  1
AC1009
  9
$INSBASE
 10
0.0
 20
0.0
 30
0.0
  9
$EXTMIN
 10
0.0
 20
0.0
 30
0.0
  9
$EXTMAX
 10
100.0
 20
100.0
 30
0.0
  9
$UNITMODE
 70
0
  9
$AUNITS
 70
0
  9
$ANGBASE
 50
0.0
  9
$ANGDIR
 70
0
  0
ENDSEC
  0
SECTION
  2
TABLES
  0
TABLE
  2
LTYPE
 70
19
  0
LTYPE
  2
CONTINUOUS
 70
0
  3
Solid
 72
65
 73
0
 40
0.0
  0
LTYPE
  2
CENTER
 70
0
  3
Center ____ _ ____ _ ____ _ ____ _ ____ _ ____
 72
65
 73
4
 40
2.0
 49
1.25
 49
-0.25
 49
0.25
 49
-0.25
  0
LTYPE
  2
CENTERX2
 70
0
  3
Center (2x) ________  __  ________  __  ________
 72
65
 73
4
 40
3.5
 49
2.5
 49
-0.25
 49
0.5
 49
-0.25
  0
LTYPE
  2
CENTER2
 70
0
  3
Center (.5x) ____ _ ____ _ ____ _ ____ _ ____
 72
65
 73
4
 40
1.0
 49
0.625
 49
-0.125
 49
0.125
 49
-0.125
  0
LTYPE
  2
DASHED
 70
0
  3
Dashed __ __ __ __ __ __ __ __ __ __ __ __ __ _
 72
65
 73
2
 40
0.6
 49
0.5
 49
-0.1
  0
LTYPE
  2
DASHEDX2
 70
0
  3
Dashed (2x) ____  ____  ____  ____  ____  ____
 72
65
 73
2
 40
1.2
 49
1.0
 49
-0.2
  0
LTYPE
  2
DASHED2
 70
0
  3
Dashed (.5x) _ _ _ _ _ _ _ _ _ _ _ _ _ _
 72
65
 73
2
 40
0.3
 49
0.25
 49
-0.05
  0
LTYPE
  2
PHANTOM
 70
0
  3
Phantom ______  __  __  ______  __  __  ______
 72
65
 73
6
 40
2.5
 49
1.25
 49
-0.25
 49
0.25
 49
-0.25
 49
0.25
 49
-0.25
  0
LTYPE
  2
PHANTOMX2
 70
0
  3
Phantom (2x)____________    ____    ____    ____________
 72
65
 73
6
 40
4.25
 49
2.5
 49
-0.25
 49
0.5
 49
-0.25
 49
0.5
 49
-0.25
  0
LTYPE
  2
PHANTOM2
 70
0
  3
Phantom (.5x) ___ _ _ ___ _ _ ___ _ _ ___ _ _ ___
 72
65
 73
6
 40
1.25
 49
0.625
 49
-0.125
 49
0.125
 49
-0.125
 49
0.125
 49
-0.125
  0
LTYPE
  2
DASHDOT
 70
0
  3
Dash dot __ . __ . __ . __ . __ . __ . __ . __
 72
65
 73
4
 40
1.4
 49
1.0
 49
-0.2
 49
0.0
 49
-0.2
  0
LTYPE
  2
DASHDOTX2
 70
0
  3
Dash dot (2x) ____  .  ____  .  ____  .  ____
 72
65
 73
4
 40
2.4
 49
2.0
 49
-0.2
 49
0.0
 49
-0.2
  0
LTYPE
  2
DASHDOT2
 70
0
  3
Dash dot (.5x) _ . _ . _ . _ . _ . _ . _ . _
 72
65
 73
4
 40
0.7
 49
0.5
 49
-0.1
 49
0.0
 49
-0.1
  0
LTYPE
  2
DOT
 70
0
  3
Dot .  .  .  .  .  .  .  .  .  .  .  .  .  .  .  .
 72
65
 73
2
 40
0.2
 49
0.0
 49
-0.2
  0
LTYPE
  2
DOTX2
 70
0
  3
Dot (2x) .    .    .    .    .    .    .    . 
 72
65
 73
2
 40
0.4
 49
0.0
 49
-0.4
  0
LTYPE
  2
DOT2
 70
0
  3
Dot (.5) . . . . . . . . . . . . . . . . . . . 
 72
65
 73
2
 40
0.1
 49
0.0
 49
-0.1
  0
LTYPE
  2
DIVIDE
 70
0
  3
Divide __ . . __ . . __ . . __ . . __ . . __
 72
65
 73
6
 40
1.6
 49
1.0
 49
-0.2
 49
0.0
 49
-0.2
 49
0.0
 49
-0.2
  0
LTYPE
  2
DIVIDEX2
 70
0
  3
Divide (2x) ____  . .  ____  . .  ____  . .  ____
 72
65
 73
6
 40
2.6
 49
2.0
 49
-0.2
 49
0.0
 49
-0.2
 49
0.0
 49
-0.2
  0
LTYPE
  2
DIVIDE2
 70
0
  3
Divide(.5x) _ . _ . _ . _ . _ . _ . _ . _
 72
65
 73
6
 40
0.8
 49
0.5
 49
-0.1
 49
0.0
 49
-0.1
 49
0.0
 49
-0.1
  0
ENDTAB
  0
TABLE
  2
LAYER
 70
6
  0
LAYER
  2
DIMENSIONS
 70
0
 62
1
  6
CONTINUOUS
  0
LAYER
  2
TABLEBACKGROUND
 70
0
 62
1
  6
CONTINUOUS
  0
LAYER
  2
TABLECONTENT
 70
0
 62
1
  6
CONTINUOUS
  0
LAYER
  2
TABLEGRID
 70
0
 62
1
  6
CONTINUOUS
  0
LAYER
  2
VIEWPORTS
 70
0
 62
7
  6
CONTINUOUS
  0
LAYER
  2
LINES
 70
0
 62
1
  6
CONTINUOUS
  0
ENDTAB
  0
TABLE
  2
STYLE
 70
12
  0
STYLE
  2
STANDARD
 70
0
 40
0.0
 41
1.0
 42
1.0
 50
0.0
 71
0
  3
arial.ttf
  4

  0
STYLE
  2
ARIAL
 70
0
 40
0.0
 41
1.0
 42
1.0
 50
0.0
 71
0
  3
arial.ttf
  4

  0
STYLE
  2
ARIAL_BOLD
 70
0
 40
0.0
 41
1.0
 42
1.0
 50
0.0
 71
0
  3
arialbd.ttf
  4

  0
STYLE
  2
ARIAL_ITALIC
 70
0
 40
0.0
 41
1.0
 42
1.0
 50
0.0
 71
0
  3
ariali.ttf
  4

  0
STYLE
  2
ARIAL_BOLD_ITALIC
 70
0
 40
0.0
 41
1.0
 42
1.0
 50
0.0
 71
0
  3
arialbi.ttf
  4

  0
STYLE
  2
ARIAL_BLACK
 70
0
 40
0.0
 41
1.0
 42
1.0
 50
0.0
 71
0
  3
ariblk.ttf
  4

  0
STYLE
  2
ISOCPEUR
 70
0
 40
0.0
 41
1.0
 42
1.0
 50
0.0
 71
0
  3
isocpeur.ttf
  4

  0
STYLE
  2
ISOCPEUR_ITALIC
 70
0
 40
0.0
 41
1.0
 42
1.0
 50
0.0
 71
0
  3
isocpeui.ttf
  4

  0
STYLE
  2
TIMES
 70
0
 40
0.0
 41
1.0
 42
1.0
 50
0.0
 71
0
  3
times.ttf
  4

  0
STYLE
  2
TIMES_BOLD
 70
0
 40
0.0
 41
1.0
 42
1.0
 50
0.0
 71
0
  3
timesbd.ttf
  4

  0
STYLE
  2
TIMES_ITALIC
 70
0
 40
0.0
 41
1.0
 42
1.0
 50
0.0
 71
0
  3
timesi.ttf
  4

  0
STYLE
  2
TIMES_BOLD_ITALIC
 70
0
 40
0.0
 41
1.0
 42
1.0
 50
0.0
 71
0
  3
timesbi.ttf
  4

  0
ENDTAB
  0
TABLE
  2
VIEW
 70
0
  0
ENDTAB
  0
TABLE
  2
APPID
 70
1
  0
APPID
  2
DXFWRITE
 70
0
  0
ENDTAB
  0
TABLE
  2
VPORT
 70
0
  0
ENDTAB
  0
TABLE
  2
UCS
 70
0
  0
ENDTAB
  0
ENDSEC
  0
SECTION
  2
BLOCKS
  0
ENDSEC
  0
SECTION
  2
ENTITIES
  0
VIEWPORT
  8
VIEWPORTS
 67
1
 10
0.0
 20
0.0
 30
0.0
 40
1.0
 41
1.0
 68
1
 69
1
1001
ACAD
1000
MVIEW
1002
{
1070
16
1010
0.0
1020
0.0
1030
0.0
1010
0.0
1020
0.0
1030
0.0
1040
0.0
1040
1.0
1040
0.0
1040
0.0
1040
50.0
1040
0.0
1040
0.0
1070
0
1070
100
1070
1
1070
3
1070
0
1070
0
1070
0
1070
0
1040
0.0
1040
0.0
1040
0.0
1040
0.1
1040
0.1
1040
0.1
1040
0.1
1070
0
1002
{
1002
}
1002
}
  0
LINE
 39
0.0
 62
1
  8
LINES
 10
3.0
 20
3.0
 30
0.0
 11
7.0
 21
3.0
 31
0.0
  0
LINE
 39
0.0
 62
1
  8
LINES
 10
7.0
 20
3.0
 30
0.0
 11
7.0
 21
0.0
 31
0.0
  0
LINE
 39
0.0
 62
1
  8
LINES
 10
7.0
 20
0.0
 30
0.0
 11
17.4
 21
0.0
 31
0.0
  0
LINE
 39
0.0
 62
1
  8
LINES
 10
17.4
 20
0.0
 30
0.0
 11
17.4
 21
3.0
 31
0.0
  0
LINE
 39
0.0
 62
1
  8
LINES
 10
17.4
 20
3.0
 30
0.0
 11
21.8
 21
3.0
 31
0.0
  0
LINE
 39
0.0
 62
1
  8
LINES
 10
21.8
 20
3.0
 30
0.0
 11
25.8
 21
3.0
 31
0.0
  0
LINE
 39
0.0
 62
1
  8
LINES
 10
25.8
 20
3.0
 30
0.0
 11
25.8
 21
0.0
 31
0.0
  0
LINE
 39
0.0
 62
1
  8
LINES
 10
25.8
 20
0.0
 30
0.0
 11
36.2
 21
0.0
 31
0.0
  0
LINE
 39
0.0
 62
1
  8
LINES
 10
36.2
 20
0.0
 30
0.0
 11
36.2
 21
3.0
 31
0.0
  0
LINE
 39
0.0
 62
1
  8
LINES
 10
36.2
 20
3.0
 30
0.0
 11
40.6
 21
3.0
 31
0.0
  0
LINE
 39
0.0
 62
1
  8
LINES
 10
40.6
 20
3.0
 30
0.0
 11
44.6
 21
3.0
 31
0.0
  0
LINE
 39
0.0
 62
1
  8
LINES
 10
44.6
 20
3.0
 30
0.0
 11
44.6
 21
0.0
 31
0.0
  0
LINE
 39
0.0
 62
1
  8
LINES
 10
44.6
 20
0.0
 30
0.0
 11
55.0
 21
0.0
 31
0.0
  0
LINE
 39
0.0
 62
1
  8
LINES
 10
55.0
 20
0.0
 30
0.0
 11
55.0
 21
3.0
 31
0.0
  0
LINE
 39
0.0
 62
1
  8
LINES
 10
55.0
 20
3.0
 30
0.0
 11
59.4
 21
3.0
 31
0.0
  0
LINE
 39
0.0
 62
1
  8
LINES
 10
59.4
 20
3.0
 30
0.0
 11
63.4
 21
3.0
 31
0.0
  0
LINE
 39
0.0
 62
1
  8
LINES
 10
63.4
 20
3.0
 30
0.0
 11
63.4
 21
0.0
 31
0.0
  0
LINE
 39
0.0
 62
1
  8
LINES
 10
63.4
 20
0.0
 30
0.0
 11
73.8
 21
0.0
 31
0.0
  0
LINE
 39
0.0
 62
1
  8
LINES
 10
73.8
 20
0.0
 30
0.0
 11
73.8
 21
3.0
 31
0.0
  0
LINE
 39
0.0
 62
1
  8
LINES
 10
73.8
 20
3.0
 30
0.0
 11
78.2
 21
3.0
 31
0.0
  0
LINE
 39
0.0
 62
1
  8
LINES
 10
78.2
 20
3.0
 30
0.0
 11
82.2
 21
3.0
 31
0.0
  0
LINE
 39
0.0
 62
1
  8
LINES
 10
82.2
 20
3.0
 30
0.0
 11
82.2
 21
0.0
 31
0.0
  0
LINE
 39
0.0
 62
1
  8
LINES
 10
82.2
 20
0.0
 30
0.0
 11
92.6
 21
0.0
 31
0.0
  0
LINE
 39
0.0
 62
1
  8
LINES
 10
92.6
 20
0.0
 30
0.0
 11
92.6
 21
3.0
 31
0.0
  0
LINE
 39
0.0
 62
1
  8
LINES
 10
92.6
 20
3.0
 30
0.0
 11
97.0
 21
3.0
 31
0.0
  0
LINE
 39
0.0
 62
1
  8
LINES
 10
97.0
 20
3.0
 30
0.0
 11
97.0
 21
3.0
 31
0.0
  0
LINE
 39
0.0
 62
1
  8
LINES
 10
97.0
 20
3.0
 30
0.0
 11
97.0
 21
7.4
 31
0.0
  0
LINE
 39
0.0
 62
1
  8
LINES
 10
97.0
 20
7.4
 30
0.0
 11
100.0
 21
7.4
 31
0.0
  0
LINE
 39
0.0
 62
1
  8
LINES
 10
100.0
 20
7.4
 30
0.0
 11
100.0
 21
17.8
 31
0.0
  0
LINE
 39
0.0
 62
1
  8
LINES
 10
100.0
 20
17.8
 30
0.0
 11
97.0
 21
17.8
 31
0.0
  0
LINE
 39
0.0
 62
1
  8
LINES
 10
97.0
 20
17.8
 30
0.0
 11
97.0
 21
26.2
 31
0.0
  0
LINE
 39
0.0
 62
1
  8
LINES
 10
97.0
 20
26.2
 30
0.0
 11
100.0
 21
26.2
 31
0.0
  0
LINE
 39
0.0
 62
1
  8
LINES
 10
100.0
 20
26.2
 30
0.0
 11
100.0
 21
36.6
 31
0.0
  0
LINE
 39
0.0
 62
1
  8
LINES
 10
100.0
 20
36.6
 30
0.0
 11
97.0
 21
36.6
 31
0.0
  0
LINE
 39
0.0
 62
1
  8
LINES
 10
97.0
 20
36.6
 30
0.0
 11
97.0
 21
45.0
 31
0.0
  0
LINE
 39
0.0
 62
1
  8
LINES
 10
97.0
 20
45.0
 30
0.0
 11
100.0
 21
45.0
 31
0.0
  0
LINE
 39
0.0
 62
1
  8
LINES
 10
100.0
 20
45.0
 30
0.0
 11
100.0
 21
55.4
 31
0.0
  0
LINE
 39
0.0
 62
1
  8
LINES
 10
100.0
 20
55.4
 30
0.0
 11
97.0
 21
55.4
 31
0.0
  0
LINE
 39
0.0
 62
1
  8
LINES
 10
97.0
 20
55.4
 30
0.0
 11
97.0
 21
63.8
 31
0.0
  0
LINE
 39
0.0
 62
1
  8
LINES
 10
97.0
 20
63.8
 30
0.0
 11
100.0
 21
63.8
 31
0.0
  0
LINE
 39
0.0
 62
1
  8
LINES
 10
100.0
 20
63.8
 30
0.0
 11
100.0
 21
74.2
 31
0.0
  0
LINE
 39
0.0
 62
1
  8
LINES
 10
100.0
 20
74.2
 30
0.0
 11
97.0
 21
74.2
 31
0.0
  0
LINE
 39
0.0
 62
1
  8
LINES
 10
97.0
 20
74.2
 30
0.0
 11
97.0
 21
82.6
 31
0.0
  0
LINE
 39
0.0
 62
1
  8
LINES
 10
97.0
 20
82.6
 30
0.0
 11
100.0
 21
82.6
 31
0.0
  0
LINE
 39
0.0
 62
1
  8
LINES
 10
100.0
 20
82.6
 30
0.0
 11
100.0
 21
93.0
 31
0.0
  0
LINE
 39
0.0
 62
1
  8
LINES
 10
100.0
 20
93.0
 30
0.0
 11
97.0
 21
93.0
 31
0.0
  0
LINE
 39
0.0
 62
1
  8
LINES
 10
97.0
 20
93.0
 30
0.0
 11
97.0
 21
97.0
 31
0.0
  0
LINE
 39
0.0
 62
1
  8
LINES
 10
97.0
 20
97.0
 30
0.0
 11
92.6
 21
97.0
 31
0.0
  0
LINE
 39
0.0
 62
1
  8
LINES
 10
92.6
 20
97.0
 30
0.0
 11
92.6
 21
100.0
 31
0.0
  0
LINE
 39
0.0
 62
1
  8
LINES
 10
92.6
 20
100.0
 30
0.0
 11
82.2
 21
100.0
 31
0.0
  0
LINE
 39
0.0
 62
1
  8
LINES
 10
82.2
 20
100.0
 30
0.0
 11
82.2
 21
97.0
 31
0.0
  0
LINE
 39
0.0
 62
1
  8
LINES
 10
82.2
 20
97.0
 30
0.0
 11
73.8
 21
97.0
 31
0.0
  0
LINE
 39
0.0
 62
1
  8
LINES
 10
73.8
 20
97.0
 30
0.0
 11
73.8
 21
100.0
 31
0.0
  0
LINE
 39
0.0
 62
1
  8
LINES
 10
73.8
 20
100.0
 30
0.0
 11
63.4
 21
100.0
 31
0.0
  0
LINE
 39
0.0
 62
1
  8
LINES
 10
63.4
 20
100.0
 30
0.0
 11
63.4
 21
97.0
 31
0.0
  0
LINE
 39
0.0
 62
1
  8
LINES
 10
63.4
 20
97.0
 30
0.0
 11
55.0
 21
97.0
 31
0.0
  0
LINE
 39
0.0
 62
1
  8
LINES
 10
55.0
 20
97.0
 30
0.0
 11
55.0
 21
100.0
 31
0.0
  0
LINE
 39
0.0
 62
1
  8
LINES
 10
55.0
 20
100.0
 30
0.0
 11
44.6
 21
100.0
 31
0.0
  0
LINE
 39
0.0
 62
1
  8
LINES
 10
44.6
 20
100.0
 30
0.0
 11
44.6
 21
97.0
 31
0.0
  0
LINE
 39
0.0
 62
1
  8
LINES
 10
44.6
 20
97.0
 30
0.0
 11
36.2
 21
97.0
 31
0.0
  0
LINE
 39
0.0
 62
1
  8
LINES
 10
36.2
 20
97.0
 30
0.0
 11
36.2
 21
100.0
 31
0.0
  0
LINE
 39
0.0
 62
1
  8
LINES
 10
36.2
 20
100.0
 30
0.0
 11
25.8
 21
100.0
 31
0.0
  0
LINE
 39
0.0
 62
1
  8
LINES
 10
25.8
 20
100.0
 30
0.0
 11
25.8
 21
97.0
 31
0.0
  0
LINE
 39
0.0
 62
1
  8
LINES
 10
25.8
 20
97.0
 30
0.0
 11
17.4
 21
97.0
 31
0.0
  0
LINE
 39
0.0
 62
1
  8
LINES
 10
17.4
 20
97.0
 30
0.0
 11
17.4
 21
100.0
 31
0.0
  0
LINE
 39
0.0
 62
1
  8
LINES
 10
17.4
 20
100.0
 30
0.0
 11
7.0
 21
100.0
 31
0.0
  0
LINE
 39
0.0
 62
1
  8
LINES
 10
7.0
 20
100.0
 30
0.0
 11
7.0
 21
97.0
 31
0.0
  0
LINE
 39
0.0
 62
1
  8
LINES
 10
7.0
 20
97.0
 30
0.0
 11
3.0
 21
97.0
 31
0.0
  0
LINE
 39
0.0
 62
1
  8
LINES
 10
3.0
 20
97.0
 30
0.0
 11
3.0
 21
92.6
 31
0.0
  0
LINE
 39
0.0
 62
1
  8
LINES
 10
3.0
 20
92.6
 30
0.0
 11
0.0
 21
92.6
 31
0.0
  0
LINE
 39
0.0
 62
1
  8
LINES
 10
0.0
 20
92.6
 30
0.0
 11
0.0
 21
82.2
 31
0.0
  0
LINE
 39
0.0
 62
1
  8
LINES
 10
0.0
 20
82.2
 30
0.0
 11
3.0
 21
82.2
 31
0.0
  0
LINE
 39
0.0
 62
1
  8
LINES
 10
3.0
 20
82.2
 30
0.0
 11
3.0
 21
73.8
 31
0.0
  0
LINE
 39
0.0
 62
1
  8
LINES
 10
3.0
 20
73.8
 30
0.0
 11
0.0
 21
73.8
 31
0.0
  0
LINE
 39
0.0
 62
1
  8
LINES
 10
0.0
 20
73.8
 30
0.0
 11
0.0
 21
63.4
 31
0.0
  0
LINE
 39
0.0
 62
1
  8
LINES
 10
0.0
 20
63.4
 30
0.0
 11
3.0
 21
63.4
 31
0.0
  0
LINE
 39
0.0
 62
1
  8
LINES
 10
3.0
 20
63.4
 30
0.0
 11
3.0
 21
55.0
 31
0.0
  0
LINE
 39
0.0
 62
1
  8
LINES
 10
3.0
 20
55.0
 30
0.0
 11
0.0
 21
55.0
 31
0.0
  0
LINE
 39
0.0
 62
1
  8
LINES
 10
0.0
 20
55.0
 30
0.0
 11
0.0
 21
44.6
 31
0.0
  0
LINE
 39
0.0
 62
1
  8
LINES
 10
0.0
 20
44.6
 30
0.0
 11
3.0
 21
44.6
 31
0.0
  0
LINE
 39
0.0
 62
1
  8
LINES
 10
3.0
 20
44.6
 30
0.0
 11
3.0
 21
36.2
 31
0.0
  0
LINE
 39
0.0
 62
1
  8
LINES
 10
3.0
 20
36.2
 30
0.0
 11
0.0
 21
36.2
 31
0.0
  0
LINE
 39
0.0
 62
1
  8
LINES
 10
0.0
 20
36.2
 30
0.0
 11
0.0
 21
25.8
 31
0.0
  0
LINE
 39
0.0
 62
1
  8
LINES
 10
0.0
 20
25.8
 30
0.0
 11
3.0
 21
25.8
 31
0.0
  0
LINE
 39
0.0
 62
1
  8
LINES
 10
3.0
 20
25.8
 30
0.0
 11
3.0
 21
17.4
 31
0.0
  0
LINE
 39
0.0
 62
1
  8
LINES
 10
3.0
 20
17.4
 30
0.0
 11
0.0
 21
17.4
 31
0.0
  0
LINE
 39
0.0
 62
1
  8
LINES
 10
0.0
 20
17.4
 30
0.0
 11
0.0
 21
7.0
 31
0.0
  0
LINE
 39
0.0
 62
1
  8
LINES
 10
0.0
 20
7.0
 30
0.0
 11
3.0
 21
7.0
 31
0.0
  0
LINE
 39
0.0
 62
1
  8
LINES
 10
3.0
 20
7.0
 30
0.0
 11
3.0
 21
3.0
 31
0.0
  0
LINE
 39
0.0
 62
1
  8
LINES
 10
103.0
 20
0.0
 30
0.0
 11
110.4
 21
0.0
 31
0.0
  0
LINE
 39
0.0
 62
1
  8
LINES
 10
110.4
 20
0.0
 30
0.0
 11
110.4
 21
3.0
 31
0.0
  0
LINE
 39
0.0
 62
1
  8
LINES
 10
110.4
 20
3.0
 30
0.0
 11
120.4
 21
3.0
 31
0.0
  0
LINE
 39
0.0
 62
1
  8
LINES
 10
120.4
 20
3.0
 30
0.0
 11
120.4
 21
0.0
 31
0.0
  0
LINE
 39
0.0
 62
1
  8
LINES
 10
120.4
 20
0.0
 30
0.0
 11
129.2
 21
0.0
 31
0.0
  0
LINE
 39
0.0
 62
1
  8
LINES
 10
129.2
 20
0.0
 30
0.0
 11
129.2
 21
3.0
 31
0.0
  0
LINE
 39
0.0
 62
1
  8
LINES
 10
129.2
 20
3.0
 30
0.0
 11
139.2
 21
3.0
 31
0.0
  0
LINE
 39
0.0
 62
1
  8
LINES
 10
139.2
 20
3.0
 30
0.0
 11
139.2
 21
0.0
 31
0.0
  0
LINE
 39
0.0
 62
1
  8
LINES
 10
139.2
 20
0.0
 30
0.0
 11
148.0
 21
0.0
 31
0.0
  0
LINE
 39
0.0
 62
1
  8
LINES
 10
148.0
 20
0.0
 30
0.0
 11
148.0
 21
3.0
 31
0.0
  0
LINE
 39
0.0
 62
1
  8
LINES
 10
148.0
 20
3.0
 30
0.0
 11
158.0
 21
3.0
 31
0.0
  0
LINE
 39
0.0
 62
1
  8
LINES
 10
158.0
 20
3.0
 30
0.0
 11
158.0
 21
0.0
 31
0.0
  0
LINE
 39
0.0
 62
1
  8
LINES
 10
158.0
 20
0.0
 30
0.0
 11
166.8
 21
0.0
 31
0.0
  0
LINE
 39
0.0
 62
1
  8
LINES
 10
166.8
 20
0.0
 30
0.0
 11
166.8
 21
3.0
 31
0.0
  0
LINE
 39
0.0
 62
1
  8
LINES
 10
166.8
 20
3.0
 30
0.0
 11
176.8
 21
3.0
 31
0.0
  0
LINE
 39
0.0
 62
1
  8
LINES
 10
176.8
 20
3.0
 30
0.0
 11
176.8
 21
0.0
 31
0.0
  0
LINE
 39
0.0
 62
1
  8
LINES
 10
176.8
 20
0.0
 30
0.0
 11
185.6
 21
0.0
 31
0.0
  0
LINE
 39
0.0
 62
1
  8
LINES
 10
185.6
 20
0.0
 30
0.0
 11
185.6
 21
3.0
 31
0.0
  0
LINE
 39
0.0
 62
1
  8
LINES
 10
185.6
 20
3.0
 30
0.0
 11
195.6
 21
3.0
 31
0.0
  0
LINE
 39
0.0
 62
1
  8
LINES
 10
195.6
 20
3.0
 30
0.0
 11
195.6
 21
0.0
 31
0.0
  0
LINE
 39
0.0
 62
1
  8
LINES
 10
195.6
 20
0.0
 30
0.0
 11
198.6
 21
0.0
 31
0.0
  0
LINE
 39
0.0
 62
1
  8
LINES
 10
198.6
 20
0.0
 30
0.0
 11
200.0
 21
0.0
 31
0.0
  0
LINE
 39
0.0
 62
1
  8
LINES
 10
200.0
 20
0.0
 30
0.0
 11
200.0
 21
3.0
 31
0.0
  0
LINE
 39
0.0
 62
1
  8
LINES
 10
200.0
 20
3.0
 30
0.0
 11
200.0
 21
7.4
 31
0.0
  0
LINE
 39
0.0
 62
1
  8
LINES
 10
200.0
 20
7.4
 30
0.0
 11
203.0
 21
7.4
 31
0.0
  0
LINE
 39
0.0
 62
1
  8
LINES
 10
203.0
 20
7.4
 30
0.0
 11
203.0
 21
17.8
 31
0.0
  0
LINE
 39
0.0
 62
1
  8
LINES
 10
203.0
 20
17.8
 30
0.0
 11
200.0
 21
17.8
 31
0.0
  0
LINE
 39
0.0
 62
1
  8
LINES
 10
200.0
 20
17.8
 30
0.0
 11
200.0
 21
21.8
 31
0.0
  0
LINE
 39
0.0
 62
1
  8
LINES
 10
200.0
 20
21.8
 30
0.0
 11
200.0
 21
26.2
 31
0.0
  0
LINE
 39
0.0
 62
1
  8
LINES
 10
200.0
 20
26.2
 30
0.0
 11
203.0
 21
26.2
 31
0.0
  0
LINE
 39
0.0
 62
1
  8
LINES
 10
203.0
 20
26.2
 30
0.0
 11
203.0
 21
36.6
 31
0.0
  0
LINE
 39
0.0
 62
1
  8
LINES
 10
203.0
 20
36.6
 30
0.0
 11
200.0
 21
36.6
 31
0.0
  0
LINE
 39
0.0
 62
1
  8
LINES
 10
200.0
 20
36.6
 30
0.0
 11
200.0
 21
40.6
 31
0.0
  0
LINE
 39
0.0
 62
1
  8
LINES
 10
200.0
 20
40.6
 30
0.0
 11
200.0
 21
45.0
 31
0.0
  0
LINE
 39
0.0
 62
1
  8
LINES
 10
200.0
 20
45.0
 30
0.0
 11
203.0
 21
45.0
 31
0.0
  0
LINE
 39
0.0
 62
1
  8
LINES
 10
203.0
 20
45.0
 30
0.0
 11
203.0
 21
55.4
 31
0.0
  0
LINE
 39
0.0
 62
1
  8
LINES
 10
203.0
 20
55.4
 30
0.0
 11
200.0
 21
55.4
 31
0.0
  0
LINE
 39
0.0
 62
1
  8
LINES
 10
200.0
 20
55.4
 30
0.0
 11
200.0
 21
59.4
 31
0.0
  0
LINE
 39
0.0
 62
1
  8
LINES
 10
200.0
 20
59.4
 30
0.0
 11
200.0
 21
63.8
 31
0.0
  0
LINE
 39
0.0
 62
1
  8
LINES
 10
200.0
 20
63.8
 30
0.0
 11
203.0
 21
63.8
 31
0.0
  0
LINE
 39
0.0
 62
1
  8
LINES
 10
203.0
 20
63.8
 30
0.0
 11
203.0
 21
74.2
 31
0.0
  0
LINE
 39
0.0
 62
1
  8
LINES
 10
203.0
 20
74.2
 30
0.0
 11
200.0
 21
74.2
 31
0.0
  0
LINE
 39
0.0
 62
1
  8
LINES
 10
200.0
 20
74.2
 30
0.0
 11
200.0
 21
78.2
 31
0.0
  0
LINE
 39
0.0
 62
1
  8
LINES
 10
200.0
 20
78.2
 30
0.0
 11
200.0
 21
82.6
 31
0.0
  0
LINE
 39
0.0
 62
1
  8
LINES
 10
200.0
 20
82.6
 30
0.0
 11
203.0
 21
82.6
 31
0.0
  0
LINE
 39
0.0
 62
1
  8
LINES
 10
203.0
 20
82.6
 30
0.0
 11
203.0
 21
93.0
 31
0.0
  0
LINE
 39
0.0
 62
1
  8
LINES
 10
203.0
 20
93.0
 30
0.0
 11
200.0
 21
93.0
 31
0.0
  0
LINE
 39
0.0
 62
1
  8
LINES
 10
200.0
 20
93.0
 30
0.0
 11
200.0
 21
97.0
 31
0.0
  0
LINE
 39
0.0
 62
1
  8
LINES
 10
200.0
 20
97.0
 30
0.0
 11
200.0
 21
100.0
 31
0.0
  0
LINE
 39
0.0
 62
1
  8
LINES
 10
200.0
 20
100.0
 30
0.0
 11
200.0
 21
100.0
 31
0.0
  0
LINE
 39
0.0
 62
1
  8
LINES
 10
200.0
 20
100.0
 30
0.0
 11
103.0
 21
100.0
 31
0.0
  0
LINE
 39
0.0
 62
1
  8
LINES
 10
103.0
 20
100.0
 30
0.0
 11
103.0
 21
97.0
 31
0.0
  0
LINE
 39
0.0
 62
1
  8
LINES
 10
103.0
 20
97.0
 30
0.0
 11
103.0
 21
92.6
 31
0.0
  0
LINE
 39
0.0
 62
1
  8
LINES
 10
103.0
 20
92.6
 30
0.0
 11
106.0
 21
92.6
 31
0.0
  0
LINE
 39
0.0
 62
1
  8
LINES
 10
106.0
 20
92.6
 30
0.0
 11
106.0
 21
82.6
 31
0.0
  0
LINE
 39
0.0
 62
1
  8
LINES
 10
106.0
 20
82.6
 30
0.0
 11
103.0
 21
82.6
 31
0.0
  0
LINE
 39
0.0
 62
1
  8
LINES
 10
103.0
 20
82.6
 30
0.0
 11
103.0
 21
78.2
 31
0.0
  0
LINE
 39
0.0
 62
1
  8
LINES
 10
103.0
 20
78.2
 30
0.0
 11
103.0
 21
73.8
 31
0.0
  0
LINE
 39
0.0
 62
1
  8
LINES
 10
103.0
 20
73.8
 30
0.0
 11
106.0
 21
73.8
 31
0.0
  0
LINE
 39
0.0
 62
1
  8
LINES
 10
106.0
 20
73.8
 30
0.0
 11
106.0
 21
63.8
 31
0.0
  0
LINE
 39
0.0
 62
1
  8
LINES
 10
106.0
 20
63.8
 30
0.0
 11
103.0
 21
63.8
 31
0.0
  0
LINE
 39
0.0
 62
1
  8
LINES
 10
103.0
 20
63.8
 30
0.0
 11
103.0
 21
59.4
 31
0.0
  0
LINE
 39
0.0
 62
1
  8
LINES
 10
103.0
 20
59.4
 30
0.0
 11
103.0
 21
55.0
 31
0.0
  0
LINE
 39
0.0
 62
1
  8
LINES
 10
103.0
 20
55.0
 30
0.0
 11
106.0
 21
55.0
 31
0.0
  0
LINE
 39
0.0
 62
1
  8
LINES
 10
106.0
 20
55.0
 30
0.0
 11
106.0
 21
45.0
 31
0.0
  0
LINE
 39
0.0
 62
1
  8
LINES
 10
106.0
 20
45.0
 30
0.0
 11
103.0
 21
45.0
 31
0.0
  0
LINE
 39
0.0
 62
1
  8
LINES
 10
103.0
 20
45.0
 30
0.0
 11
103.0
 21
40.6
 31
0.0
  0
LINE
 39
0.0
 62
1
  8
LINES
 10
103.0
 20
40.6
 30
0.0
 11
103.0
 21
36.2
 31
0.0
  0
LINE
 39
0.0
 62
1
  8
LINES
 10
103.0
 20
36.2
 30
0.0
 11
106.0
 21
36.2
 31
0.0
  0
LINE
 39
0.0
 62
1
  8
LINES
 10
106.0
 20
36.2
 30
0.0
 11
106.0
 21
26.2
 31
0.0
  0
LINE
 39
0.0
 62
1
  8
LINES
 10
106.0
 20
26.2
 30
0.0
 11
103.0
 21
26.2
 31
0.0
  0
LINE
 39
0.0
 62
1
  8
LINES
 10
103.0
 20
26.2
 30
0.0
 11
103.0
 21
21.8
 31
0.0
  0
LINE
 39
0.0
 62
1
  8
LINES
 10
103.0
 20
21.8
 30
0.0
 11
103.0
 21
17.4
 31
0.0
  0
LINE
 39
0.0
 62
1
  8
LINES
 10
103.0
 20
17.4
 30
0.0
 11
106.0
 21
17.4
 31
0.0
  0
LINE
 39
0.0
 62
1
  8
LINES
 10
106.0
 20
17.4
 30
0.0
 11
106.0
 21
7.4
 31
0.0
  0
LINE
 39
0.0
 62
1
  8
LINES
 10
106.0
 20
7.4
 30
0.0
 11
103.0
 21
7.4
 31
0.0
  0
LINE
 39
0.0
 62
1
  8
LINES
 10
103.0
 20
7.4
 30
0.0
 11
103.0
 21
3.0
 31
0.0
  0
LINE
 39
0.0
 62
1
  8
LINES
 10
103.0
 20
3.0
 30
0.0
 11
103.0
 21
0.0
 31
0.0
  0
LINE
 39
0.0
 62
1
  8
LINES
 10
0.0
 20
0.0
 30
0.0
 11
0.0
 21
0.0
 31
0.0
  0
LINE
 39
0.0
 62
1
  8
LINES
 10
206.0
 20
0.0
 30
0.0
 11
213.4
 21
0.0
 31
0.0
  0
LINE
 39
0.0
 62
1
  8
LINES
 10
213.4
 20
0.0
 30
0.0
 11
213.4
 21
3.0
 31
0.0
  0
LINE
 39
0.0
 62
1
  8
LINES
 10
213.4
 20
3.0
 30
0.0
 11
223.4
 21
3.0
 31
0.0
  0
LINE
 39
0.0
 62
1
  8
LINES
 10
223.4
 20
3.0
 30
0.0
 11
223.4
 21
0.0
 31
0.0
  0
LINE
 39
0.0
 62
1
  8
LINES
 10
223.4
 20
0.0
 30
0.0
 11
232.2
 21
0.0
 31
0.0
  0
LINE
 39
0.0
 62
1
  8
LINES
 10
232.2
 20
0.0
 30
0.0
 11
232.2
 21
3.0
 31
0.0
  0
LINE
 39
0.0
 62
1
  8
LINES
 10
232.2
 20
3.0
 30
0.0
 11
242.2
 21
3.0
 31
0.0
  0
LINE
 39
0.0
 62
1
  8
LINES
 10
242.2
 20
3.0
 30
0.0
 11
242.2
 21
0.0
 31
0.0
  0
LINE
 39
0.0
 62
1
  8
LINES
 10
242.2
 20
0.0
 30
0.0
 11
251.0
 21
0.0
 31
0.0
  0
LINE
 39
0.0
 62
1
  8
LINES
 10
251.0
 20
0.0
 30
0.0
 11
251.0
 21
3.0
 31
0.0
  0
LINE
 39
0.0
 62
1
  8
LINES
 10
251.0
 20
3.0
 30
0.0
 11
261.0
 21
3.0
 31
0.0
  0
LINE
 39
0.0
 62
1
  8
LINES
 10
261.0
 20
3.0
 30
0.0
 11
261.0
 21
0.0
 31
0.0
  0
LINE
 39
0.0
 62
1
  8
LINES
 10
261.0
 20
0.0
 30
0.0
 11
269.8
 21
0.0
 31
0.0
  0
LINE
 39
0.0
 62
1
  8
LINES
 10
269.8
 20
0.0
 30
0.0
 11
269.8
 21
3.0
 31
0.0
  0
LINE
 39
0.0
 62
1
  8
LINES
 10
269.8
 20
3.0
 30
0.0
 11
279.8
 21
3.0
 31
0.0
  0
LINE
 39
0.0
 62
1
  8
LINES
 10
279.8
 20
3.0
 30
0.0
 11
279.8
 21
0.0
 31
0.0
  0
LINE
 39
0.0
 62
1
  8
LINES
 10
279.8
 20
0.0
 30
0.0
 11
288.6
 21
0.0
 31
0.0
  0
LINE
 39
0.0
 62
1
  8
LINES
 10
288.6
 20
0.0
 30
0.0
 11
288.6
 21
3.0
 31
0.0
  0
LINE
 39
0.0
 62
1
  8
LINES
 10
288.6
 20
3.0
 30
0.0
 11
298.6
 21
3.0
 31
0.0
  0
LINE
 39
0.0
 62
1
  8
LINES
 10
298.6
 20
3.0
 30
0.0
 11
298.6
 21
0.0
 31
0.0
  0
LINE
 39
0.0
 62
1
  8
LINES
 10
298.6
 20
0.0
 30
0.0
 11
301.6
 21
0.0
 31
0.0
  0
LINE
 39
0.0
 62
1
  8
LINES
 10
301.6
 20
0.0
 30
0.0
 11
303.0
 21
0.0
 31
0.0
  0
LINE
 39
0.0
 62
1
  8
LINES
 10
303.0
 20
0.0
 30
0.0
 11
303.0
 21
3.0
 31
0.0
  0
LINE
 39
0.0
 62
1
  8
LINES
 10
303.0
 20
3.0
 30
0.0
 11
303.0
 21
7.4
 31
0.0
  0
LINE
 39
0.0
 62
1
  8
LINES
 10
303.0
 20
7.4
 30
0.0
 11
306.0
 21
7.4
 31
0.0
  0
LINE
 39
0.0
 62
1
  8
LINES
 10
306.0
 20
7.4
 30
0.0
 11
306.0
 21
17.8
 31
0.0
  0
LINE
 39
0.0
 62
1
  8
LINES
 10
306.0
 20
17.8
 30
0.0
 11
303.0
 21
17.8
 31
0.0
  0
LINE
 39
0.0
 62
1
  8
LINES
 10
303.0
 20
17.8
 30
0.0
 11
303.0
 21
21.8
 31
0.0
  0
LINE
 39
0.0
 62
1
  8
LINES
 10
303.0
 20
21.8
 30
0.0
 11
303.0
 21
26.2
 31
0.0
  0
LINE
 39
0.0
 62
1
  8
LINES
 10
303.0
 20
26.2
 30
0.0
 11
306.0
 21
26.2
 31
0.0
  0
LINE
 39
0.0
 62
1
  8
LINES
 10
306.0
 20
26.2
 30
0.0
 11
306.0
 21
36.6
 31
0.0
  0
LINE
 39
0.0
 62
1
  8
LINES
 10
306.0
 20
36.6
 30
0.0
 11
303.0
 21
36.6
 31
0.0
  0
LINE
 39
0.0
 62
1
  8
LINES
 10
303.0
 20
36.6
 30
0.0
 11
303.0
 21
40.6
 31
0.0
  0
LINE
 39
0.0
 62
1
  8
LINES
 10
303.0
 20
40.6
 30
0.0
 11
303.0
 21
45.0
 31
0.0
  0
LINE
 39
0.0
 62
1
  8
LINES
 10
303.0
 20
45.0
 30
0.0
 11
306.0
 21
45.0
 31
0.0
  0
LINE
 39
0.0
 62
1
  8
LINES
 10
306.0
 20
45.0
 30
0.0
 11
306.0
 21
55.4
 31
0.0
  0
LINE
 39
0.0
 62
1
  8
LINES
 10
306.0
 20
55.4
 30
0.0
 11
303.0
 21
55.4
 31
0.0
  0
LINE
 39
0.0
 62
1
  8
LINES
 10
303.0
 20
55.4
 30
0.0
 11
303.0
 21
59.4
 31
0.0
  0
LINE
 39
0.0
 62
1
  8
LINES
 10
303.0
 20
59.4
 30
0.0
 11
303.0
 21
63.8
 31
0.0
  0
LINE
 39
0.0
 62
1
  8
LINES
 10
303.0
 20
63.8
 30
0.0
 11
306.0
 21
63.8
 31
0.0
  0
LINE
 39
0.0
 62
1
  8
LINES
 10
306.0
 20
63.8
 30
0.0
 11
306.0
 21
74.2
 31
0.0
  0
LINE
 39
0.0
 62
1
  8
LINES
 10
306.0
 20
74.2
 30
0.0
 11
303.0
 21
74.2
 31
0.0
  0
LINE
 39
0.0
 62
1
  8
LINES
 10
303.0
 20
74.2
 30
0.0
 11
303.0
 21
78.2
 31
0.0
  0
LINE
 39
0.0
 62
1
  8
LINES
 10
303.0
 20
78.2
 30
0.0
 11
303.0
 21
82.6
 31
0.0
  0
LINE
 39
0.0
 62
1
  8
LINES
 10
303.0
 20
82.6
 30
0.0
 11
306.0
 21
82.6
 31
0.0
  0
LINE
 39
0.0
 62
1
  8
LINES
 10
306.0
 20
82.6
 30
0.0
 11
306.0
 21
93.0
 31
0.0
  0
LINE
 39
0.0
 62
1
  8
LINES
 10
306.0
 20
93.0
 30
0.0
 11
303.0
 21
93.0
 31
0.0
  0
LINE
 39
0.0
 62
1
  8
LINES
 10
303.0
 20
93.0
 30
0.0
 11
303.0
 21
97.0
 31
0.0
  0
LINE
 39
0.0
 62
1
  8
LINES
 10
303.0
 20
97.0
 30
0.0
 11
303.0
 21
100.0
 31
0.0
  0
LINE
 39
0.0
 62
1
  8
LINES
 10
303.0
 20
100.0
 30
0.0
 11
303.0
 21
100.0
 31
0.0
  0
LINE
 39
0.0
 62
1
  8
LINES
 10
303.0
 20
100.0
 30
0.0
 11
206.0
 21
100.0
 31
0.0
  0
LINE
 39
0.0
 62
1
  8
LINES
 10
206.0
 20
100.0
 30
0.0
 11
206.0
 21
97.0
 31
0.0
  0
LINE
 39
0.0
 62
1
  8
LINES
 10
206.0
 20
97.0
 30
0.0
 11
206.0
 21
92.6
 31
0.0
  0
LINE
 39
0.0
 62
1
  8
LINES
 10
206.0
 20
92.6
 30
0.0
 11
209.0
 21
92.6
 31
0.0
  0
LINE
 39
0.0
 62
1
  8
LINES
 10
209.0
 20
92.6
 30
0.0
 11
209.0
 21
82.6
 31
0.0
  0
LINE
 39
0.0
 62
1
  8
LINES
 10
209.0
 20
82.6
 30
0.0
 11
206.0
 21
82.6
 31
0.0
  0
LINE
 39
0.0
 62
1
  8
LINES
 10
206.0
 20
82.6
 30
0.0
 11
206.0
 21
78.2
 31
0.0
  0
LINE
 39
0.0
 62
1
  8
LINES
 10
206.0
 20
78.2
 30
0.0
 11
206.0
 21
73.8
 31
0.0
  0
LINE
 39
0.0
 62
1
  8
LINES
 10
206.0
 20
73.8
 30
0.0
 11
209.0
 21
73.8
 31
0.0
  0
LINE
 39
0.0
 62
1
  8
LINES
 10
209.0
 20
73.8
 30
0.0
 11
209.0
 21
63.8
 31
0.0
  0
LINE
 39
0.0
 62
1
  8
LINES
 10
209.0
 20
63.8
 30
0.0
 11
206.0
 21
63.8
 31
0.0
  0
LINE
 39
0.0
 62
1
  8
LINES
 10
206.0
 20
63.8
 30
0.0
 11
206.0
 21
59.4
 31
0.0
  0
LINE
 39
0.0
 62
1
  8
LINES
 10
206.0
 20
59.4
 30
0.0
 11
206.0
 21
55.0
 31
0.0
  0
LINE
 39
0.0
 62
1
  8
LINES
 10
206.0
 20
55.0
 30
0.0
 11
209.0
 21
55.0
 31
0.0
  0
LINE
 39
0.0
 62
1
  8
LINES
 10
209.0
 20
55.0
 30
0.0
 11
209.0
 21
45.0
 31
0.0
  0
LINE
 39
0.0
 62
1
  8
LINES
 10
209.0
 20
45.0
 30
0.0
 11
206.0
 21
45.0
 31
0.0
  0
LINE
 39
0.0
 62
1
  8
LINES
 10
206.0
 20
45.0
 30
0.0
 11
206.0
 21
40.6
 31
0.0
  0
LINE
 39
0.0
 62
1
  8
LINES
 10
206.0
 20
40.6
 30
0.0
 11
206.0
 21
36.2
 31
0.0
  0
LINE
 39
0.0
 62
1
  8
LINES
 10
206.0
 20
36.2
 30
0.0
 11
209.0
 21
36.2
 31
0.0
  0
LINE
 39
0.0
 62
1
  8
LINES
 10
209.0
 20
36.2
 30
0.0
 11
209.0
 21
26.2
 31
0.0
  0
LINE
 39
0.0
 62
1
  8
LINES
 10
209.0
 20
26.2
 30
0.0
 11
206.0
 21
26.2
 31
0.0
  0
LINE
 39
0.0
 62
1
  8
LINES
 10
206.0
 20
26.2
 30
0.0
 11
206.0
 21
21.8
 31
0.0
  0
LINE
 39
0.0
 62
1
  8
LINES
 10
206.0
 20
21.8
 30
0.0
 11
206.0
 21
17.4
 31
0.0
  0
LINE
 39
0.0
 62
1
  8
LINES
 10
206.0
 20
17.4
 30
0.0
 11
209.0
 21
17.4
 31
0.0
  0
LINE
 39
0.0
 62
1
  8
LINES
 10
209.0
 20
17.4
 30
0.0
 11
209.0
 21
7.4
 31
0.0
  0
LINE
 39
0.0
 62
1
  8
LINES
 10
209.0
 20
7.4
 30
0.0
 11
206.0
 21
7.4
 31
0.0
  0
LINE
 39
0.0
 62
1
  8
LINES
 10
206.0
 20
7.4
 30
0.0
 11
206.0
 21
3.0
 31
0.0
  0
LINE
 39
0.0
 62
1
  8
LINES
 10
206.0
 20
3.0
 30
0.0
 11
206.0
 21
0.0
 31
0.0
  0
LINE
 39
0.0
 62
1
  8
LINES
 10
0.0
 20
0.0
 30
0.0
 11
0.0
 21
0.0
 31
0.0
  0
LINE
 39
0.0
 62
1
  8
LINES
 10
309.0
 20
0.0
 30
0.0
 11
316.4
 21
0.0
 31
0.0
  0
LINE
 39
0.0
 62
1
  8
LINES
 10
316.4
 20
0.0
 30
0.0
 11
316.4
 21
3.0
 31
0.0
  0
LINE
 39
0.0
 62
1
  8
LINES
 10
316.4
 20
3.0
 30
0.0
 11
326.4
 21
3.0
 31
0.0
  0
LINE
 39
0.0
 62
1
  8
LINES
 10
326.4
 20
3.0
 30
0.0
 11
326.4
 21
0.0
 31
0.0
  0
LINE
 39
0.0
 62
1
  8
LINES
 10
326.4
 20
0.0
 30
0.0
 11
335.2
 21
0.0
 31
0.0
  0
LINE
 39
0.0
 62
1
  8
LINES
 10
335.2
 20
0.0
 30
0.0
 11
335.2
 21
3.0
 31
0.0
  0
LINE
 39
0.0
 62
1
  8
LINES
 10
335.2
 20
3.0
 30
0.0
 11
345.2
 21
3.0
 31
0.0
  0
LINE
 39
0.0
 62
1
  8
LINES
 10
345.2
 20
3.0
 30
0.0
 11
345.2
 21
0.0
 31
0.0
  0
LINE
 39
0.0
 62
1
  8
LINES
 10
345.2
 20
0.0
 30
0.0
 11
354.0
 21
0.0
 31
0.0
  0
LINE
 39
0.0
 62
1
  8
LINES
 10
354.0
 20
0.0
 30
0.0
 11
354.0
 21
3.0
 31
0.0
  0
LINE
 39
0.0
 62
1
  8
LINES
 10
354.0
 20
3.0
 30
0.0
 11
364.0
 21
3.0
 31
0.0
  0
LINE
 39
0.0
 62
1
  8
LINES
 10
364.0
 20
3.0
 30
0.0
 11
364.0
 21
0.0
 31
0.0
  0
LINE
 39
0.0
 62
1
  8
LINES
 10
364.0
 20
0.0
 30
0.0
 11
372.8
 21
0.0
 31
0.0
  0
LINE
 39
0.0
 62
1
  8
LINES
 10
372.8
 20
0.0
 30
0.0
 11
372.8
 21
3.0
 31
0.0
  0
LINE
 39
0.0
 62
1
  8
LINES
 10
372.8
 20
3.0
 30
0.0
 11
382.8
 21
3.0
 31
0.0
  0
LINE
 39
0.0
 62
1
  8
LINES
 10
382.8
 20
3.0
 30
0.0
 11
382.8
 21
0.0
 31
0.0
  0
LINE
 39
0.0
 62
1
  8
LINES
 10
382.8
 20
0.0
 30
0.0
 11
391.6
 21
0.0
 31
0.0
  0
LINE
 39
0.0
 62
1
  8
LINES
 10
391.6
 20
0.0
 30
0.0
 11
391.6
 21
3.0
 31
0.0
  0
LINE
 39
0.0
 62
1
  8
LINES
 10
391.6
 20
3.0
 30
0.0
 11
401.6
 21
3.0
 31
0.0
  0
LINE
 39
0.0
 62
1
  8
LINES
 10
401.6
 20
3.0
 30
0.0
 11
401.6
 21
0.0
 31
0.0
  0
LINE
 39
0.0
 62
1
  8
LINES
 10
401.6
 20
0.0
 30
0.0
 11
404.6
 21
0.0
 31
0.0
  0
LINE
 39
0.0
 62
1
  8
LINES
 10
404.6
 20
0.0
 30
0.0
 11
406.0
 21
0.0
 31
0.0
  0
LINE
 39
0.0
 62
1
  8
LINES
 10
406.0
 20
0.0
 30
0.0
 11
406.0
 21
3.0
 31
0.0
  0
LINE
 39
0.0
 62
1
  8
LINES
 10
406.0
 20
3.0
 30
0.0
 11
406.0
 21
7.4
 31
0.0
  0
LINE
 39
0.0
 62
1
  8
LINES
 10
406.0
 20
7.4
 30
0.0
 11
409.0
 21
7.4
 31
0.0
  0
LINE
 39
0.0
 62
1
  8
LINES
 10
409.0
 20
7.4
 30
0.0
 11
409.0
 21
17.8
 31
0.0
  0
LINE
 39
0.0
 62
1
  8
LINES
 10
409.0
 20
17.8
 30
0.0
 11
406.0
 21
17.8
 31
0.0
  0
LINE
 39
0.0
 62
1
  8
LINES
 10
406.0
 20
17.8
 30
0.0
 11
406.0
 21
21.8
 31
0.0
  0
LINE
 39
0.0
 62
1
  8
LINES
 10
406.0
 20
21.8
 30
0.0
 11
406.0
 21
26.2
 31
0.0
  0
LINE
 39
0.0
 62
1
  8
LINES
 10
406.0
 20
26.2
 30
0.0
 11
409.0
 21
26.2
 31
0.0
  0
LINE
 39
0.0
 62
1
  8
LINES
 10
409.0
 20
26.2
 30
0.0
 11
409.0
 21
36.6
 31
0.0
  0
LINE
 39
0.0
 62
1
  8
LINES
 10
409.0
 20
36.6
 30
0.0
 11
406.0
 21
36.6
 31
0.0
  0
LINE
 39
0.0
 62
1
  8
LINES
 10
406.0
 20
36.6
 30
0.0
 11
406.0
 21
40.6
 31
0.0
  0
LINE
 39
0.0
 62
1
  8
LINES
 10
406.0
 20
40.6
 30
0.0
 11
406.0
 21
45.0
 31
0.0
  0
LINE
 39
0.0
 62
1
  8
LINES
 10
406.0
 20
45.0
 30
0.0
 11
409.0
 21
45.0
 31
0.0
  0
LINE
 39
0.0
 62
1
  8
LINES
 10
409.0
 20
45.0
 30
0.0
 11
409.0
 21
55.4
 31
0.0
  0
LINE
 39
0.0
 62
1
  8
LINES
 10
409.0
 20
55.4
 30
0.0
 11
406.0
 21
55.4
 31
0.0
  0
LINE
 39
0.0
 62
1
  8
LINES
 10
406.0
 20
55.4
 30
0.0
 11
406.0
 21
59.4
 31
0.0
  0
LINE
 39
0.0
 62
1
  8
LINES
 10
406.0
 20
59.4
 30
0.0
 11
406.0
 21
63.8
 31
0.0
  0
LINE
 39
0.0
 62
1
  8
LINES
 10
406.0
 20
63.8
 30
0.0
 11
409.0
 21
63.8
 31
0.0
  0
LINE
 39
0.0
 62
1
  8
LINES
 10
409.0
 20
63.8
 30
0.0
 11
409.0
 21
74.2
 31
0.0
  0
LINE
 39
0.0
 62
1
  8
LINES
 10
409.0
 20
74.2
 30
0.0
 11
406.0
 21
74.2
 31
0.0
  0
LINE
 39
0.0
 62
1
  8
LINES
 10
406.0
 20
74.2
 30
0.0
 11
406.0
 21
78.2
 31
0.0
  0
LINE
 39
0.0
 62
1
  8
LINES
 10
406.0
 20
78.2
 30
0.0
 11
406.0
 21
82.6
 31
0.0
  0
LINE
 39
0.0
 62
1
  8
LINES
 10
406.0
 20
82.6
 30
0.0
 11
409.0
 21
82.6
 31
0.0
  0
LINE
 39
0.0
 62
1
  8
LINES
 10
409.0
 20
82.6
 30
0.0
 11
409.0
 21
93.0
 31
0.0
  0
LINE
 39
0.0
 62
1
  8
LINES
 10
409.0
 20
93.0
 30
0.0
 11
406.0
 21
93.0
 31
0.0
  0
LINE
 39
0.0
 62
1
  8
LINES
 10
406.0
 20
93.0
 30
0.0
 11
406.0
 21
97.0
 31
0.0
  0
LINE
 39
0.0
 62
1
  8
LINES
 10
406.0
 20
97.0
 30
0.0
 11
406.0
 21
100.0
 31
0.0
  0
LINE
 39
0.0
 62
1
  8
LINES
 10
406.0
 20
100.0
 30
0.0
 11
406.0
 21
100.0
 31
0.0
  0
LINE
 39
0.0
 62
1
  8
LINES
 10
406.0
 20
100.0
 30
0.0
 11
309.0
 21
100.0
 31
0.0
  0
LINE
 39
0.0
 62
1
  8
LINES
 10
309.0
 20
100.0
 30
0.0
 11
309.0
 21
97.0
 31
0.0
  0
LINE
 39
0.0
 62
1
  8
LINES
 10
309.0
 20
97.0
 30
0.0
 11
309.0
 21
92.6
 31
0.0
  0
LINE
 39
0.0
 62
1
  8
LINES
 10
309.0
 20
92.6
 30
0.0
 11
312.0
 21
92.6
 31
0.0
  0
LINE
 39
0.0
 62
1
  8
LINES
 10
312.0
 20
92.6
 30
0.0
 11
312.0
 21
82.6
 31
0.0
  0
LINE
 39
0.0
 62
1
  8
LINES
 10
312.0
 20
82.6
 30
0.0
 11
309.0
 21
82.6
 31
0.0
  0
LINE
 39
0.0
 62
1
  8
LINES
 10
309.0
 20
82.6
 30
0.0
 11
309.0
 21
78.2
 31
0.0
  0
LINE
 39
0.0
 62
1
  8
LINES
 10
309.0
 20
78.2
 30
0.0
 11
309.0
 21
73.8
 31
0.0
  0
LINE
 39
0.0
 62
1
  8
LINES
 10
309.0
 20
73.8
 30
0.0
 11
312.0
 21
73.8
 31
0.0
  0
LINE
 39
0.0
 62
1
  8
LINES
 10
312.0
 20
73.8
 30
0.0
 11
312.0
 21
63.8
 31
0.0
  0
LINE
 39
0.0
 62
1
  8
LINES
 10
312.0
 20
63.8
 30
0.0
 11
309.0
 21
63.8
 31
0.0
  0
LINE
 39
0.0
 62
1
  8
LINES
 10
309.0
 20
63.8
 30
0.0
 11
309.0
 21
59.4
 31
0.0
  0
LINE
 39
0.0
 62
1
  8
LINES
 10
309.0
 20
59.4
 30
0.0
 11
309.0
 21
55.0
 31
0.0
  0
LINE
 39
0.0
 62
1
  8
LINES
 10
309.0
 20
55.0
 30
0.0
 11
312.0
 21
55.0
 31
0.0
  0
LINE
 39
0.0
 62
1
  8
LINES
 10
312.0
 20
55.0
 30
0.0
 11
312.0
 21
45.0
 31
0.0
  0
LINE
 39
0.0
 62
1
  8
LINES
 10
312.0
 20
45.0
 30
0.0
 11
309.0
 21
45.0
 31
0.0
  0
LINE
 39
0.0
 62
1
  8
LINES
 10
309.0
 20
45.0
 30
0.0
 11
309.0
 21
40.6
 31
0.0
  0
LINE
 39
0.0
 62
1
  8
LINES
 10
309.0
 20
40.6
 30
0.0
 11
309.0
 21
36.2
 31
0.0
  0
LINE
 39
0.0
 62
1
  8
LINES
 10
309.0
 20
36.2
 30
0.0
 11
312.0
 21
36.2
 31
0.0
  0
LINE
 39
0.0
 62
1
  8
LINES
 10
312.0
 20
36.2
 30
0.0
 11
312.0
 21
26.2
 31
0.0
  0
LINE
 39
0.0
 62
1
  8
LINES
 10
312.0
 20
26.2
 30
0.0
 11
309.0
 21
26.2
 31
0.0
  0
LINE
 39
0.0
 62
1
  8
LINES
 10
309.0
 20
26.2
 30
0.0
 11
309.0
 21
21.8
 31
0.0
  0
LINE
 39
0.0
 62
1
  8
LINES
 10
309.0
 20
21.8
 30
0.0
 11
309.0
 21
17.4
 31
0.0
  0
LINE
 39
0.0
 62
1
  8
LINES
 10
309.0
 20
17.4
 30
0.0
 11
312.0
 21
17.4
 31
0.0
  0
LINE
 39
0.0
 62
1
  8
LINES
 10
312.0
 20
17.4
 30
0.0
 11
312.0
 21
7.4
 31
0.0
  0
LINE
 39
0.0
 62
1
  8
LINES
 10
312.0
 20
7.4
 30
0.0
 11
309.0
 21
7.4
 31
0.0
  0
LINE
 39
0.0
 62
1
  8
LINES
 10
309.0
 20
7.4
 30
0.0
 11
309.0
 21
3.0
 31
0.0
  0
LINE
 39
0.0
 62
1
  8
LINES
 10
309.0
 20
3.0
 30
0.0
 11
309.0
 21
0.0
 31
0.0
  0
LINE
 39
0.0
 62
1
  8
LINES
 10
0.0
 20
0.0
 30
0.0
 11
0.0
 21
0.0
 31
0.0
  0
LINE
 39
0.0
 62
1
  8
LINES
 10
412.0
 20
0.0
 30
0.0
 11
419.4
 21
0.0
 31
0.0
  0
LINE
 39
0.0
 62
1
  8
LINES
 10
419.4
 20
0.0
 30
0.0
 11
419.4
 21
3.0
 31
0.0
  0
LINE
 39
0.0
 62
1
  8
LINES
 10
419.4
 20
3.0
 30
0.0
 11
429.4
 21
3.0
 31
0.0
  0
LINE
 39
0.0
 62
1
  8
LINES
 10
429.4
 20
3.0
 30
0.0
 11
429.4
 21
0.0
 31
0.0
  0
LINE
 39
0.0
 62
1
  8
LINES
 10
429.4
 20
0.0
 30
0.0
 11
438.2
 21
0.0
 31
0.0
  0
LINE
 39
0.0
 62
1
  8
LINES
 10
438.2
 20
0.0
 30
0.0
 11
438.2
 21
3.0
 31
0.0
  0
LINE
 39
0.0
 62
1
  8
LINES
 10
438.2
 20
3.0
 30
0.0
 11
448.2
 21
3.0
 31
0.0
  0
LINE
 39
0.0
 62
1
  8
LINES
 10
448.2
 20
3.0
 30
0.0
 11
448.2
 21
0.0
 31
0.0
  0
LINE
 39
0.0
 62
1
  8
LINES
 10
448.2
 20
0.0
 30
0.0
 11
457.0
 21
0.0
 31
0.0
  0
LINE
 39
0.0
 62
1
  8
LINES
 10
457.0
 20
0.0
 30
0.0
 11
457.0
 21
3.0
 31
0.0
  0
LINE
 39
0.0
 62
1
  8
LINES
 10
457.0
 20
3.0
 30
0.0
 11
467.0
 21
3.0
 31
0.0
  0
LINE
 39
0.0
 62
1
  8
LINES
 10
467.0
 20
3.0
 30
0.0
 11
467.0
 21
0.0
 31
0.0
  0
LINE
 39
0.0
 62
1
  8
LINES
 10
467.0
 20
0.0
 30
0.0
 11
475.8
 21
0.0
 31
0.0
  0
LINE
 39
0.0
 62
1
  8
LINES
 10
475.8
 20
0.0
 30
0.0
 11
475.8
 21
3.0
 31
0.0
  0
LINE
 39
0.0
 62
1
  8
LINES
 10
475.8
 20
3.0
 30
0.0
 11
485.8
 21
3.0
 31
0.0
  0
LINE
 39
0.0
 62
1
  8
LINES
 10
485.8
 20
3.0
 30
0.0
 11
485.8
 21
0.0
 31
0.0
  0
LINE
 39
0.0
 62
1
  8
LINES
 10
485.8
 20
0.0
 30
0.0
 11
494.6
 21
0.0
 31
0.0
  0
LINE
 39
0.0
 62
1
  8
LINES
 10
494.6
 20
0.0
 30
0.0
 11
494.6
 21
3.0
 31
0.0
  0
LINE
 39
0.0
 62
1
  8
LINES
 10
494.6
 20
3.0
 30
0.0
 11
504.6
 21
3.0
 31
0.0
  0
LINE
 39
0.0
 62
1
  8
LINES
 10
504.6
 20
3.0
 30
0.0
 11
504.6
 21
0.0
 31
0.0
  0
LINE
 39
0.0
 62
1
  8
LINES
 10
504.6
 20
0.0
 30
0.0
 11
507.6
 21
0.0
 31
0.0
  0
LINE
 39
0.0
 62
1
  8
LINES
 10
507.6
 20
0.0
 30
0.0
 11
509.0
 21
0.0
 31
0.0
  0
LINE
 39
0.0
 62
1
  8
LINES
 10
509.0
 20
0.0
 30
0.0
 11
509.0
 21
3.0
 31
0.0
  0
LINE
 39
0.0
 62
1
  8
LINES
 10
509.0
 20
3.0
 30
0.0
 11
509.0
 21
7.4
 31
0.0
  0
LINE
 39
0.0
 62
1
  8
LINES
 10
509.0
 20
7.4
 30
0.0
 11
512.0
 21
7.4
 31
0.0
  0
LINE
 39
0.0
 62
1
  8
LINES
 10
512.0
 20
7.4
 30
0.0
 11
512.0
 21
17.8
 31
0.0
  0
LINE
 39
0.0
 62
1
  8
LINES
 10
512.0
 20
17.8
 30
0.0
 11
509.0
 21
17.8
 31
0.0
  0
LINE
 39
0.0
 62
1
  8
LINES
 10
509.0
 20
17.8
 30
0.0
 11
509.0
 21
21.8
 31
0.0
  0
LINE
 39
0.0
 62
1
  8
LINES
 10
509.0
 20
21.8
 30
0.0
 11
509.0
 21
26.2
 31
0.0
  0
LINE
 39
0.0
 62
1
  8
LINES
 10
509.0
 20
26.2
 30
0.0
 11
512.0
 21
26.2
 31
0.0
  0
LINE
 39
0.0
 62
1
  8
LINES
 10
512.0
 20
26.2
 30
0.0
 11
512.0
 21
36.6
 31
0.0
  0
LINE
 39
0.0
 62
1
  8
LINES
 10
512.0
 20
36.6
 30
0.0
 11
509.0
 21
36.6
 31
0.0
  0
LINE
 39
0.0
 62
1
  8
LINES
 10
509.0
 20
36.6
 30
0.0
 11
509.0
 21
40.6
 31
0.0
  0
LINE
 39
0.0
 62
1
  8
LINES
 10
509.0
 20
40.6
 30
0.0
 11
509.0
 21
45.0
 31
0.0
  0
LINE
 39
0.0
 62
1
  8
LINES
 10
509.0
 20
45.0
 30
0.0
 11
512.0
 21
45.0
 31
0.0
  0
LINE
 39
0.0
 62
1
  8
LINES
 10
512.0
 20
45.0
 30
0.0
 11
512.0
 21
55.4
 31
0.0
  0
LINE
 39
0.0
 62
1
  8
LINES
 10
512.0
 20
55.4
 30
0.0
 11
509.0
 21
55.4
 31
0.0
  0
LINE
 39
0.0
 62
1
  8
LINES
 10
509.0
 20
55.4
 30
0.0
 11
509.0
 21
59.4
 31
0.0
  0
LINE
 39
0.0
 62
1
  8
LINES
 10
509.0
 20
59.4
 30
0.0
 11
509.0
 21
63.8
 31
0.0
  0
LINE
 39
0.0
 62
1
  8
LINES
 10
509.0
 20
63.8
 30
0.0
 11
512.0
 21
63.8
 31
0.0
  0
LINE
 39
0.0
 62
1
  8
LINES
 10
512.0
 20
63.8
 30
0.0
 11
512.0
 21
74.2
 31
0.0
  0
LINE
 39
0.0
 62
1
  8
LINES
 10
512.0
 20
74.2
 30
0.0
 11
509.0
 21
74.2
 31
0.0
  0
LINE
 39
0.0
 62
1
  8
LINES
 10
509.0
 20
74.2
 30
0.0
 11
509.0
 21
78.2
 31
0.0
  0
LINE
 39
0.0
 62
1
  8
LINES
 10
509.0
 20
78.2
 30
0.0
 11
509.0
 21
82.6
 31
0.0
  0
LINE
 39
0.0
 62
1
  8
LINES
 10
509.0
 20
82.6
 30
0.0
 11
512.0
 21
82.6
 31
0.0
  0
LINE
 39
0.0
 62
1
  8
LINES
 10
512.0
 20
82.6
 30
0.0
 11
512.0
 21
93.0
 31
0.0
  0
LINE
 39
0.0
 62
1
  8
LINES
 10
512.0
 20
93.0
 30
0.0
 11
509.0
 21
93.0
 31
0.0
  0
LINE
 39
0.0
 62
1
  8
LINES
 10
509.0
 20
93.0
 30
0.0
 11
509.0
 21
97.0
 31
0.0
  0
LINE
 39
0.0
 62
1
  8
LINES
 10
509.0
 20
97.0
 30
0.0
 11
509.0
 21
100.0
 31
0.0
  0
LINE
 39
0.0
 62
1
  8
LINES
 10
509.0
 20
100.0
 30
0.0
 11
509.0
 21
100.0
 31
0.0
  0
LINE
 39
0.0
 62
1
  8
LINES
 10
509.0
 20
100.0
 30
0.0
 11
412.0
 21
100.0
 31
0.0
  0
LINE
 39
0.0
 62
1
  8
LINES
 10
412.0
 20
100.0
 30
0.0
 11
412.0
 21
97.0
 31
0.0
  0
LINE
 39
0.0
 62
1
  8
LINES
 10
412.0
 20
97.0
 30
0.0
 11
412.0
 21
92.6
 31
0.0
  0
LINE
 39
0.0
 62
1
  8
LINES
 10
412.0
 20
92.6
 30
0.0
 11
415.0
 21
92.6
 31
0.0
  0
LINE
 39
0.0
 62
1
  8
LINES
 10
415.0
 20
92.6
 30
0.0
 11
415.0
 21
82.6
 31
0.0
  0
LINE
 39
0.0
 62
1
  8
LINES
 10
415.0
 20
82.6
 30
0.0
 11
412.0
 21
82.6
 31
0.0
  0
LINE
 39
0.0
 62
1
  8
LINES
 10
412.0
 20
82.6
 30
0.0
 11
412.0
 21
78.2
 31
0.0
  0
LINE
 39
0.0
 62
1
  8
LINES
 10
412.0
 20
78.2
 30
0.0
 11
412.0
 21
73.8
 31
0.0
  0
LINE
 39
0.0
 62
1
  8
LINES
 10
412.0
 20
73.8
 30
0.0
 11
415.0
 21
73.8
 31
0.0
  0
LINE
 39
0.0
 62
1
  8
LINES
 10
415.0
 20
73.8
 30
0.0
 11
415.0
 21
63.8
 31
0.0
  0
LINE
 39
0.0
 62
1
  8
LINES
 10
415.0
 20
63.8
 30
0.0
 11
412.0
 21
63.8
 31
0.0
  0
LINE
 39
0.0
 62
1
  8
LINES
 10
412.0
 20
63.8
 30
0.0
 11
412.0
 21
59.4
 31
0.0
  0
LINE
 39
0.0
 62
1
  8
LINES
 10
412.0
 20
59.4
 30
0.0
 11
412.0
 21
55.0
 31
0.0
  0
LINE
 39
0.0
 62
1
  8
LINES
 10
412.0
 20
55.0
 30
0.0
 11
415.0
 21
55.0
 31
0.0
  0
LINE
 39
0.0
 62
1
  8
LINES
 10
415.0
 20
55.0
 30
0.0
 11
415.0
 21
45.0
 31
0.0
  0
LINE
 39
0.0
 62
1
  8
LINES
 10
415.0
 20
45.0
 30
0.0
 11
412.0
 21
45.0
 31
0.0
  0
LINE
 39
0.0
 62
1
  8
LINES
 10
412.0
 20
45.0
 30
0.0
 11
412.0
 21
40.6
 31
0.0
  0
LINE
 39
0.0
 62
1
  8
LINES
 10
412.0
 20
40.6
 30
0.0
 11
412.0
 21
36.2
 31
0.0
  0
LINE
 39
0.0
 62
1
  8
LINES
 10
412.0
 20
36.2
 30
0.0
 11
415.0
 21
36.2
 31
0.0
  0
LINE
 39
0.0
 62
1
  8
LINES
 10
415.0
 20
36.2
 30
0.0
 11
415.0
 21
26.2
 31
0.0
  0
LINE
 39
0.0
 62
1
  8
LINES
 10
415.0
 20
26.2
 30
0.0
 11
412.0
 21
26.2
 31
0.0
  0
LINE
 39
0.0
 62
1
  8
LINES
 10
412.0
 20
26.2
 30
0.0
 11
412.0
 21
21.8
 31
0.0
  0
LINE
 39
0.0
 62
1
  8
LINES
 10
412.0
 20
21.8
 30
0.0
 11
412.0
 21
17.4
 31
0.0
  0
LINE
 39
0.0
 62
1
  8
LINES
 10
412.0
 20
17.4
 30
0.0
 11
415.0
 21
17.4
 31
0.0
  0
LINE
 39
0.0
 62
1
  8
LINES
 10
415.0
 20
17.4
 30
0.0
 11
415.0
 21
7.4
 31
0.0
  0
LINE
 39
0.0
 62
1
  8
LINES
 10
415.0
 20
7.4
 30
0.0
 11
412.0
 21
7.4
 31
0.0
  0
LINE
 39
0.0
 62
1
  8
LINES
 10
412.0
 20
7.4
 30
0.0
 11
412.0
 21
3.0
 31
0.0
  0
LINE
 39
0.0
 62
1
  8
LINES
 10
412.0
 20
3.0
 30
0.0
 11
412.0
 21
0.0
 31
0.0
  0
LINE
 39
0.0
 62
1
  8
LINES
 10
0.0
 20
0.0
 30
0.0
 11
0.0
 21
0.0
 31
0.0
  0
ENDSEC
  0
EOF
