  0
SECTION
  2
HEADER
  9
$ACADVER
  1
AC1009
  9
$INSBASE
 10
0.0
 20
0.0
 30
0.0
  9
$EXTMIN
 10
0.0
 20
0.0
 30
0.0
  9
$EXTMAX
 10
100.0
 20
100.0
 30
0.0
  9
$UNITMODE
 70
0
  9
$AUNITS
 70
0
  9
$ANGBASE
 50
0.0
  9
$ANGDIR
 70
0
  0
ENDSEC
  0
SECTION
  2
TABLES
  0
TABLE
  2
LTYPE
 70
19
  0
LTYPE
  2
CONTINUOUS
 70
0
  3
Solid
 72
65
 73
0
 40
0.0
  0
LTYPE
  2
CENTER
 70
0
  3
Center ____ _ ____ _ ____ _ ____ _ ____ _ ____
 72
65
 73
4
 40
2.0
 49
1.25
 49
-0.25
 49
0.25
 49
-0.25
  0
LTYPE
  2
CENTERX2
 70
0
  3
Center (2x) ________  __  ________  __  ________
 72
65
 73
4
 40
3.5
 49
2.5
 49
-0.25
 49
0.5
 49
-0.25
  0
LTYPE
  2
CENTER2
 70
0
  3
Center (.5x) ____ _ ____ _ ____ _ ____ _ ____
 72
65
 73
4
 40
1.0
 49
0.625
 49
-0.125
 49
0.125
 49
-0.125
  0
LTYPE
  2
DASHED
 70
0
  3
Dashed __ __ __ __ __ __ __ __ __ __ __ __ __ _
 72
65
 73
2
 40
0.6
 49
0.5
 49
-0.1
  0
LTYPE
  2
DASHEDX2
 70
0
  3
Dashed (2x) ____  ____  ____  ____  ____  ____
 72
65
 73
2
 40
1.2
 49
1.0
 49
-0.2
  0
LTYPE
  2
DASHED2
 70
0
  3
Dashed (.5x) _ _ _ _ _ _ _ _ _ _ _ _ _ _
 72
65
 73
2
 40
0.3
 49
0.25
 49
-0.05
  0
LTYPE
  2
PHANTOM
 70
0
  3
Phantom ______  __  __  ______  __  __  ______
 72
65
 73
6
 40
2.5
 49
1.25
 49
-0.25
 49
0.25
 49
-0.25
 49
0.25
 49
-0.25
  0
LTYPE
  2
PHANTOMX2
 70
0
  3
Phantom (2x)____________    ____    ____    ____________
 72
65
 73
6
 40
4.25
 49
2.5
 49
-0.25
 49
0.5
 49
-0.25
 49
0.5
 49
-0.25
  0
LTYPE
  2
PHANTOM2
 70
0
  3
Phantom (.5x) ___ _ _ ___ _ _ ___ _ _ ___ _ _ ___
 72
65
 73
6
 40
1.25
 49
0.625
 49
-0.125
 49
0.125
 49
-0.125
 49
0.125
 49
-0.125
  0
LTYPE
  2
DASHDOT
 70
0
  3
Dash dot __ . __ . __ . __ . __ . __ . __ . __
 72
65
 73
4
 40
1.4
 49
1.0
 49
-0.2
 49
0.0
 49
-0.2
  0
LTYPE
  2
DASHDOTX2
 70
0
  3
Dash dot (2x) ____  .  ____  .  ____  .  ____
 72
65
 73
4
 40
2.4
 49
2.0
 49
-0.2
 49
0.0
 49
-0.2
  0
LTYPE
  2
DASHDOT2
 70
0
  3
Dash dot (.5x) _ . _ . _ . _ . _ . _ . _ . _
 72
65
 73
4
 40
0.7
 49
0.5
 49
-0.1
 49
0.0
 49
-0.1
  0
LTYPE
  2
DOT
 70
0
  3
Dot .  .  .  .  .  .  .  .  .  .  .  .  .  .  .  .
 72
65
 73
2
 40
0.2
 49
0.0
 49
-0.2
  0
LTYPE
  2
DOTX2
 70
0
  3
Dot (2x) .    .    .    .    .    .    .    . 
 72
65
 73
2
 40
0.4
 49
0.0
 49
-0.4
  0
LTYPE
  2
DOT2
 70
0
  3
Dot (.5) . . . . . . . . . . . . . . . . . . . 
 72
65
 73
2
 40
0.1
 49
0.0
 49
-0.1
  0
LTYPE
  2
DIVIDE
 70
0
  3
Divide __ . . __ . . __ . . __ . . __ . . __
 72
65
 73
6
 40
1.6
 49
1.0
 49
-0.2
 49
0.0
 49
-0.2
 49
0.0
 49
-0.2
  0
LTYPE
  2
DIVIDEX2
 70
0
  3
Divide (2x) ____  . .  ____  . .  ____  . .  ____
 72
65
 73
6
 40
2.6
 49
2.0
 49
-0.2
 49
0.0
 49
-0.2
 49
0.0
 49
-0.2
  0
LTYPE
  2
DIVIDE2
 70
0
  3
Divide(.5x) _ . _ . _ . _ . _ . _ . _ . _
 72
65
 73
6
 40
0.8
 49
0.5
 49
-0.1
 49
0.0
 49
-0.1
 49
0.0
 49
-0.1
  0
ENDTAB
  0
TABLE
  2
LAYER
 70
6
  0
LAYER
  2
DIMENSIONS
 70
0
 62
1
  6
CONTINUOUS
  0
LAYER
  2
TABLEBACKGROUND
 70
0
 62
1
  6
CONTINUOUS
  0
LAYER
  2
TABLECONTENT
 70
0
 62
1
  6
CONTINUOUS
  0
LAYER
  2
TABLEGRID
 70
0
 62
1
  6
CONTINUOUS
  0
LAYER
  2
VIEWPORTS
 70
0
 62
7
  6
CONTINUOUS
  0
LAYER
  2
LINES
 70
0
 62
1
  6
CONTINUOUS
  0
ENDTAB
  0
TABLE
  2
STYLE
 70
12
  0
STYLE
  2
STANDARD
 70
0
 40
0.0
 41
1.0
 42
1.0
 50
0.0
 71
0
  3
arial.ttf
  4

  0
STYLE
  2
ARIAL
 70
0
 40
0.0
 41
1.0
 42
1.0
 50
0.0
 71
0
  3
arial.ttf
  4

  0
STYLE
  2
ARIAL_BOLD
 70
0
 40
0.0
 41
1.0
 42
1.0
 50
0.0
 71
0
  3
arialbd.ttf
  4

  0
STYLE
  2
ARIAL_ITALIC
 70
0
 40
0.0
 41
1.0
 42
1.0
 50
0.0
 71
0
  3
ariali.ttf
  4

  0
STYLE
  2
ARIAL_BOLD_ITALIC
 70
0
 40
0.0
 41
1.0
 42
1.0
 50
0.0
 71
0
  3
arialbi.ttf
  4

  0
STYLE
  2
ARIAL_BLACK
 70
0
 40
0.0
 41
1.0
 42
1.0
 50
0.0
 71
0
  3
ariblk.ttf
  4

  0
STYLE
  2
ISOCPEUR
 70
0
 40
0.0
 41
1.0
 42
1.0
 50
0.0
 71
0
  3
isocpeur.ttf
  4

  0
STYLE
  2
ISOCPEUR_ITALIC
 70
0
 40
0.0
 41
1.0
 42
1.0
 50
0.0
 71
0
  3
isocpeui.ttf
  4

  0
STYLE
  2
TIMES
 70
0
 40
0.0
 41
1.0
 42
1.0
 50
0.0
 71
0
  3
times.ttf
  4

  0
STYLE
  2
TIMES_BOLD
 70
0
 40
0.0
 41
1.0
 42
1.0
 50
0.0
 71
0
  3
timesbd.ttf
  4

  0
STYLE
  2
TIMES_ITALIC
 70
0
 40
0.0
 41
1.0
 42
1.0
 50
0.0
 71
0
  3
timesi.ttf
  4

  0
STYLE
  2
TIMES_BOLD_ITALIC
 70
0
 40
0.0
 41
1.0
 42
1.0
 50
0.0
 71
0
  3
timesbi.ttf
  4

  0
ENDTAB
  0
TABLE
  2
VIEW
 70
0
  0
ENDTAB
  0
TABLE
  2
APPID
 70
1
  0
APPID
  2
DXFWRITE
 70
0
  0
ENDTAB
  0
TABLE
  2
VPORT
 70
0
  0
ENDTAB
  0
TABLE
  2
UCS
 70
0
  0
ENDTAB
  0
ENDSEC
  0
SECTION
  2
BLOCKS
  0
ENDSEC
  0
SECTION
  2
ENTITIES
  0
VIEWPORT
  8
VIEWPORTS
 67
1
 10
0.0
 20
0.0
 30
0.0
 40
1.0
 41
1.0
 68
1
 69
1
1001
ACAD
1000
MVIEW
1002
{
1070
16
1010
0.0
1020
0.0
1030
0.0
1010
0.0
1020
0.0
1030
0.0
1040
0.0
1040
1.0
1040
0.0
1040
0.0
1040
50.0
1040
0.0
1040
0.0
1070
0
1070
100
1070
1
1070
3
1070
0
1070
0
1070
0
1070
0
1040
0.0
1040
0.0
1040
0.0
1040
0.1
1040
0.1
1040
0.1
1040
0.1
1070
0
1002
{
1002
}
1002
}
  0
LINE
 39
0.0
 62
1
  8
LINES
 10
3.0
 20
3.0
 30
0.0
 11
4.8
 21
3.0
 31
0.0
  0
LINE
 39
0.0
 62
1
  8
LINES
 10
4.8
 20
3.0
 30
0.0
 11
4.8
 21
0.0
 31
0.0
  0
LINE
 39
0.0
 62
1
  8
LINES
 10
4.8
 20
0.0
 30
0.0
 11
10.200000000000001
 21
0.0
 31
0.0
  0
LINE
 39
0.0
 62
1
  8
LINES
 10
10.200000000000001
 20
0.0
 30
0.0
 11
10.200000000000001
 21
3.0
 31
0.0
  0
LINE
 39
0.0
 62
1
  8
LINES
 10
10.200000000000001
 20
3.0
 30
0.0
 11
12.400000000000002
 21
3.0
 31
0.0
  0
LINE
 39
0.0
 62
1
  8
LINES
 10
12.400000000000002
 20
3.0
 30
0.0
 11
14.200000000000001
 21
3.0
 31
0.0
  0
LINE
 39
0.0
 62
1
  8
LINES
 10
14.200000000000001
 20
3.0
 30
0.0
 11
14.200000000000001
 21
0.0
 31
0.0
  0
LINE
 39
0.0
 62
1
  8
LINES
 10
14.200000000000001
 20
0.0
 30
0.0
 11
19.6
 21
0.0
 31
0.0
  0
LINE
 39
0.0
 62
1
  8
LINES
 10
19.6
 20
0.0
 30
0.0
 11
19.6
 21
3.0
 31
0.0
  0
LINE
 39
0.0
 62
1
  8
LINES
 10
19.6
 20
3.0
 30
0.0
 11
21.8
 21
3.0
 31
0.0
  0
LINE
 39
0.0
 62
1
  8
LINES
 10
21.8
 20
3.0
 30
0.0
 11
23.6
 21
3.0
 31
0.0
  0
LINE
 39
0.0
 62
1
  8
LINES
 10
23.6
 20
3.0
 30
0.0
 11
23.6
 21
0.0
 31
0.0
  0
LINE
 39
0.0
 62
1
  8
LINES
 10
23.6
 20
0.0
 30
0.0
 11
29.0
 21
0.0
 31
0.0
  0
LINE
 39
0.0
 62
1
  8
LINES
 10
29.0
 20
0.0
 30
0.0
 11
29.0
 21
3.0
 31
0.0
  0
LINE
 39
0.0
 62
1
  8
LINES
 10
29.0
 20
3.0
 30
0.0
 11
31.2
 21
3.0
 31
0.0
  0
LINE
 39
0.0
 62
1
  8
LINES
 10
31.2
 20
3.0
 30
0.0
 11
33.0
 21
3.0
 31
0.0
  0
LINE
 39
0.0
 62
1
  8
LINES
 10
33.0
 20
3.0
 30
0.0
 11
33.0
 21
0.0
 31
0.0
  0
LINE
 39
0.0
 62
1
  8
LINES
 10
33.0
 20
0.0
 30
0.0
 11
38.4
 21
0.0
 31
0.0
  0
LINE
 39
0.0
 62
1
  8
LINES
 10
38.4
 20
0.0
 30
0.0
 11
38.4
 21
3.0
 31
0.0
  0
LINE
 39
0.0
 62
1
  8
LINES
 10
38.4
 20
3.0
 30
0.0
 11
40.6
 21
3.0
 31
0.0
  0
LINE
 39
0.0
 62
1
  8
LINES
 10
40.6
 20
3.0
 30
0.0
 11
42.400000000000006
 21
3.0
 31
0.0
  0
LINE
 39
0.0
 62
1
  8
LINES
 10
42.400000000000006
 20
3.0
 30
0.0
 11
42.400000000000006
 21
0.0
 31
0.0
  0
LINE
 39
0.0
 62
1
  8
LINES
 10
42.400000000000006
 20
0.0
 30
0.0
 11
47.800000000000004
 21
0.0
 31
0.0
  0
LINE
 39
0.0
 62
1
  8
LINES
 10
47.800000000000004
 20
0.0
 30
0.0
 11
47.800000000000004
 21
3.0
 31
0.0
  0
LINE
 39
0.0
 62
1
  8
LINES
 10
47.800000000000004
 20
3.0
 30
0.0
 11
50.00000000000001
 21
3.0
 31
0.0
  0
LINE
 39
0.0
 62
1
  8
LINES
 10
50.00000000000001
 20
3.0
 30
0.0
 11
51.80000000000001
 21
3.0
 31
0.0
  0
LINE
 39
0.0
 62
1
  8
LINES
 10
51.80000000000001
 20
3.0
 30
0.0
 11
51.80000000000001
 21
0.0
 31
0.0
  0
LINE
 39
0.0
 62
1
  8
LINES
 10
51.80000000000001
 20
0.0
 30
0.0
 11
57.20000000000001
 21
0.0
 31
0.0
  0
LINE
 39
0.0
 62
1
  8
LINES
 10
57.20000000000001
 20
0.0
 30
0.0
 11
57.20000000000001
 21
3.0
 31
0.0
  0
LINE
 39
0.0
 62
1
  8
LINES
 10
57.20000000000001
 20
3.0
 30
0.0
 11
59.40000000000001
 21
3.0
 31
0.0
  0
LINE
 39
0.0
 62
1
  8
LINES
 10
59.40000000000001
 20
3.0
 30
0.0
 11
61.20000000000002
 21
3.0
 31
0.0
  0
LINE
 39
0.0
 62
1
  8
LINES
 10
61.20000000000002
 20
3.0
 30
0.0
 11
61.20000000000002
 21
0.0
 31
0.0
  0
LINE
 39
0.0
 62
1
  8
LINES
 10
61.20000000000002
 20
0.0
 30
0.0
 11
66.60000000000002
 21
0.0
 31
0.0
  0
LINE
 39
0.0
 62
1
  8
LINES
 10
66.60000000000002
 20
0.0
 30
0.0
 11
66.60000000000002
 21
3.0
 31
0.0
  0
LINE
 39
0.0
 62
1
  8
LINES
 10
66.60000000000002
 20
3.0
 30
0.0
 11
68.80000000000003
 21
3.0
 31
0.0
  0
LINE
 39
0.0
 62
1
  8
LINES
 10
68.80000000000003
 20
3.0
 30
0.0
 11
70.60000000000002
 21
3.0
 31
0.0
  0
LINE
 39
0.0
 62
1
  8
LINES
 10
70.60000000000002
 20
3.0
 30
0.0
 11
70.60000000000002
 21
0.0
 31
0.0
  0
LINE
 39
0.0
 62
1
  8
LINES
 10
70.60000000000002
 20
0.0
 30
0.0
 11
76.00000000000003
 21
0.0
 31
0.0
  0
LINE
 39
0.0
 62
1
  8
LINES
 10
76.00000000000003
 20
0.0
 30
0.0
 11
76.00000000000003
 21
3.0
 31
0.0
  0
LINE
 39
0.0
 62
1
  8
LINES
 10
76.00000000000003
 20
3.0
 30
0.0
 11
78.20000000000003
 21
3.0
 31
0.0
  0
LINE
 39
0.0
 62
1
  8
LINES
 10
78.20000000000003
 20
3.0
 30
0.0
 11
80.00000000000003
 21
3.0
 31
0.0
  0
LINE
 39
0.0
 62
1
  8
LINES
 10
80.00000000000003
 20
3.0
 30
0.0
 11
80.00000000000003
 21
0.0
 31
0.0
  0
LINE
 39
0.0
 62
1
  8
LINES
 10
80.00000000000003
 20
0.0
 30
0.0
 11
85.40000000000003
 21
0.0
 31
0.0
  0
LINE
 39
0.0
 62
1
  8
LINES
 10
85.40000000000003
 20
0.0
 30
0.0
 11
85.40000000000003
 21
3.0
 31
0.0
  0
LINE
 39
0.0
 62
1
  8
LINES
 10
85.40000000000003
 20
3.0
 30
0.0
 11
87.60000000000004
 21
3.0
 31
0.0
  0
LINE
 39
0.0
 62
1
  8
LINES
 10
87.60000000000004
 20
3.0
 30
0.0
 11
89.40000000000003
 21
3.0
 31
0.0
  0
LINE
 39
0.0
 62
1
  8
LINES
 10
89.40000000000003
 20
3.0
 30
0.0
 11
89.40000000000003
 21
0.0
 31
0.0
  0
LINE
 39
0.0
 62
1
  8
LINES
 10
89.40000000000003
 20
0.0
 30
0.0
 11
94.80000000000004
 21
0.0
 31
0.0
  0
LINE
 39
0.0
 62
1
  8
LINES
 10
94.80000000000004
 20
0.0
 30
0.0
 11
94.80000000000004
 21
3.0
 31
0.0
  0
LINE
 39
0.0
 62
1
  8
LINES
 10
94.80000000000004
 20
3.0
 30
0.0
 11
97.00000000000004
 21
3.0
 31
0.0
  0
LINE
 39
0.0
 62
1
  8
LINES
 10
97.00000000000004
 20
3.0
 30
0.0
 11
97.0
 21
3.0
 31
0.0
  0
LINE
 39
0.0
 62
1
  8
LINES
 10
97.0
 20
3.0
 30
0.0
 11
97.0
 21
5.2
 31
0.0
  0
LINE
 39
0.0
 62
1
  8
LINES
 10
97.0
 20
5.2
 30
0.0
 11
100.0
 21
5.2
 31
0.0
  0
LINE
 39
0.0
 62
1
  8
LINES
 10
100.0
 20
5.2
 30
0.0
 11
100.0
 21
10.6
 31
0.0
  0
LINE
 39
0.0
 62
1
  8
LINES
 10
100.0
 20
10.6
 30
0.0
 11
97.0
 21
10.6
 31
0.0
  0
LINE
 39
0.0
 62
1
  8
LINES
 10
97.0
 20
10.6
 30
0.0
 11
97.0
 21
14.600000000000001
 31
0.0
  0
LINE
 39
0.0
 62
1
  8
LINES
 10
97.0
 20
14.600000000000001
 30
0.0
 11
100.0
 21
14.600000000000001
 31
0.0
  0
LINE
 39
0.0
 62
1
  8
LINES
 10
100.0
 20
14.600000000000001
 30
0.0
 11
100.0
 21
20.0
 31
0.0
  0
LINE
 39
0.0
 62
1
  8
LINES
 10
100.0
 20
20.0
 30
0.0
 11
97.0
 21
20.0
 31
0.0
  0
LINE
 39
0.0
 62
1
  8
LINES
 10
97.0
 20
20.0
 30
0.0
 11
97.0
 21
24.0
 31
0.0
  0
LINE
 39
0.0
 62
1
  8
LINES
 10
97.0
 20
24.0
 30
0.0
 11
100.0
 21
24.0
 31
0.0
  0
LINE
 39
0.0
 62
1
  8
LINES
 10
100.0
 20
24.0
 30
0.0
 11
100.0
 21
29.4
 31
0.0
  0
LINE
 39
0.0
 62
1
  8
LINES
 10
100.0
 20
29.4
 30
0.0
 11
97.0
 21
29.4
 31
0.0
  0
LINE
 39
0.0
 62
1
  8
LINES
 10
97.0
 20
29.4
 30
0.0
 11
97.0
 21
33.4
 31
0.0
  0
LINE
 39
0.0
 62
1
  8
LINES
 10
97.0
 20
33.4
 30
0.0
 11
100.0
 21
33.4
 31
0.0
  0
LINE
 39
0.0
 62
1
  8
LINES
 10
100.0
 20
33.4
 30
0.0
 11
100.0
 21
38.8
 31
0.0
  0
LINE
 39
0.0
 62
1
  8
LINES
 10
100.0
 20
38.8
 30
0.0
 11
97.0
 21
38.8
 31
0.0
  0
LINE
 39
0.0
 62
1
  8
LINES
 10
97.0
 20
38.8
 30
0.0
 11
97.0
 21
42.800000000000004
 31
0.0
  0
LINE
 39
0.0
 62
1
  8
LINES
 10
97.0
 20
42.800000000000004
 30
0.0
 11
100.0
 21
42.800000000000004
 31
0.0
  0
LINE
 39
0.0
 62
1
  8
LINES
 10
100.0
 20
42.800000000000004
 30
0.0
 11
100.0
 21
48.2
 31
0.0
  0
LINE
 39
0.0
 62
1
  8
LINES
 10
100.0
 20
48.2
 30
0.0
 11
97.0
 21
48.2
 31
0.0
  0
LINE
 39
0.0
 62
1
  8
LINES
 10
97.0
 20
48.2
 30
0.0
 11
97.0
 21
52.20000000000001
 31
0.0
  0
LINE
 39
0.0
 62
1
  8
LINES
 10
97.0
 20
52.20000000000001
 30
0.0
 11
100.0
 21
52.20000000000001
 31
0.0
  0
LINE
 39
0.0
 62
1
  8
LINES
 10
100.0
 20
52.20000000000001
 30
0.0
 11
100.0
 21
57.60000000000001
 31
0.0
  0
LINE
 39
0.0
 62
1
  8
LINES
 10
100.0
 20
57.60000000000001
 30
0.0
 11
97.0
 21
57.60000000000001
 31
0.0
  0
LINE
 39
0.0
 62
1
  8
LINES
 10
97.0
 20
57.60000000000001
 30
0.0
 11
97.0
 21
61.600000000000016
 31
0.0
  0
LINE
 39
0.0
 62
1
  8
LINES
 10
97.0
 20
61.600000000000016
 30
0.0
 11
100.0
 21
61.600000000000016
 31
0.0
  0
LINE
 39
0.0
 62
1
  8
LINES
 10
100.0
 20
61.600000000000016
 30
0.0
 11
100.0
 21
67.00000000000003
 31
0.0
  0
LINE
 39
0.0
 62
1
  8
LINES
 10
100.0
 20
67.00000000000003
 30
0.0
 11
97.0
 21
67.00000000000003
 31
0.0
  0
LINE
 39
0.0
 62
1
  8
LINES
 10
97.0
 20
67.00000000000003
 30
0.0
 11
97.0
 21
71.00000000000003
 31
0.0
  0
LINE
 39
0.0
 62
1
  8
LINES
 10
97.0
 20
71.00000000000003
 30
0.0
 11
100.0
 21
71.00000000000003
 31
0.0
  0
LINE
 39
0.0
 62
1
  8
LINES
 10
100.0
 20
71.00000000000003
 30
0.0
 11
100.0
 21
76.40000000000003
 31
0.0
  0
LINE
 39
0.0
 62
1
  8
LINES
 10
100.0
 20
76.40000000000003
 30
0.0
 11
97.0
 21
76.40000000000003
 31
0.0
  0
LINE
 39
0.0
 62
1
  8
LINES
 10
97.0
 20
76.40000000000003
 30
0.0
 11
97.0
 21
80.40000000000003
 31
0.0
  0
LINE
 39
0.0
 62
1
  8
LINES
 10
97.0
 20
80.40000000000003
 30
0.0
 11
100.0
 21
80.40000000000003
 31
0.0
  0
LINE
 39
0.0
 62
1
  8
LINES
 10
100.0
 20
80.40000000000003
 30
0.0
 11
100.0
 21
85.80000000000004
 31
0.0
  0
LINE
 39
0.0
 62
1
  8
LINES
 10
100.0
 20
85.80000000000004
 30
0.0
 11
97.0
 21
85.80000000000004
 31
0.0
  0
LINE
 39
0.0
 62
1
  8
LINES
 10
97.0
 20
85.80000000000004
 30
0.0
 11
97.0
 21
89.80000000000004
 31
0.0
  0
LINE
 39
0.0
 62
1
  8
LINES
 10
97.0
 20
89.80000000000004
 30
0.0
 11
100.0
 21
89.80000000000004
 31
0.0
  0
LINE
 39
0.0
 62
1
  8
LINES
 10
100.0
 20
89.80000000000004
 30
0.0
 11
100.0
 21
95.20000000000005
 31
0.0
  0
LINE
 39
0.0
 62
1
  8
LINES
 10
100.0
 20
95.20000000000005
 30
0.0
 11
97.0
 21
95.20000000000005
 31
0.0
  0
LINE
 39
0.0
 62
1
  8
LINES
 10
97.0
 20
95.20000000000005
 30
0.0
 11
97.0
 21
97.0
 31
0.0
  0
LINE
 39
0.0
 62
1
  8
LINES
 10
97.0
 20
97.0
 30
0.0
 11
94.8
 21
97.0
 31
0.0
  0
LINE
 39
0.0
 62
1
  8
LINES
 10
94.8
 20
97.0
 30
0.0
 11
94.8
 21
100.0
 31
0.0
  0
LINE
 39
0.0
 62
1
  8
LINES
 10
94.8
 20
100.0
 30
0.0
 11
89.39999999999999
 21
100.0
 31
0.0
  0
LINE
 39
0.0
 62
1
  8
LINES
 10
89.39999999999999
 20
100.0
 30
0.0
 11
89.39999999999999
 21
97.0
 31
0.0
  0
LINE
 39
0.0
 62
1
  8
LINES
 10
89.39999999999999
 20
97.0
 30
0.0
 11
85.39999999999999
 21
97.0
 31
0.0
  0
LINE
 39
0.0
 62
1
  8
LINES
 10
85.39999999999999
 20
97.0
 30
0.0
 11
85.39999999999999
 21
100.0
 31
0.0
  0
LINE
 39
0.0
 62
1
  8
LINES
 10
85.39999999999999
 20
100.0
 30
0.0
 11
79.99999999999999
 21
100.0
 31
0.0
  0
LINE
 39
0.0
 62
1
  8
LINES
 10
79.99999999999999
 20
100.0
 30
0.0
 11
79.99999999999999
 21
97.0
 31
0.0
  0
LINE
 39
0.0
 62
1
  8
LINES
 10
79.99999999999999
 20
97.0
 30
0.0
 11
75.99999999999999
 21
97.0
 31
0.0
  0
LINE
 39
0.0
 62
1
  8
LINES
 10
75.99999999999999
 20
97.0
 30
0.0
 11
75.99999999999999
 21
100.0
 31
0.0
  0
LINE
 39
0.0
 62
1
  8
LINES
 10
75.99999999999999
 20
100.0
 30
0.0
 11
70.59999999999998
 21
100.0
 31
0.0
  0
LINE
 39
0.0
 62
1
  8
LINES
 10
70.59999999999998
 20
100.0
 30
0.0
 11
70.59999999999998
 21
97.0
 31
0.0
  0
LINE
 39
0.0
 62
1
  8
LINES
 10
70.59999999999998
 20
97.0
 30
0.0
 11
66.59999999999998
 21
97.0
 31
0.0
  0
LINE
 39
0.0
 62
1
  8
LINES
 10
66.59999999999998
 20
97.0
 30
0.0
 11
66.59999999999998
 21
100.0
 31
0.0
  0
LINE
 39
0.0
 62
1
  8
LINES
 10
66.59999999999998
 20
100.0
 30
0.0
 11
61.19999999999998
 21
100.0
 31
0.0
  0
LINE
 39
0.0
 62
1
  8
LINES
 10
61.19999999999998
 20
100.0
 30
0.0
 11
61.19999999999998
 21
97.0
 31
0.0
  0
LINE
 39
0.0
 62
1
  8
LINES
 10
61.19999999999998
 20
97.0
 30
0.0
 11
57.199999999999974
 21
97.0
 31
0.0
  0
LINE
 39
0.0
 62
1
  8
LINES
 10
57.199999999999974
 20
97.0
 30
0.0
 11
57.199999999999974
 21
100.0
 31
0.0
  0
LINE
 39
0.0
 62
1
  8
LINES
 10
57.199999999999974
 20
100.0
 30
0.0
 11
51.799999999999976
 21
100.0
 31
0.0
  0
LINE
 39
0.0
 62
1
  8
LINES
 10
51.799999999999976
 20
100.0
 30
0.0
 11
51.799999999999976
 21
97.0
 31
0.0
  0
LINE
 39
0.0
 62
1
  8
LINES
 10
51.799999999999976
 20
97.0
 30
0.0
 11
47.79999999999997
 21
97.0
 31
0.0
  0
LINE
 39
0.0
 62
1
  8
LINES
 10
47.79999999999997
 20
97.0
 30
0.0
 11
47.79999999999997
 21
100.0
 31
0.0
  0
LINE
 39
0.0
 62
1
  8
LINES
 10
47.79999999999997
 20
100.0
 30
0.0
 11
42.39999999999997
 21
100.0
 31
0.0
  0
LINE
 39
0.0
 62
1
  8
LINES
 10
42.39999999999997
 20
100.0
 30
0.0
 11
42.39999999999997
 21
97.0
 31
0.0
  0
LINE
 39
0.0
 62
1
  8
LINES
 10
42.39999999999997
 20
97.0
 30
0.0
 11
38.39999999999996
 21
97.0
 31
0.0
  0
LINE
 39
0.0
 62
1
  8
LINES
 10
38.39999999999996
 20
97.0
 30
0.0
 11
38.39999999999996
 21
100.0
 31
0.0
  0
LINE
 39
0.0
 62
1
  8
LINES
 10
38.39999999999996
 20
100.0
 30
0.0
 11
32.999999999999964
 21
100.0
 31
0.0
  0
LINE
 39
0.0
 62
1
  8
LINES
 10
32.999999999999964
 20
100.0
 30
0.0
 11
32.999999999999964
 21
97.0
 31
0.0
  0
LINE
 39
0.0
 62
1
  8
LINES
 10
32.999999999999964
 20
97.0
 30
0.0
 11
28.999999999999964
 21
97.0
 31
0.0
  0
LINE
 39
0.0
 62
1
  8
LINES
 10
28.999999999999964
 20
97.0
 30
0.0
 11
28.999999999999964
 21
100.0
 31
0.0
  0
LINE
 39
0.0
 62
1
  8
LINES
 10
28.999999999999964
 20
100.0
 30
0.0
 11
23.599999999999966
 21
100.0
 31
0.0
  0
LINE
 39
0.0
 62
1
  8
LINES
 10
23.599999999999966
 20
100.0
 30
0.0
 11
23.599999999999966
 21
97.0
 31
0.0
  0
LINE
 39
0.0
 62
1
  8
LINES
 10
23.599999999999966
 20
97.0
 30
0.0
 11
19.599999999999966
 21
97.0
 31
0.0
  0
LINE
 39
0.0
 62
1
  8
LINES
 10
19.599999999999966
 20
97.0
 30
0.0
 11
19.599999999999966
 21
100.0
 31
0.0
  0
LINE
 39
0.0
 62
1
  8
LINES
 10
19.599999999999966
 20
100.0
 30
0.0
 11
14.199999999999966
 21
100.0
 31
0.0
  0
LINE
 39
0.0
 62
1
  8
LINES
 10
14.199999999999966
 20
100.0
 30
0.0
 11
14.199999999999966
 21
97.0
 31
0.0
  0
LINE
 39
0.0
 62
1
  8
LINES
 10
14.199999999999966
 20
97.0
 30
0.0
 11
10.199999999999964
 21
97.0
 31
0.0
  0
LINE
 39
0.0
 62
1
  8
LINES
 10
10.199999999999964
 20
97.0
 30
0.0
 11
10.199999999999964
 21
100.0
 31
0.0
  0
LINE
 39
0.0
 62
1
  8
LINES
 10
10.199999999999964
 20
100.0
 30
0.0
 11
4.799999999999963
 21
100.0
 31
0.0
  0
LINE
 39
0.0
 62
1
  8
LINES
 10
4.799999999999963
 20
100.0
 30
0.0
 11
4.799999999999963
 21
97.0
 31
0.0
  0
LINE
 39
0.0
 62
1
  8
LINES
 10
4.799999999999963
 20
97.0
 30
0.0
 11
3.0
 21
97.0
 31
0.0
  0
LINE
 39
0.0
 62
1
  8
LINES
 10
3.0
 20
97.0
 30
0.0
 11
3.0
 21
94.8
 31
0.0
  0
LINE
 39
0.0
 62
1
  8
LINES
 10
3.0
 20
94.8
 30
0.0
 11
0.0
 21
94.8
 31
0.0
  0
LINE
 39
0.0
 62
1
  8
LINES
 10
0.0
 20
94.8
 30
0.0
 11
0.0
 21
89.39999999999999
 31
0.0
  0
LINE
 39
0.0
 62
1
  8
LINES
 10
0.0
 20
89.39999999999999
 30
0.0
 11
3.0
 21
89.39999999999999
 31
0.0
  0
LINE
 39
0.0
 62
1
  8
LINES
 10
3.0
 20
89.39999999999999
 30
0.0
 11
3.0
 21
85.39999999999999
 31
0.0
  0
LINE
 39
0.0
 62
1
  8
LINES
 10
3.0
 20
85.39999999999999
 30
0.0
 11
0.0
 21
85.39999999999999
 31
0.0
  0
LINE
 39
0.0
 62
1
  8
LINES
 10
0.0
 20
85.39999999999999
 30
0.0
 11
0.0
 21
79.99999999999999
 31
0.0
  0
LINE
 39
0.0
 62
1
  8
LINES
 10
0.0
 20
79.99999999999999
 30
0.0
 11
3.0
 21
79.99999999999999
 31
0.0
  0
LINE
 39
0.0
 62
1
  8
LINES
 10
3.0
 20
79.99999999999999
 30
0.0
 11
3.0
 21
75.99999999999999
 31
0.0
  0
LINE
 39
0.0
 62
1
  8
LINES
 10
3.0
 20
75.99999999999999
 30
0.0
 11
0.0
 21
75.99999999999999
 31
0.0
  0
LINE
 39
0.0
 62
1
  8
LINES
 10
0.0
 20
75.99999999999999
 30
0.0
 11
0.0
 21
70.59999999999998
 31
0.0
  0
LINE
 39
0.0
 62
1
  8
LINES
 10
0.0
 20
70.59999999999998
 30
0.0
 11
3.0
 21
70.59999999999998
 31
0.0
  0
LINE
 39
0.0
 62
1
  8
LINES
 10
3.0
 20
70.59999999999998
 30
0.0
 11
3.0
 21
66.59999999999998
 31
0.0
  0
LINE
 39
0.0
 62
1
  8
LINES
 10
3.0
 20
66.59999999999998
 30
0.0
 11
0.0
 21
66.59999999999998
 31
0.0
  0
LINE
 39
0.0
 62
1
  8
LINES
 10
0.0
 20
66.59999999999998
 30
0.0
 11
0.0
 21
61.19999999999998
 31
0.0
  0
LINE
 39
0.0
 62
1
  8
LINES
 10
0.0
 20
61.19999999999998
 30
0.0
 11
3.0
 21
61.19999999999998
 31
0.0
  0
LINE
 39
0.0
 62
1
  8
LINES
 10
3.0
 20
61.19999999999998
 30
0.0
 11
3.0
 21
57.199999999999974
 31
0.0
  0
LINE
 39
0.0
 62
1
  8
LINES
 10
3.0
 20
57.199999999999974
 30
0.0
 11
0.0
 21
57.199999999999974
 31
0.0
  0
LINE
 39
0.0
 62
1
  8
LINES
 10
0.0
 20
57.199999999999974
 30
0.0
 11
0.0
 21
51.799999999999976
 31
0.0
  0
LINE
 39
0.0
 62
1
  8
LINES
 10
0.0
 20
51.799999999999976
 30
0.0
 11
3.0
 21
51.799999999999976
 31
0.0
  0
LINE
 39
0.0
 62
1
  8
LINES
 10
3.0
 20
51.799999999999976
 30
0.0
 11
3.0
 21
47.79999999999997
 31
0.0
  0
LINE
 39
0.0
 62
1
  8
LINES
 10
3.0
 20
47.79999999999997
 30
0.0
 11
0.0
 21
47.79999999999997
 31
0.0
  0
LINE
 39
0.0
 62
1
  8
LINES
 10
0.0
 20
47.79999999999997
 30
0.0
 11
0.0
 21
42.39999999999997
 31
0.0
  0
LINE
 39
0.0
 62
1
  8
LINES
 10
0.0
 20
42.39999999999997
 30
0.0
 11
3.0
 21
42.39999999999997
 31
0.0
  0
LINE
 39
0.0
 62
1
  8
LINES
 10
3.0
 20
42.39999999999997
 30
0.0
 11
3.0
 21
38.39999999999996
 31
0.0
  0
LINE
 39
0.0
 62
1
  8
LINES
 10
3.0
 20
38.39999999999996
 30
0.0
 11
0.0
 21
38.39999999999996
 31
0.0
  0
LINE
 39
0.0
 62
1
  8
LINES
 10
0.0
 20
38.39999999999996
 30
0.0
 11
0.0
 21
32.999999999999964
 31
0.0
  0
LINE
 39
0.0
 62
1
  8
LINES
 10
0.0
 20
32.999999999999964
 30
0.0
 11
3.0
 21
32.999999999999964
 31
0.0
  0
LINE
 39
0.0
 62
1
  8
LINES
 10
3.0
 20
32.999999999999964
 30
0.0
 11
3.0
 21
28.999999999999964
 31
0.0
  0
LINE
 39
0.0
 62
1
  8
LINES
 10
3.0
 20
28.999999999999964
 30
0.0
 11
0.0
 21
28.999999999999964
 31
0.0
  0
LINE
 39
0.0
 62
1
  8
LINES
 10
0.0
 20
28.999999999999964
 30
0.0
 11
0.0
 21
23.599999999999966
 31
0.0
  0
LINE
 39
0.0
 62
1
  8
LINES
 10
0.0
 20
23.599999999999966
 30
0.0
 11
3.0
 21
23.599999999999966
 31
0.0
  0
LINE
 39
0.0
 62
1
  8
LINES
 10
3.0
 20
23.599999999999966
 30
0.0
 11
3.0
 21
19.599999999999966
 31
0.0
  0
LINE
 39
0.0
 62
1
  8
LINES
 10
3.0
 20
19.599999999999966
 30
0.0
 11
0.0
 21
19.599999999999966
 31
0.0
  0
LINE
 39
0.0
 62
1
  8
LINES
 10
0.0
 20
19.599999999999966
 30
0.0
 11
0.0
 21
14.199999999999966
 31
0.0
  0
LINE
 39
0.0
 62
1
  8
LINES
 10
0.0
 20
14.199999999999966
 30
0.0
 11
3.0
 21
14.199999999999966
 31
0.0
  0
LINE
 39
0.0
 62
1
  8
LINES
 10
3.0
 20
14.199999999999966
 30
0.0
 11
3.0
 21
10.199999999999964
 31
0.0
  0
LINE
 39
0.0
 62
1
  8
LINES
 10
3.0
 20
10.199999999999964
 30
0.0
 11
0.0
 21
10.199999999999964
 31
0.0
  0
LINE
 39
0.0
 62
1
  8
LINES
 10
0.0
 20
10.199999999999964
 30
0.0
 11
0.0
 21
4.799999999999963
 31
0.0
  0
LINE
 39
0.0
 62
1
  8
LINES
 10
0.0
 20
4.799999999999963
 30
0.0
 11
3.0
 21
4.799999999999963
 31
0.0
  0
LINE
 39
0.0
 62
1
  8
LINES
 10
3.0
 20
4.799999999999963
 30
0.0
 11
3.0
 21
3.0
 31
0.0
  0
LINE
 39
0.0
 62
1
  8
LINES
 10
103.0
 20
0.0
 30
0.0
 11
108.2
 21
0.0
 31
0.0
  0
LINE
 39
0.0
 62
1
  8
LINES
 10
108.2
 20
0.0
 30
0.0
 11
108.2
 21
3.0
 31
0.0
  0
LINE
 39
0.0
 62
1
  8
LINES
 10
108.2
 20
3.0
 30
0.0
 11
113.2
 21
3.0
 31
0.0
  0
LINE
 39
0.0
 62
1
  8
LINES
 10
113.2
 20
3.0
 30
0.0
 11
113.2
 21
0.0
 31
0.0
  0
LINE
 39
0.0
 62
1
  8
LINES
 10
113.2
 20
0.0
 30
0.0
 11
117.6
 21
0.0
 31
0.0
  0
LINE
 39
0.0
 62
1
  8
LINES
 10
117.6
 20
0.0
 30
0.0
 11
117.6
 21
3.0
 31
0.0
  0
LINE
 39
0.0
 62
1
  8
LINES
 10
117.6
 20
3.0
 30
0.0
 11
122.6
 21
3.0
 31
0.0
  0
LINE
 39
0.0
 62
1
  8
LINES
 10
122.6
 20
3.0
 30
0.0
 11
122.6
 21
0.0
 31
0.0
  0
LINE
 39
0.0
 62
1
  8
LINES
 10
122.6
 20
0.0
 30
0.0
 11
127.0
 21
0.0
 31
0.0
  0
LINE
 39
0.0
 62
1
  8
LINES
 10
127.0
 20
0.0
 30
0.0
 11
127.0
 21
3.0
 31
0.0
  0
LINE
 39
0.0
 62
1
  8
LINES
 10
127.0
 20
3.0
 30
0.0
 11
132.0
 21
3.0
 31
0.0
  0
LINE
 39
0.0
 62
1
  8
LINES
 10
132.0
 20
3.0
 30
0.0
 11
132.0
 21
0.0
 31
0.0
  0
LINE
 39
0.0
 62
1
  8
LINES
 10
132.0
 20
0.0
 30
0.0
 11
136.4
 21
0.0
 31
0.0
  0
LINE
 39
0.0
 62
1
  8
LINES
 10
136.4
 20
0.0
 30
0.0
 11
136.4
 21
3.0
 31
0.0
  0
LINE
 39
0.0
 62
1
  8
LINES
 10
136.4
 20
3.0
 30
0.0
 11
141.4
 21
3.0
 31
0.0
  0
LINE
 39
0.0
 62
1
  8
LINES
 10
141.4
 20
3.0
 30
0.0
 11
141.4
 21
0.0
 31
0.0
  0
LINE
 39
0.0
 62
1
  8
LINES
 10
141.4
 20
0.0
 30
0.0
 11
145.8
 21
0.0
 31
0.0
  0
LINE
 39
0.0
 62
1
  8
LINES
 10
145.8
 20
0.0
 30
0.0
 11
145.8
 21
3.0
 31
0.0
  0
LINE
 39
0.0
 62
1
  8
LINES
 10
145.8
 20
3.0
 30
0.0
 11
150.8
 21
3.0
 31
0.0
  0
LINE
 39
0.0
 62
1
  8
LINES
 10
150.8
 20
3.0
 30
0.0
 11
150.8
 21
0.0
 31
0.0
  0
LINE
 39
0.0
 62
1
  8
LINES
 10
150.8
 20
0.0
 30
0.0
 11
155.2
 21
0.0
 31
0.0
  0
LINE
 39
0.0
 62
1
  8
LINES
 10
155.2
 20
0.0
 30
0.0
 11
155.2
 21
3.0
 31
0.0
  0
LINE
 39
0.0
 62
1
  8
LINES
 10
155.2
 20
3.0
 30
0.0
 11
160.2
 21
3.0
 31
0.0
  0
LINE
 39
0.0
 62
1
  8
LINES
 10
160.2
 20
3.0
 30
0.0
 11
160.2
 21
0.0
 31
0.0
  0
LINE
 39
0.0
 62
1
  8
LINES
 10
160.2
 20
0.0
 30
0.0
 11
164.6
 21
0.0
 31
0.0
  0
LINE
 39
0.0
 62
1
  8
LINES
 10
164.6
 20
0.0
 30
0.0
 11
164.6
 21
3.0
 31
0.0
  0
LINE
 39
0.0
 62
1
  8
LINES
 10
164.6
 20
3.0
 30
0.0
 11
169.6
 21
3.0
 31
0.0
  0
LINE
 39
0.0
 62
1
  8
LINES
 10
169.6
 20
3.0
 30
0.0
 11
169.6
 21
0.0
 31
0.0
  0
LINE
 39
0.0
 62
1
  8
LINES
 10
169.6
 20
0.0
 30
0.0
 11
174.0
 21
0.0
 31
0.0
  0
LINE
 39
0.0
 62
1
  8
LINES
 10
174.0
 20
0.0
 30
0.0
 11
174.0
 21
3.0
 31
0.0
  0
LINE
 39
0.0
 62
1
  8
LINES
 10
174.0
 20
3.0
 30
0.0
 11
179.0
 21
3.0
 31
0.0
  0
LINE
 39
0.0
 62
1
  8
LINES
 10
179.0
 20
3.0
 30
0.0
 11
179.0
 21
0.0
 31
0.0
  0
LINE
 39
0.0
 62
1
  8
LINES
 10
179.0
 20
0.0
 30
0.0
 11
183.4
 21
0.0
 31
0.0
  0
LINE
 39
0.0
 62
1
  8
LINES
 10
183.4
 20
0.0
 30
0.0
 11
183.4
 21
3.0
 31
0.0
  0
LINE
 39
0.0
 62
1
  8
LINES
 10
183.4
 20
3.0
 30
0.0
 11
188.4
 21
3.0
 31
0.0
  0
LINE
 39
0.0
 62
1
  8
LINES
 10
188.4
 20
3.0
 30
0.0
 11
188.4
 21
0.0
 31
0.0
  0
LINE
 39
0.0
 62
1
  8
LINES
 10
188.4
 20
0.0
 30
0.0
 11
192.8
 21
0.0
 31
0.0
  0
LINE
 39
0.0
 62
1
  8
LINES
 10
192.8
 20
0.0
 30
0.0
 11
192.8
 21
3.0
 31
0.0
  0
LINE
 39
0.0
 62
1
  8
LINES
 10
192.8
 20
3.0
 30
0.0
 11
197.8
 21
3.0
 31
0.0
  0
LINE
 39
0.0
 62
1
  8
LINES
 10
197.8
 20
3.0
 30
0.0
 11
197.8
 21
0.0
 31
0.0
  0
LINE
 39
0.0
 62
1
  8
LINES
 10
197.8
 20
0.0
 30
0.0
 11
200.8
 21
0.0
 31
0.0
  0
LINE
 39
0.0
 62
1
  8
LINES
 10
200.8
 20
0.0
 30
0.0
 11
200.0
 21
0.0
 31
0.0
  0
LINE
 39
0.0
 62
1
  8
LINES
 10
200.0
 20
0.0
 30
0.0
 11
200.0
 21
3.0
 31
0.0
  0
LINE
 39
0.0
 62
1
  8
LINES
 10
200.0
 20
3.0
 30
0.0
 11
200.0
 21
5.2
 31
0.0
  0
LINE
 39
0.0
 62
1
  8
LINES
 10
200.0
 20
5.2
 30
0.0
 11
203.0
 21
5.2
 31
0.0
  0
LINE
 39
0.0
 62
1
  8
LINES
 10
203.0
 20
5.2
 30
0.0
 11
203.0
 21
10.6
 31
0.0
  0
LINE
 39
0.0
 62
1
  8
LINES
 10
203.0
 20
10.6
 30
0.0
 11
200.0
 21
10.6
 31
0.0
  0
LINE
 39
0.0
 62
1
  8
LINES
 10
200.0
 20
10.6
 30
0.0
 11
200.0
 21
12.4
 31
0.0
  0
LINE
 39
0.0
 62
1
  8
LINES
 10
200.0
 20
12.4
 30
0.0
 11
200.0
 21
14.600000000000001
 31
0.0
  0
LINE
 39
0.0
 62
1
  8
LINES
 10
200.0
 20
14.600000000000001
 30
0.0
 11
203.0
 21
14.600000000000001
 31
0.0
  0
LINE
 39
0.0
 62
1
  8
LINES
 10
203.0
 20
14.600000000000001
 30
0.0
 11
203.0
 21
20.0
 31
0.0
  0
LINE
 39
0.0
 62
1
  8
LINES
 10
203.0
 20
20.0
 30
0.0
 11
200.0
 21
20.0
 31
0.0
  0
LINE
 39
0.0
 62
1
  8
LINES
 10
200.0
 20
20.0
 30
0.0
 11
200.0
 21
21.8
 31
0.0
  0
LINE
 39
0.0
 62
1
  8
LINES
 10
200.0
 20
21.8
 30
0.0
 11
200.0
 21
24.0
 31
0.0
  0
LINE
 39
0.0
 62
1
  8
LINES
 10
200.0
 20
24.0
 30
0.0
 11
203.0
 21
24.0
 31
0.0
  0
LINE
 39
0.0
 62
1
  8
LINES
 10
203.0
 20
24.0
 30
0.0
 11
203.0
 21
29.4
 31
0.0
  0
LINE
 39
0.0
 62
1
  8
LINES
 10
203.0
 20
29.4
 30
0.0
 11
200.0
 21
29.4
 31
0.0
  0
LINE
 39
0.0
 62
1
  8
LINES
 10
200.0
 20
29.4
 30
0.0
 11
200.0
 21
31.2
 31
0.0
  0
LINE
 39
0.0
 62
1
  8
LINES
 10
200.0
 20
31.2
 30
0.0
 11
200.0
 21
33.4
 31
0.0
  0
LINE
 39
0.0
 62
1
  8
LINES
 10
200.0
 20
33.4
 30
0.0
 11
203.0
 21
33.4
 31
0.0
  0
LINE
 39
0.0
 62
1
  8
LINES
 10
203.0
 20
33.4
 30
0.0
 11
203.0
 21
38.8
 31
0.0
  0
LINE
 39
0.0
 62
1
  8
LINES
 10
203.0
 20
38.8
 30
0.0
 11
200.0
 21
38.8
 31
0.0
  0
LINE
 39
0.0
 62
1
  8
LINES
 10
200.0
 20
38.8
 30
0.0
 11
200.0
 21
40.6
 31
0.0
  0
LINE
 39
0.0
 62
1
  8
LINES
 10
200.0
 20
40.6
 30
0.0
 11
200.0
 21
42.800000000000004
 31
0.0
  0
LINE
 39
0.0
 62
1
  8
LINES
 10
200.0
 20
42.800000000000004
 30
0.0
 11
203.0
 21
42.800000000000004
 31
0.0
  0
LINE
 39
0.0
 62
1
  8
LINES
 10
203.0
 20
42.800000000000004
 30
0.0
 11
203.0
 21
48.2
 31
0.0
  0
LINE
 39
0.0
 62
1
  8
LINES
 10
203.0
 20
48.2
 30
0.0
 11
200.0
 21
48.2
 31
0.0
  0
LINE
 39
0.0
 62
1
  8
LINES
 10
200.0
 20
48.2
 30
0.0
 11
200.0
 21
50.00000000000001
 31
0.0
  0
LINE
 39
0.0
 62
1
  8
LINES
 10
200.0
 20
50.00000000000001
 30
0.0
 11
200.0
 21
52.20000000000001
 31
0.0
  0
LINE
 39
0.0
 62
1
  8
LINES
 10
200.0
 20
52.20000000000001
 30
0.0
 11
203.0
 21
52.20000000000001
 31
0.0
  0
LINE
 39
0.0
 62
1
  8
LINES
 10
203.0
 20
52.20000000000001
 30
0.0
 11
203.0
 21
57.60000000000001
 31
0.0
  0
LINE
 39
0.0
 62
1
  8
LINES
 10
203.0
 20
57.60000000000001
 30
0.0
 11
200.0
 21
57.60000000000001
 31
0.0
  0
LINE
 39
0.0
 62
1
  8
LINES
 10
200.0
 20
57.60000000000001
 30
0.0
 11
200.0
 21
59.40000000000001
 31
0.0
  0
LINE
 39
0.0
 62
1
  8
LINES
 10
200.0
 20
59.40000000000001
 30
0.0
 11
200.0
 21
61.600000000000016
 31
0.0
  0
LINE
 39
0.0
 62
1
  8
LINES
 10
200.0
 20
61.600000000000016
 30
0.0
 11
203.0
 21
61.600000000000016
 31
0.0
  0
LINE
 39
0.0
 62
1
  8
LINES
 10
203.0
 20
61.600000000000016
 30
0.0
 11
203.0
 21
67.00000000000003
 31
0.0
  0
LINE
 39
0.0
 62
1
  8
LINES
 10
203.0
 20
67.00000000000003
 30
0.0
 11
200.0
 21
67.00000000000003
 31
0.0
  0
LINE
 39
0.0
 62
1
  8
LINES
 10
200.0
 20
67.00000000000003
 30
0.0
 11
200.0
 21
68.80000000000003
 31
0.0
  0
LINE
 39
0.0
 62
1
  8
LINES
 10
200.0
 20
68.80000000000003
 30
0.0
 11
200.0
 21
71.00000000000003
 31
0.0
  0
LINE
 39
0.0
 62
1
  8
LINES
 10
200.0
 20
71.00000000000003
 30
0.0
 11
203.0
 21
71.00000000000003
 31
0.0
  0
LINE
 39
0.0
 62
1
  8
LINES
 10
203.0
 20
71.00000000000003
 30
0.0
 11
203.0
 21
76.40000000000003
 31
0.0
  0
LINE
 39
0.0
 62
1
  8
LINES
 10
203.0
 20
76.40000000000003
 30
0.0
 11
200.0
 21
76.40000000000003
 31
0.0
  0
LINE
 39
0.0
 62
1
  8
LINES
 10
200.0
 20
76.40000000000003
 30
0.0
 11
200.0
 21
78.20000000000003
 31
0.0
  0
LINE
 39
0.0
 62
1
  8
LINES
 10
200.0
 20
78.20000000000003
 30
0.0
 11
200.0
 21
80.40000000000003
 31
0.0
  0
LINE
 39
0.0
 62
1
  8
LINES
 10
200.0
 20
80.40000000000003
 30
0.0
 11
203.0
 21
80.40000000000003
 31
0.0
  0
LINE
 39
0.0
 62
1
  8
LINES
 10
203.0
 20
80.40000000000003
 30
0.0
 11
203.0
 21
85.80000000000004
 31
0.0
  0
LINE
 39
0.0
 62
1
  8
LINES
 10
203.0
 20
85.80000000000004
 30
0.0
 11
200.0
 21
85.80000000000004
 31
0.0
  0
LINE
 39
0.0
 62
1
  8
LINES
 10
200.0
 20
85.80000000000004
 30
0.0
 11
200.0
 21
87.60000000000004
 31
0.0
  0
LINE
 39
0.0
 62
1
  8
LINES
 10
200.0
 20
87.60000000000004
 30
0.0
 11
200.0
 21
89.80000000000004
 31
0.0
  0
LINE
 39
0.0
 62
1
  8
LINES
 10
200.0
 20
89.80000000000004
 30
0.0
 11
203.0
 21
89.80000000000004
 31
0.0
  0
LINE
 39
0.0
 62
1
  8
LINES
 10
203.0
 20
89.80000000000004
 30
0.0
 11
203.0
 21
95.20000000000005
 31
0.0
  0
LINE
 39
0.0
 62
1
  8
LINES
 10
203.0
 20
95.20000000000005
 30
0.0
 11
200.0
 21
95.20000000000005
 31
0.0
  0
LINE
 39
0.0
 62
1
  8
LINES
 10
200.0
 20
95.20000000000005
 30
0.0
 11
200.0
 21
97.00000000000004
 31
0.0
  0
LINE
 39
0.0
 62
1
  8
LINES
 10
200.0
 20
97.00000000000004
 30
0.0
 11
200.0
 21
100.00000000000004
 31
0.0
  0
LINE
 39
0.0
 62
1
  8
LINES
 10
200.0
 20
100.00000000000004
 30
0.0
 11
200.0
 21
100.0
 31
0.0
  0
LINE
 39
0.0
 62
1
  8
LINES
 10
200.0
 20
100.0
 30
0.0
 11
103.0
 21
100.0
 31
0.0
  0
LINE
 39
0.0
 62
1
  8
LINES
 10
103.0
 20
100.0
 30
0.0
 11
103.0
 21
97.0
 31
0.0
  0
LINE
 39
0.0
 62
1
  8
LINES
 10
103.0
 20
97.0
 30
0.0
 11
103.0
 21
94.8
 31
0.0
  0
LINE
 39
0.0
 62
1
  8
LINES
 10
103.0
 20
94.8
 30
0.0
 11
106.0
 21
94.8
 31
0.0
  0
LINE
 39
0.0
 62
1
  8
LINES
 10
106.0
 20
94.8
 30
0.0
 11
106.0
 21
89.8
 31
0.0
  0
LINE
 39
0.0
 62
1
  8
LINES
 10
106.0
 20
89.8
 30
0.0
 11
103.0
 21
89.8
 31
0.0
  0
LINE
 39
0.0
 62
1
  8
LINES
 10
103.0
 20
89.8
 30
0.0
 11
103.0
 21
87.6
 31
0.0
  0
LINE
 39
0.0
 62
1
  8
LINES
 10
103.0
 20
87.6
 30
0.0
 11
103.0
 21
85.39999999999999
 31
0.0
  0
LINE
 39
0.0
 62
1
  8
LINES
 10
103.0
 20
85.39999999999999
 30
0.0
 11
106.0
 21
85.39999999999999
 31
0.0
  0
LINE
 39
0.0
 62
1
  8
LINES
 10
106.0
 20
85.39999999999999
 30
0.0
 11
106.0
 21
80.39999999999999
 31
0.0
  0
LINE
 39
0.0
 62
1
  8
LINES
 10
106.0
 20
80.39999999999999
 30
0.0
 11
103.0
 21
80.39999999999999
 31
0.0
  0
LINE
 39
0.0
 62
1
  8
LINES
 10
103.0
 20
80.39999999999999
 30
0.0
 11
103.0
 21
78.19999999999999
 31
0.0
  0
LINE
 39
0.0
 62
1
  8
LINES
 10
103.0
 20
78.19999999999999
 30
0.0
 11
103.0
 21
75.99999999999999
 31
0.0
  0
LINE
 39
0.0
 62
1
  8
LINES
 10
103.0
 20
75.99999999999999
 30
0.0
 11
106.0
 21
75.99999999999999
 31
0.0
  0
LINE
 39
0.0
 62
1
  8
LINES
 10
106.0
 20
75.99999999999999
 30
0.0
 11
106.0
 21
70.99999999999999
 31
0.0
  0
LINE
 39
0.0
 62
1
  8
LINES
 10
106.0
 20
70.99999999999999
 30
0.0
 11
103.0
 21
70.99999999999999
 31
0.0
  0
LINE
 39
0.0
 62
1
  8
LINES
 10
103.0
 20
70.99999999999999
 30
0.0
 11
103.0
 21
68.79999999999998
 31
0.0
  0
LINE
 39
0.0
 62
1
  8
LINES
 10
103.0
 20
68.79999999999998
 30
0.0
 11
103.0
 21
66.59999999999998
 31
0.0
  0
LINE
 39
0.0
 62
1
  8
LINES
 10
103.0
 20
66.59999999999998
 30
0.0
 11
106.0
 21
66.59999999999998
 31
0.0
  0
LINE
 39
0.0
 62
1
  8
LINES
 10
106.0
 20
66.59999999999998
 30
0.0
 11
106.0
 21
61.59999999999998
 31
0.0
  0
LINE
 39
0.0
 62
1
  8
LINES
 10
106.0
 20
61.59999999999998
 30
0.0
 11
103.0
 21
61.59999999999998
 31
0.0
  0
LINE
 39
0.0
 62
1
  8
LINES
 10
103.0
 20
61.59999999999998
 30
0.0
 11
103.0
 21
59.39999999999998
 31
0.0
  0
LINE
 39
0.0
 62
1
  8
LINES
 10
103.0
 20
59.39999999999998
 30
0.0
 11
103.0
 21
57.199999999999974
 31
0.0
  0
LINE
 39
0.0
 62
1
  8
LINES
 10
103.0
 20
57.199999999999974
 30
0.0
 11
106.0
 21
57.199999999999974
 31
0.0
  0
LINE
 39
0.0
 62
1
  8
LINES
 10
106.0
 20
57.199999999999974
 30
0.0
 11
106.0
 21
52.199999999999974
 31
0.0
  0
LINE
 39
0.0
 62
1
  8
LINES
 10
106.0
 20
52.199999999999974
 30
0.0
 11
103.0
 21
52.199999999999974
 31
0.0
  0
LINE
 39
0.0
 62
1
  8
LINES
 10
103.0
 20
52.199999999999974
 30
0.0
 11
103.0
 21
49.99999999999997
 31
0.0
  0
LINE
 39
0.0
 62
1
  8
LINES
 10
103.0
 20
49.99999999999997
 30
0.0
 11
103.0
 21
47.79999999999997
 31
0.0
  0
LINE
 39
0.0
 62
1
  8
LINES
 10
103.0
 20
47.79999999999997
 30
0.0
 11
106.0
 21
47.79999999999997
 31
0.0
  0
LINE
 39
0.0
 62
1
  8
LINES
 10
106.0
 20
47.79999999999997
 30
0.0
 11
106.0
 21
42.79999999999997
 31
0.0
  0
LINE
 39
0.0
 62
1
  8
LINES
 10
106.0
 20
42.79999999999997
 30
0.0
 11
103.0
 21
42.79999999999997
 31
0.0
  0
LINE
 39
0.0
 62
1
  8
LINES
 10
103.0
 20
42.79999999999997
 30
0.0
 11
103.0
 21
40.599999999999966
 31
0.0
  0
LINE
 39
0.0
 62
1
  8
LINES
 10
103.0
 20
40.599999999999966
 30
0.0
 11
103.0
 21
38.39999999999996
 31
0.0
  0
LINE
 39
0.0
 62
1
  8
LINES
 10
103.0
 20
38.39999999999996
 30
0.0
 11
106.0
 21
38.39999999999996
 31
0.0
  0
LINE
 39
0.0
 62
1
  8
LINES
 10
106.0
 20
38.39999999999996
 30
0.0
 11
106.0
 21
33.39999999999996
 31
0.0
  0
LINE
 39
0.0
 62
1
  8
LINES
 10
106.0
 20
33.39999999999996
 30
0.0
 11
103.0
 21
33.39999999999996
 31
0.0
  0
LINE
 39
0.0
 62
1
  8
LINES
 10
103.0
 20
33.39999999999996
 30
0.0
 11
103.0
 21
31.199999999999964
 31
0.0
  0
LINE
 39
0.0
 62
1
  8
LINES
 10
103.0
 20
31.199999999999964
 30
0.0
 11
103.0
 21
28.999999999999964
 31
0.0
  0
LINE
 39
0.0
 62
1
  8
LINES
 10
103.0
 20
28.999999999999964
 30
0.0
 11
106.0
 21
28.999999999999964
 31
0.0
  0
LINE
 39
0.0
 62
1
  8
LINES
 10
106.0
 20
28.999999999999964
 30
0.0
 11
106.0
 21
23.999999999999964
 31
0.0
  0
LINE
 39
0.0
 62
1
  8
LINES
 10
106.0
 20
23.999999999999964
 30
0.0
 11
103.0
 21
23.999999999999964
 31
0.0
  0
LINE
 39
0.0
 62
1
  8
LINES
 10
103.0
 20
23.999999999999964
 30
0.0
 11
103.0
 21
21.799999999999965
 31
0.0
  0
LINE
 39
0.0
 62
1
  8
LINES
 10
103.0
 20
21.799999999999965
 30
0.0
 11
103.0
 21
19.599999999999966
 31
0.0
  0
LINE
 39
0.0
 62
1
  8
LINES
 10
103.0
 20
19.599999999999966
 30
0.0
 11
106.0
 21
19.599999999999966
 31
0.0
  0
LINE
 39
0.0
 62
1
  8
LINES
 10
106.0
 20
19.599999999999966
 30
0.0
 11
106.0
 21
14.599999999999966
 31
0.0
  0
LINE
 39
0.0
 62
1
  8
LINES
 10
106.0
 20
14.599999999999966
 30
0.0
 11
103.0
 21
14.599999999999966
 31
0.0
  0
LINE
 39
0.0
 62
1
  8
LINES
 10
103.0
 20
14.599999999999966
 30
0.0
 11
103.0
 21
12.399999999999967
 31
0.0
  0
LINE
 39
0.0
 62
1
  8
LINES
 10
103.0
 20
12.399999999999967
 30
0.0
 11
103.0
 21
10.199999999999967
 31
0.0
  0
LINE
 39
0.0
 62
1
  8
LINES
 10
103.0
 20
10.199999999999967
 30
0.0
 11
106.0
 21
10.199999999999967
 31
0.0
  0
LINE
 39
0.0
 62
1
  8
LINES
 10
106.0
 20
10.199999999999967
 30
0.0
 11
106.0
 21
5.199999999999967
 31
0.0
  0
LINE
 39
0.0
 62
1
  8
LINES
 10
106.0
 20
5.199999999999967
 30
0.0
 11
103.0
 21
5.199999999999967
 31
0.0
  0
LINE
 39
0.0
 62
1
  8
LINES
 10
103.0
 20
5.199999999999967
 30
0.0
 11
103.0
 21
2.999999999999967
 31
0.0
  0
LINE
 39
0.0
 62
1
  8
LINES
 10
103.0
 20
2.999999999999967
 30
0.0
 11
103.0
 21
-3.2862601528904634e-14
 31
0.0
  0
LINE
 39
0.0
 62
1
  8
LINES
 10
0.0
 20
-3.2862601528904634e-14
 30
0.0
 11
0.0
 21
0.0
 31
0.0
  0
LINE
 39
0.0
 62
1
  8
LINES
 10
206.0
 20
0.0
 30
0.0
 11
211.2
 21
0.0
 31
0.0
  0
LINE
 39
0.0
 62
1
  8
LINES
 10
211.2
 20
0.0
 30
0.0
 11
211.2
 21
3.0
 31
0.0
  0
LINE
 39
0.0
 62
1
  8
LINES
 10
211.2
 20
3.0
 30
0.0
 11
216.2
 21
3.0
 31
0.0
  0
LINE
 39
0.0
 62
1
  8
LINES
 10
216.2
 20
3.0
 30
0.0
 11
216.2
 21
0.0
 31
0.0
  0
LINE
 39
0.0
 62
1
  8
LINES
 10
216.2
 20
0.0
 30
0.0
 11
220.6
 21
0.0
 31
0.0
  0
LINE
 39
0.0
 62
1
  8
LINES
 10
220.6
 20
0.0
 30
0.0
 11
220.6
 21
3.0
 31
0.0
  0
LINE
 39
0.0
 62
1
  8
LINES
 10
220.6
 20
3.0
 30
0.0
 11
225.6
 21
3.0
 31
0.0
  0
LINE
 39
0.0
 62
1
  8
LINES
 10
225.6
 20
3.0
 30
0.0
 11
225.6
 21
0.0
 31
0.0
  0
LINE
 39
0.0
 62
1
  8
LINES
 10
225.6
 20
0.0
 30
0.0
 11
230.0
 21
0.0
 31
0.0
  0
LINE
 39
0.0
 62
1
  8
LINES
 10
230.0
 20
0.0
 30
0.0
 11
230.0
 21
3.0
 31
0.0
  0
LINE
 39
0.0
 62
1
  8
LINES
 10
230.0
 20
3.0
 30
0.0
 11
235.0
 21
3.0
 31
0.0
  0
LINE
 39
0.0
 62
1
  8
LINES
 10
235.0
 20
3.0
 30
0.0
 11
235.0
 21
0.0
 31
0.0
  0
LINE
 39
0.0
 62
1
  8
LINES
 10
235.0
 20
0.0
 30
0.0
 11
239.4
 21
0.0
 31
0.0
  0
LINE
 39
0.0
 62
1
  8
LINES
 10
239.4
 20
0.0
 30
0.0
 11
239.4
 21
3.0
 31
0.0
  0
LINE
 39
0.0
 62
1
  8
LINES
 10
239.4
 20
3.0
 30
0.0
 11
244.4
 21
3.0
 31
0.0
  0
LINE
 39
0.0
 62
1
  8
LINES
 10
244.4
 20
3.0
 30
0.0
 11
244.4
 21
0.0
 31
0.0
  0
LINE
 39
0.0
 62
1
  8
LINES
 10
244.4
 20
0.0
 30
0.0
 11
248.8
 21
0.0
 31
0.0
  0
LINE
 39
0.0
 62
1
  8
LINES
 10
248.8
 20
0.0
 30
0.0
 11
248.8
 21
3.0
 31
0.0
  0
LINE
 39
0.0
 62
1
  8
LINES
 10
248.8
 20
3.0
 30
0.0
 11
253.8
 21
3.0
 31
0.0
  0
LINE
 39
0.0
 62
1
  8
LINES
 10
253.8
 20
3.0
 30
0.0
 11
253.8
 21
0.0
 31
0.0
  0
LINE
 39
0.0
 62
1
  8
LINES
 10
253.8
 20
0.0
 30
0.0
 11
258.2
 21
0.0
 31
0.0
  0
LINE
 39
0.0
 62
1
  8
LINES
 10
258.2
 20
0.0
 30
0.0
 11
258.2
 21
3.0
 31
0.0
  0
LINE
 39
0.0
 62
1
  8
LINES
 10
258.2
 20
3.0
 30
0.0
 11
263.2
 21
3.0
 31
0.0
  0
LINE
 39
0.0
 62
1
  8
LINES
 10
263.2
 20
3.0
 30
0.0
 11
263.2
 21
0.0
 31
0.0
  0
LINE
 39
0.0
 62
1
  8
LINES
 10
263.2
 20
0.0
 30
0.0
 11
267.6
 21
0.0
 31
0.0
  0
LINE
 39
0.0
 62
1
  8
LINES
 10
267.6
 20
0.0
 30
0.0
 11
267.6
 21
3.0
 31
0.0
  0
LINE
 39
0.0
 62
1
  8
LINES
 10
267.6
 20
3.0
 30
0.0
 11
272.6
 21
3.0
 31
0.0
  0
LINE
 39
0.0
 62
1
  8
LINES
 10
272.6
 20
3.0
 30
0.0
 11
272.6
 21
0.0
 31
0.0
  0
LINE
 39
0.0
 62
1
  8
LINES
 10
272.6
 20
0.0
 30
0.0
 11
277.0
 21
0.0
 31
0.0
  0
LINE
 39
0.0
 62
1
  8
LINES
 10
277.0
 20
0.0
 30
0.0
 11
277.0
 21
3.0
 31
0.0
  0
LINE
 39
0.0
 62
1
  8
LINES
 10
277.0
 20
3.0
 30
0.0
 11
282.0
 21
3.0
 31
0.0
  0
LINE
 39
0.0
 62
1
  8
LINES
 10
282.0
 20
3.0
 30
0.0
 11
282.0
 21
0.0
 31
0.0
  0
LINE
 39
0.0
 62
1
  8
LINES
 10
282.0
 20
0.0
 30
0.0
 11
286.4
 21
0.0
 31
0.0
  0
LINE
 39
0.0
 62
1
  8
LINES
 10
286.4
 20
0.0
 30
0.0
 11
286.4
 21
3.0
 31
0.0
  0
LINE
 39
0.0
 62
1
  8
LINES
 10
286.4
 20
3.0
 30
0.0
 11
291.4
 21
3.0
 31
0.0
  0
LINE
 39
0.0
 62
1
  8
LINES
 10
291.4
 20
3.0
 30
0.0
 11
291.4
 21
0.0
 31
0.0
  0
LINE
 39
0.0
 62
1
  8
LINES
 10
291.4
 20
0.0
 30
0.0
 11
295.8
 21
0.0
 31
0.0
  0
LINE
 39
0.0
 62
1
  8
LINES
 10
295.8
 20
0.0
 30
0.0
 11
295.8
 21
3.0
 31
0.0
  0
LINE
 39
0.0
 62
1
  8
LINES
 10
295.8
 20
3.0
 30
0.0
 11
300.8
 21
3.0
 31
0.0
  0
LINE
 39
0.0
 62
1
  8
LINES
 10
300.8
 20
3.0
 30
0.0
 11
300.8
 21
0.0
 31
0.0
  0
LINE
 39
0.0
 62
1
  8
LINES
 10
300.8
 20
0.0
 30
0.0
 11
303.8
 21
0.0
 31
0.0
  0
LINE
 39
0.0
 62
1
  8
LINES
 10
303.8
 20
0.0
 30
0.0
 11
303.0
 21
0.0
 31
0.0
  0
LINE
 39
0.0
 62
1
  8
LINES
 10
303.0
 20
0.0
 30
0.0
 11
303.0
 21
3.0
 31
0.0
  0
LINE
 39
0.0
 62
1
  8
LINES
 10
303.0
 20
3.0
 30
0.0
 11
303.0
 21
5.2
 31
0.0
  0
LINE
 39
0.0
 62
1
  8
LINES
 10
303.0
 20
5.2
 30
0.0
 11
306.0
 21
5.2
 31
0.0
  0
LINE
 39
0.0
 62
1
  8
LINES
 10
306.0
 20
5.2
 30
0.0
 11
306.0
 21
10.6
 31
0.0
  0
LINE
 39
0.0
 62
1
  8
LINES
 10
306.0
 20
10.6
 30
0.0
 11
303.0
 21
10.6
 31
0.0
  0
LINE
 39
0.0
 62
1
  8
LINES
 10
303.0
 20
10.6
 30
0.0
 11
303.0
 21
12.4
 31
0.0
  0
LINE
 39
0.0
 62
1
  8
LINES
 10
303.0
 20
12.4
 30
0.0
 11
303.0
 21
14.600000000000001
 31
0.0
  0
LINE
 39
0.0
 62
1
  8
LINES
 10
303.0
 20
14.600000000000001
 30
0.0
 11
306.0
 21
14.600000000000001
 31
0.0
  0
LINE
 39
0.0
 62
1
  8
LINES
 10
306.0
 20
14.600000000000001
 30
0.0
 11
306.0
 21
20.0
 31
0.0
  0
LINE
 39
0.0
 62
1
  8
LINES
 10
306.0
 20
20.0
 30
0.0
 11
303.0
 21
20.0
 31
0.0
  0
LINE
 39
0.0
 62
1
  8
LINES
 10
303.0
 20
20.0
 30
0.0
 11
303.0
 21
21.8
 31
0.0
  0
LINE
 39
0.0
 62
1
  8
LINES
 10
303.0
 20
21.8
 30
0.0
 11
303.0
 21
24.0
 31
0.0
  0
LINE
 39
0.0
 62
1
  8
LINES
 10
303.0
 20
24.0
 30
0.0
 11
306.0
 21
24.0
 31
0.0
  0
LINE
 39
0.0
 62
1
  8
LINES
 10
306.0
 20
24.0
 30
0.0
 11
306.0
 21
29.4
 31
0.0
  0
LINE
 39
0.0
 62
1
  8
LINES
 10
306.0
 20
29.4
 30
0.0
 11
303.0
 21
29.4
 31
0.0
  0
LINE
 39
0.0
 62
1
  8
LINES
 10
303.0
 20
29.4
 30
0.0
 11
303.0
 21
31.2
 31
0.0
  0
LINE
 39
0.0
 62
1
  8
LINES
 10
303.0
 20
31.2
 30
0.0
 11
303.0
 21
33.4
 31
0.0
  0
LINE
 39
0.0
 62
1
  8
LINES
 10
303.0
 20
33.4
 30
0.0
 11
306.0
 21
33.4
 31
0.0
  0
LINE
 39
0.0
 62
1
  8
LINES
 10
306.0
 20
33.4
 30
0.0
 11
306.0
 21
38.8
 31
0.0
  0
LINE
 39
0.0
 62
1
  8
LINES
 10
306.0
 20
38.8
 30
0.0
 11
303.0
 21
38.8
 31
0.0
  0
LINE
 39
0.0
 62
1
  8
LINES
 10
303.0
 20
38.8
 30
0.0
 11
303.0
 21
40.6
 31
0.0
  0
LINE
 39
0.0
 62
1
  8
LINES
 10
303.0
 20
40.6
 30
0.0
 11
303.0
 21
42.800000000000004
 31
0.0
  0
LINE
 39
0.0
 62
1
  8
LINES
 10
303.0
 20
42.800000000000004
 30
0.0
 11
306.0
 21
42.800000000000004
 31
0.0
  0
LINE
 39
0.0
 62
1
  8
LINES
 10
306.0
 20
42.800000000000004
 30
0.0
 11
306.0
 21
48.2
 31
0.0
  0
LINE
 39
0.0
 62
1
  8
LINES
 10
306.0
 20
48.2
 30
0.0
 11
303.0
 21
48.2
 31
0.0
  0
LINE
 39
0.0
 62
1
  8
LINES
 10
303.0
 20
48.2
 30
0.0
 11
303.0
 21
50.00000000000001
 31
0.0
  0
LINE
 39
0.0
 62
1
  8
LINES
 10
303.0
 20
50.00000000000001
 30
0.0
 11
303.0
 21
52.20000000000001
 31
0.0
  0
LINE
 39
0.0
 62
1
  8
LINES
 10
303.0
 20
52.20000000000001
 30
0.0
 11
306.0
 21
52.20000000000001
 31
0.0
  0
LINE
 39
0.0
 62
1
  8
LINES
 10
306.0
 20
52.20000000000001
 30
0.0
 11
306.0
 21
57.60000000000001
 31
0.0
  0
LINE
 39
0.0
 62
1
  8
LINES
 10
306.0
 20
57.60000000000001
 30
0.0
 11
303.0
 21
57.60000000000001
 31
0.0
  0
LINE
 39
0.0
 62
1
  8
LINES
 10
303.0
 20
57.60000000000001
 30
0.0
 11
303.0
 21
59.40000000000001
 31
0.0
  0
LINE
 39
0.0
 62
1
  8
LINES
 10
303.0
 20
59.40000000000001
 30
0.0
 11
303.0
 21
61.600000000000016
 31
0.0
  0
LINE
 39
0.0
 62
1
  8
LINES
 10
303.0
 20
61.600000000000016
 30
0.0
 11
306.0
 21
61.600000000000016
 31
0.0
  0
LINE
 39
0.0
 62
1
  8
LINES
 10
306.0
 20
61.600000000000016
 30
0.0
 11
306.0
 21
67.00000000000003
 31
0.0
  0
LINE
 39
0.0
 62
1
  8
LINES
 10
306.0
 20
67.00000000000003
 30
0.0
 11
303.0
 21
67.00000000000003
 31
0.0
  0
LINE
 39
0.0
 62
1
  8
LINES
 10
303.0
 20
67.00000000000003
 30
0.0
 11
303.0
 21
68.80000000000003
 31
0.0
  0
LINE
 39
0.0
 62
1
  8
LINES
 10
303.0
 20
68.80000000000003
 30
0.0
 11
303.0
 21
71.00000000000003
 31
0.0
  0
LINE
 39
0.0
 62
1
  8
LINES
 10
303.0
 20
71.00000000000003
 30
0.0
 11
306.0
 21
71.00000000000003
 31
0.0
  0
LINE
 39
0.0
 62
1
  8
LINES
 10
306.0
 20
71.00000000000003
 30
0.0
 11
306.0
 21
76.40000000000003
 31
0.0
  0
LINE
 39
0.0
 62
1
  8
LINES
 10
306.0
 20
76.40000000000003
 30
0.0
 11
303.0
 21
76.40000000000003
 31
0.0
  0
LINE
 39
0.0
 62
1
  8
LINES
 10
303.0
 20
76.40000000000003
 30
0.0
 11
303.0
 21
78.20000000000003
 31
0.0
  0
LINE
 39
0.0
 62
1
  8
LINES
 10
303.0
 20
78.20000000000003
 30
0.0
 11
303.0
 21
80.40000000000003
 31
0.0
  0
LINE
 39
0.0
 62
1
  8
LINES
 10
303.0
 20
80.40000000000003
 30
0.0
 11
306.0
 21
80.40000000000003
 31
0.0
  0
LINE
 39
0.0
 62
1
  8
LINES
 10
306.0
 20
80.40000000000003
 30
0.0
 11
306.0
 21
85.80000000000004
 31
0.0
  0
LINE
 39
0.0
 62
1
  8
LINES
 10
306.0
 20
85.80000000000004
 30
0.0
 11
303.0
 21
85.80000000000004
 31
0.0
  0
LINE
 39
0.0
 62
1
  8
LINES
 10
303.0
 20
85.80000000000004
 30
0.0
 11
303.0
 21
87.60000000000004
 31
0.0
  0
LINE
 39
0.0
 62
1
  8
LINES
 10
303.0
 20
87.60000000000004
 30
0.0
 11
303.0
 21
89.80000000000004
 31
0.0
  0
LINE
 39
0.0
 62
1
  8
LINES
 10
303.0
 20
89.80000000000004
 30
0.0
 11
306.0
 21
89.80000000000004
 31
0.0
  0
LINE
 39
0.0
 62
1
  8
LINES
 10
306.0
 20
89.80000000000004
 30
0.0
 11
306.0
 21
95.20000000000005
 31
0.0
  0
LINE
 39
0.0
 62
1
  8
LINES
 10
306.0
 20
95.20000000000005
 30
0.0
 11
303.0
 21
95.20000000000005
 31
0.0
  0
LINE
 39
0.0
 62
1
  8
LINES
 10
303.0
 20
95.20000000000005
 30
0.0
 11
303.0
 21
97.00000000000004
 31
0.0
  0
LINE
 39
0.0
 62
1
  8
LINES
 10
303.0
 20
97.00000000000004
 30
0.0
 11
303.0
 21
100.00000000000004
 31
0.0
  0
LINE
 39
0.0
 62
1
  8
LINES
 10
303.0
 20
100.00000000000004
 30
0.0
 11
303.0
 21
100.0
 31
0.0
  0
LINE
 39
0.0
 62
1
  8
LINES
 10
303.0
 20
100.0
 30
0.0
 11
206.0
 21
100.0
 31
0.0
  0
LINE
 39
0.0
 62
1
  8
LINES
 10
206.0
 20
100.0
 30
0.0
 11
206.0
 21
97.0
 31
0.0
  0
LINE
 39
0.0
 62
1
  8
LINES
 10
206.0
 20
97.0
 30
0.0
 11
206.0
 21
94.8
 31
0.0
  0
LINE
 39
0.0
 62
1
  8
LINES
 10
206.0
 20
94.8
 30
0.0
 11
209.0
 21
94.8
 31
0.0
  0
LINE
 39
0.0
 62
1
  8
LINES
 10
209.0
 20
94.8
 30
0.0
 11
209.0
 21
89.8
 31
0.0
  0
LINE
 39
0.0
 62
1
  8
LINES
 10
209.0
 20
89.8
 30
0.0
 11
206.0
 21
89.8
 31
0.0
  0
LINE
 39
0.0
 62
1
  8
LINES
 10
206.0
 20
89.8
 30
0.0
 11
206.0
 21
87.6
 31
0.0
  0
LINE
 39
0.0
 62
1
  8
LINES
 10
206.0
 20
87.6
 30
0.0
 11
206.0
 21
85.39999999999999
 31
0.0
  0
LINE
 39
0.0
 62
1
  8
LINES
 10
206.0
 20
85.39999999999999
 30
0.0
 11
209.0
 21
85.39999999999999
 31
0.0
  0
LINE
 39
0.0
 62
1
  8
LINES
 10
209.0
 20
85.39999999999999
 30
0.0
 11
209.0
 21
80.39999999999999
 31
0.0
  0
LINE
 39
0.0
 62
1
  8
LINES
 10
209.0
 20
80.39999999999999
 30
0.0
 11
206.0
 21
80.39999999999999
 31
0.0
  0
LINE
 39
0.0
 62
1
  8
LINES
 10
206.0
 20
80.39999999999999
 30
0.0
 11
206.0
 21
78.19999999999999
 31
0.0
  0
LINE
 39
0.0
 62
1
  8
LINES
 10
206.0
 20
78.19999999999999
 30
0.0
 11
206.0
 21
75.99999999999999
 31
0.0
  0
LINE
 39
0.0
 62
1
  8
LINES
 10
206.0
 20
75.99999999999999
 30
0.0
 11
209.0
 21
75.99999999999999
 31
0.0
  0
LINE
 39
0.0
 62
1
  8
LINES
 10
209.0
 20
75.99999999999999
 30
0.0
 11
209.0
 21
70.99999999999999
 31
0.0
  0
LINE
 39
0.0
 62
1
  8
LINES
 10
209.0
 20
70.99999999999999
 30
0.0
 11
206.0
 21
70.99999999999999
 31
0.0
  0
LINE
 39
0.0
 62
1
  8
LINES
 10
206.0
 20
70.99999999999999
 30
0.0
 11
206.0
 21
68.79999999999998
 31
0.0
  0
LINE
 39
0.0
 62
1
  8
LINES
 10
206.0
 20
68.79999999999998
 30
0.0
 11
206.0
 21
66.59999999999998
 31
0.0
  0
LINE
 39
0.0
 62
1
  8
LINES
 10
206.0
 20
66.59999999999998
 30
0.0
 11
209.0
 21
66.59999999999998
 31
0.0
  0
LINE
 39
0.0
 62
1
  8
LINES
 10
209.0
 20
66.59999999999998
 30
0.0
 11
209.0
 21
61.59999999999998
 31
0.0
  0
LINE
 39
0.0
 62
1
  8
LINES
 10
209.0
 20
61.59999999999998
 30
0.0
 11
206.0
 21
61.59999999999998
 31
0.0
  0
LINE
 39
0.0
 62
1
  8
LINES
 10
206.0
 20
61.59999999999998
 30
0.0
 11
206.0
 21
59.39999999999998
 31
0.0
  0
LINE
 39
0.0
 62
1
  8
LINES
 10
206.0
 20
59.39999999999998
 30
0.0
 11
206.0
 21
57.199999999999974
 31
0.0
  0
LINE
 39
0.0
 62
1
  8
LINES
 10
206.0
 20
57.199999999999974
 30
0.0
 11
209.0
 21
57.199999999999974
 31
0.0
  0
LINE
 39
0.0
 62
1
  8
LINES
 10
209.0
 20
57.199999999999974
 30
0.0
 11
209.0
 21
52.199999999999974
 31
0.0
  0
LINE
 39
0.0
 62
1
  8
LINES
 10
209.0
 20
52.199999999999974
 30
0.0
 11
206.0
 21
52.199999999999974
 31
0.0
  0
LINE
 39
0.0
 62
1
  8
LINES
 10
206.0
 20
52.199999999999974
 30
0.0
 11
206.0
 21
49.99999999999997
 31
0.0
  0
LINE
 39
0.0
 62
1
  8
LINES
 10
206.0
 20
49.99999999999997
 30
0.0
 11
206.0
 21
47.79999999999997
 31
0.0
  0
LINE
 39
0.0
 62
1
  8
LINES
 10
206.0
 20
47.79999999999997
 30
0.0
 11
209.0
 21
47.79999999999997
 31
0.0
  0
LINE
 39
0.0
 62
1
  8
LINES
 10
209.0
 20
47.79999999999997
 30
0.0
 11
209.0
 21
42.79999999999997
 31
0.0
  0
LINE
 39
0.0
 62
1
  8
LINES
 10
209.0
 20
42.79999999999997
 30
0.0
 11
206.0
 21
42.79999999999997
 31
0.0
  0
LINE
 39
0.0
 62
1
  8
LINES
 10
206.0
 20
42.79999999999997
 30
0.0
 11
206.0
 21
40.599999999999966
 31
0.0
  0
LINE
 39
0.0
 62
1
  8
LINES
 10
206.0
 20
40.599999999999966
 30
0.0
 11
206.0
 21
38.39999999999996
 31
0.0
  0
LINE
 39
0.0
 62
1
  8
LINES
 10
206.0
 20
38.39999999999996
 30
0.0
 11
209.0
 21
38.39999999999996
 31
0.0
  0
LINE
 39
0.0
 62
1
  8
LINES
 10
209.0
 20
38.39999999999996
 30
0.0
 11
209.0
 21
33.39999999999996
 31
0.0
  0
LINE
 39
0.0
 62
1
  8
LINES
 10
209.0
 20
33.39999999999996
 30
0.0
 11
206.0
 21
33.39999999999996
 31
0.0
  0
LINE
 39
0.0
 62
1
  8
LINES
 10
206.0
 20
33.39999999999996
 30
0.0
 11
206.0
 21
31.199999999999964
 31
0.0
  0
LINE
 39
0.0
 62
1
  8
LINES
 10
206.0
 20
31.199999999999964
 30
0.0
 11
206.0
 21
28.999999999999964
 31
0.0
  0
LINE
 39
0.0
 62
1
  8
LINES
 10
206.0
 20
28.999999999999964
 30
0.0
 11
209.0
 21
28.999999999999964
 31
0.0
  0
LINE
 39
0.0
 62
1
  8
LINES
 10
209.0
 20
28.999999999999964
 30
0.0
 11
209.0
 21
23.999999999999964
 31
0.0
  0
LINE
 39
0.0
 62
1
  8
LINES
 10
209.0
 20
23.999999999999964
 30
0.0
 11
206.0
 21
23.999999999999964
 31
0.0
  0
LINE
 39
0.0
 62
1
  8
LINES
 10
206.0
 20
23.999999999999964
 30
0.0
 11
206.0
 21
21.799999999999965
 31
0.0
  0
LINE
 39
0.0
 62
1
  8
LINES
 10
206.0
 20
21.799999999999965
 30
0.0
 11
206.0
 21
19.599999999999966
 31
0.0
  0
LINE
 39
0.0
 62
1
  8
LINES
 10
206.0
 20
19.599999999999966
 30
0.0
 11
209.0
 21
19.599999999999966
 31
0.0
  0
LINE
 39
0.0
 62
1
  8
LINES
 10
209.0
 20
19.599999999999966
 30
0.0
 11
209.0
 21
14.599999999999966
 31
0.0
  0
LINE
 39
0.0
 62
1
  8
LINES
 10
209.0
 20
14.599999999999966
 30
0.0
 11
206.0
 21
14.599999999999966
 31
0.0
  0
LINE
 39
0.0
 62
1
  8
LINES
 10
206.0
 20
14.599999999999966
 30
0.0
 11
206.0
 21
12.399999999999967
 31
0.0
  0
LINE
 39
0.0
 62
1
  8
LINES
 10
206.0
 20
12.399999999999967
 30
0.0
 11
206.0
 21
10.199999999999967
 31
0.0
  0
LINE
 39
0.0
 62
1
  8
LINES
 10
206.0
 20
10.199999999999967
 30
0.0
 11
209.0
 21
10.199999999999967
 31
0.0
  0
LINE
 39
0.0
 62
1
  8
LINES
 10
209.0
 20
10.199999999999967
 30
0.0
 11
209.0
 21
5.199999999999967
 31
0.0
  0
LINE
 39
0.0
 62
1
  8
LINES
 10
209.0
 20
5.199999999999967
 30
0.0
 11
206.0
 21
5.199999999999967
 31
0.0
  0
LINE
 39
0.0
 62
1
  8
LINES
 10
206.0
 20
5.199999999999967
 30
0.0
 11
206.0
 21
2.999999999999967
 31
0.0
  0
LINE
 39
0.0
 62
1
  8
LINES
 10
206.0
 20
2.999999999999967
 30
0.0
 11
206.0
 21
-3.2862601528904634e-14
 31
0.0
  0
LINE
 39
0.0
 62
1
  8
LINES
 10
0.0
 20
-3.2862601528904634e-14
 30
0.0
 11
0.0
 21
0.0
 31
0.0
  0
LINE
 39
0.0
 62
1
  8
LINES
 10
309.0
 20
0.0
 30
0.0
 11
314.2
 21
0.0
 31
0.0
  0
LINE
 39
0.0
 62
1
  8
LINES
 10
314.2
 20
0.0
 30
0.0
 11
314.2
 21
3.0
 31
0.0
  0
LINE
 39
0.0
 62
1
  8
LINES
 10
314.2
 20
3.0
 30
0.0
 11
319.2
 21
3.0
 31
0.0
  0
LINE
 39
0.0
 62
1
  8
LINES
 10
319.2
 20
3.0
 30
0.0
 11
319.2
 21
0.0
 31
0.0
  0
LINE
 39
0.0
 62
1
  8
LINES
 10
319.2
 20
0.0
 30
0.0
 11
323.6
 21
0.0
 31
0.0
  0
LINE
 39
0.0
 62
1
  8
LINES
 10
323.6
 20
0.0
 30
0.0
 11
323.6
 21
3.0
 31
0.0
  0
LINE
 39
0.0
 62
1
  8
LINES
 10
323.6
 20
3.0
 30
0.0
 11
328.6
 21
3.0
 31
0.0
  0
LINE
 39
0.0
 62
1
  8
LINES
 10
328.6
 20
3.0
 30
0.0
 11
328.6
 21
0.0
 31
0.0
  0
LINE
 39
0.0
 62
1
  8
LINES
 10
328.6
 20
0.0
 30
0.0
 11
333.0
 21
0.0
 31
0.0
  0
LINE
 39
0.0
 62
1
  8
LINES
 10
333.0
 20
0.0
 30
0.0
 11
333.0
 21
3.0
 31
0.0
  0
LINE
 39
0.0
 62
1
  8
LINES
 10
333.0
 20
3.0
 30
0.0
 11
338.0
 21
3.0
 31
0.0
  0
LINE
 39
0.0
 62
1
  8
LINES
 10
338.0
 20
3.0
 30
0.0
 11
338.0
 21
0.0
 31
0.0
  0
LINE
 39
0.0
 62
1
  8
LINES
 10
338.0
 20
0.0
 30
0.0
 11
342.4
 21
0.0
 31
0.0
  0
LINE
 39
0.0
 62
1
  8
LINES
 10
342.4
 20
0.0
 30
0.0
 11
342.4
 21
3.0
 31
0.0
  0
LINE
 39
0.0
 62
1
  8
LINES
 10
342.4
 20
3.0
 30
0.0
 11
347.4
 21
3.0
 31
0.0
  0
LINE
 39
0.0
 62
1
  8
LINES
 10
347.4
 20
3.0
 30
0.0
 11
347.4
 21
0.0
 31
0.0
  0
LINE
 39
0.0
 62
1
  8
LINES
 10
347.4
 20
0.0
 30
0.0
 11
351.8
 21
0.0
 31
0.0
  0
LINE
 39
0.0
 62
1
  8
LINES
 10
351.8
 20
0.0
 30
0.0
 11
351.8
 21
3.0
 31
0.0
  0
LINE
 39
0.0
 62
1
  8
LINES
 10
351.8
 20
3.0
 30
0.0
 11
356.8
 21
3.0
 31
0.0
  0
LINE
 39
0.0
 62
1
  8
LINES
 10
356.8
 20
3.0
 30
0.0
 11
356.8
 21
0.0
 31
0.0
  0
LINE
 39
0.0
 62
1
  8
LINES
 10
356.8
 20
0.0
 30
0.0
 11
361.2
 21
0.0
 31
0.0
  0
LINE
 39
0.0
 62
1
  8
LINES
 10
361.2
 20
0.0
 30
0.0
 11
361.2
 21
3.0
 31
0.0
  0
LINE
 39
0.0
 62
1
  8
LINES
 10
361.2
 20
3.0
 30
0.0
 11
366.2
 21
3.0
 31
0.0
  0
LINE
 39
0.0
 62
1
  8
LINES
 10
366.2
 20
3.0
 30
0.0
 11
366.2
 21
0.0
 31
0.0
  0
LINE
 39
0.0
 62
1
  8
LINES
 10
366.2
 20
0.0
 30
0.0
 11
370.6
 21
0.0
 31
0.0
  0
LINE
 39
0.0
 62
1
  8
LINES
 10
370.6
 20
0.0
 30
0.0
 11
370.6
 21
3.0
 31
0.0
  0
LINE
 39
0.0
 62
1
  8
LINES
 10
370.6
 20
3.0
 30
0.0
 11
375.6
 21
3.0
 31
0.0
  0
LINE
 39
0.0
 62
1
  8
LINES
 10
375.6
 20
3.0
 30
0.0
 11
375.6
 21
0.0
 31
0.0
  0
LINE
 39
0.0
 62
1
  8
LINES
 10
375.6
 20
0.0
 30
0.0
 11
380.0
 21
0.0
 31
0.0
  0
LINE
 39
0.0
 62
1
  8
LINES
 10
380.0
 20
0.0
 30
0.0
 11
380.0
 21
3.0
 31
0.0
  0
LINE
 39
0.0
 62
1
  8
LINES
 10
380.0
 20
3.0
 30
0.0
 11
385.0
 21
3.0
 31
0.0
  0
LINE
 39
0.0
 62
1
  8
LINES
 10
385.0
 20
3.0
 30
0.0
 11
385.0
 21
0.0
 31
0.0
  0
LINE
 39
0.0
 62
1
  8
LINES
 10
385.0
 20
0.0
 30
0.0
 11
389.4
 21
0.0
 31
0.0
  0
LINE
 39
0.0
 62
1
  8
LINES
 10
389.4
 20
0.0
 30
0.0
 11
389.4
 21
3.0
 31
0.0
  0
LINE
 39
0.0
 62
1
  8
LINES
 10
389.4
 20
3.0
 30
0.0
 11
394.4
 21
3.0
 31
0.0
  0
LINE
 39
0.0
 62
1
  8
LINES
 10
394.4
 20
3.0
 30
0.0
 11
394.4
 21
0.0
 31
0.0
  0
LINE
 39
0.0
 62
1
  8
LINES
 10
394.4
 20
0.0
 30
0.0
 11
398.8
 21
0.0
 31
0.0
  0
LINE
 39
0.0
 62
1
  8
LINES
 10
398.8
 20
0.0
 30
0.0
 11
398.8
 21
3.0
 31
0.0
  0
LINE
 39
0.0
 62
1
  8
LINES
 10
398.8
 20
3.0
 30
0.0
 11
403.8
 21
3.0
 31
0.0
  0
LINE
 39
0.0
 62
1
  8
LINES
 10
403.8
 20
3.0
 30
0.0
 11
403.8
 21
0.0
 31
0.0
  0
LINE
 39
0.0
 62
1
  8
LINES
 10
403.8
 20
0.0
 30
0.0
 11
406.8
 21
0.0
 31
0.0
  0
LINE
 39
0.0
 62
1
  8
LINES
 10
406.8
 20
0.0
 30
0.0
 11
406.0
 21
0.0
 31
0.0
  0
LINE
 39
0.0
 62
1
  8
LINES
 10
406.0
 20
0.0
 30
0.0
 11
406.0
 21
3.0
 31
0.0
  0
LINE
 39
0.0
 62
1
  8
LINES
 10
406.0
 20
3.0
 30
0.0
 11
406.0
 21
5.2
 31
0.0
  0
LINE
 39
0.0
 62
1
  8
LINES
 10
406.0
 20
5.2
 30
0.0
 11
409.0
 21
5.2
 31
0.0
  0
LINE
 39
0.0
 62
1
  8
LINES
 10
409.0
 20
5.2
 30
0.0
 11
409.0
 21
10.6
 31
0.0
  0
LINE
 39
0.0
 62
1
  8
LINES
 10
409.0
 20
10.6
 30
0.0
 11
406.0
 21
10.6
 31
0.0
  0
LINE
 39
0.0
 62
1
  8
LINES
 10
406.0
 20
10.6
 30
0.0
 11
406.0
 21
12.4
 31
0.0
  0
LINE
 39
0.0
 62
1
  8
LINES
 10
406.0
 20
12.4
 30
0.0
 11
406.0
 21
14.600000000000001
 31
0.0
  0
LINE
 39
0.0
 62
1
  8
LINES
 10
406.0
 20
14.600000000000001
 30
0.0
 11
409.0
 21
14.600000000000001
 31
0.0
  0
LINE
 39
0.0
 62
1
  8
LINES
 10
409.0
 20
14.600000000000001
 30
0.0
 11
409.0
 21
20.0
 31
0.0
  0
LINE
 39
0.0
 62
1
  8
LINES
 10
409.0
 20
20.0
 30
0.0
 11
406.0
 21
20.0
 31
0.0
  0
LINE
 39
0.0
 62
1
  8
LINES
 10
406.0
 20
20.0
 30
0.0
 11
406.0
 21
21.8
 31
0.0
  0
LINE
 39
0.0
 62
1
  8
LINES
 10
406.0
 20
21.8
 30
0.0
 11
406.0
 21
24.0
 31
0.0
  0
LINE
 39
0.0
 62
1
  8
LINES
 10
406.0
 20
24.0
 30
0.0
 11
409.0
 21
24.0
 31
0.0
  0
LINE
 39
0.0
 62
1
  8
LINES
 10
409.0
 20
24.0
 30
0.0
 11
409.0
 21
29.4
 31
0.0
  0
LINE
 39
0.0
 62
1
  8
LINES
 10
409.0
 20
29.4
 30
0.0
 11
406.0
 21
29.4
 31
0.0
  0
LINE
 39
0.0
 62
1
  8
LINES
 10
406.0
 20
29.4
 30
0.0
 11
406.0
 21
31.2
 31
0.0
  0
LINE
 39
0.0
 62
1
  8
LINES
 10
406.0
 20
31.2
 30
0.0
 11
406.0
 21
33.4
 31
0.0
  0
LINE
 39
0.0
 62
1
  8
LINES
 10
406.0
 20
33.4
 30
0.0
 11
409.0
 21
33.4
 31
0.0
  0
LINE
 39
0.0
 62
1
  8
LINES
 10
409.0
 20
33.4
 30
0.0
 11
409.0
 21
38.8
 31
0.0
  0
LINE
 39
0.0
 62
1
  8
LINES
 10
409.0
 20
38.8
 30
0.0
 11
406.0
 21
38.8
 31
0.0
  0
LINE
 39
0.0
 62
1
  8
LINES
 10
406.0
 20
38.8
 30
0.0
 11
406.0
 21
40.6
 31
0.0
  0
LINE
 39
0.0
 62
1
  8
LINES
 10
406.0
 20
40.6
 30
0.0
 11
406.0
 21
42.800000000000004
 31
0.0
  0
LINE
 39
0.0
 62
1
  8
LINES
 10
406.0
 20
42.800000000000004
 30
0.0
 11
409.0
 21
42.800000000000004
 31
0.0
  0
LINE
 39
0.0
 62
1
  8
LINES
 10
409.0
 20
42.800000000000004
 30
0.0
 11
409.0
 21
48.2
 31
0.0
  0
LINE
 39
0.0
 62
1
  8
LINES
 10
409.0
 20
48.2
 30
0.0
 11
406.0
 21
48.2
 31
0.0
  0
LINE
 39
0.0
 62
1
  8
LINES
 10
406.0
 20
48.2
 30
0.0
 11
406.0
 21
50.00000000000001
 31
0.0
  0
LINE
 39
0.0
 62
1
  8
LINES
 10
406.0
 20
50.00000000000001
 30
0.0
 11
406.0
 21
52.20000000000001
 31
0.0
  0
LINE
 39
0.0
 62
1
  8
LINES
 10
406.0
 20
52.20000000000001
 30
0.0
 11
409.0
 21
52.20000000000001
 31
0.0
  0
LINE
 39
0.0
 62
1
  8
LINES
 10
409.0
 20
52.20000000000001
 30
0.0
 11
409.0
 21
57.60000000000001
 31
0.0
  0
LINE
 39
0.0
 62
1
  8
LINES
 10
409.0
 20
57.60000000000001
 30
0.0
 11
406.0
 21
57.60000000000001
 31
0.0
  0
LINE
 39
0.0
 62
1
  8
LINES
 10
406.0
 20
57.60000000000001
 30
0.0
 11
406.0
 21
59.40000000000001
 31
0.0
  0
LINE
 39
0.0
 62
1
  8
LINES
 10
406.0
 20
59.40000000000001
 30
0.0
 11
406.0
 21
61.600000000000016
 31
0.0
  0
LINE
 39
0.0
 62
1
  8
LINES
 10
406.0
 20
61.600000000000016
 30
0.0
 11
409.0
 21
61.600000000000016
 31
0.0
  0
LINE
 39
0.0
 62
1
  8
LINES
 10
409.0
 20
61.600000000000016
 30
0.0
 11
409.0
 21
67.00000000000003
 31
0.0
  0
LINE
 39
0.0
 62
1
  8
LINES
 10
409.0
 20
67.00000000000003
 30
0.0
 11
406.0
 21
67.00000000000003
 31
0.0
  0
LINE
 39
0.0
 62
1
  8
LINES
 10
406.0
 20
67.00000000000003
 30
0.0
 11
406.0
 21
68.80000000000003
 31
0.0
  0
LINE
 39
0.0
 62
1
  8
LINES
 10
406.0
 20
68.80000000000003
 30
0.0
 11
406.0
 21
71.00000000000003
 31
0.0
  0
LINE
 39
0.0
 62
1
  8
LINES
 10
406.0
 20
71.00000000000003
 30
0.0
 11
409.0
 21
71.00000000000003
 31
0.0
  0
LINE
 39
0.0
 62
1
  8
LINES
 10
409.0
 20
71.00000000000003
 30
0.0
 11
409.0
 21
76.40000000000003
 31
0.0
  0
LINE
 39
0.0
 62
1
  8
LINES
 10
409.0
 20
76.40000000000003
 30
0.0
 11
406.0
 21
76.40000000000003
 31
0.0
  0
LINE
 39
0.0
 62
1
  8
LINES
 10
406.0
 20
76.40000000000003
 30
0.0
 11
406.0
 21
78.20000000000003
 31
0.0
  0
LINE
 39
0.0
 62
1
  8
LINES
 10
406.0
 20
78.20000000000003
 30
0.0
 11
406.0
 21
80.40000000000003
 31
0.0
  0
LINE
 39
0.0
 62
1
  8
LINES
 10
406.0
 20
80.40000000000003
 30
0.0
 11
409.0
 21
80.40000000000003
 31
0.0
  0
LINE
 39
0.0
 62
1
  8
LINES
 10
409.0
 20
80.40000000000003
 30
0.0
 11
409.0
 21
85.80000000000004
 31
0.0
  0
LINE
 39
0.0
 62
1
  8
LINES
 10
409.0
 20
85.80000000000004
 30
0.0
 11
406.0
 21
85.80000000000004
 31
0.0
  0
LINE
 39
0.0
 62
1
  8
LINES
 10
406.0
 20
85.80000000000004
 30
0.0
 11
406.0
 21
87.60000000000004
 31
0.0
  0
LINE
 39
0.0
 62
1
  8
LINES
 10
406.0
 20
87.60000000000004
 30
0.0
 11
406.0
 21
89.80000000000004
 31
0.0
  0
LINE
 39
0.0
 62
1
  8
LINES
 10
406.0
 20
89.80000000000004
 30
0.0
 11
409.0
 21
89.80000000000004
 31
0.0
  0
LINE
 39
0.0
 62
1
  8
LINES
 10
409.0
 20
89.80000000000004
 30
0.0
 11
409.0
 21
95.20000000000005
 31
0.0
  0
LINE
 39
0.0
 62
1
  8
LINES
 10
409.0
 20
95.20000000000005
 30
0.0
 11
406.0
 21
95.20000000000005
 31
0.0
  0
LINE
 39
0.0
 62
1
  8
LINES
 10
406.0
 20
95.20000000000005
 30
0.0
 11
406.0
 21
97.00000000000004
 31
0.0
  0
LINE
 39
0.0
 62
1
  8
LINES
 10
406.0
 20
97.00000000000004
 30
0.0
 11
406.0
 21
100.00000000000004
 31
0.0
  0
LINE
 39
0.0
 62
1
  8
LINES
 10
406.0
 20
100.00000000000004
 30
0.0
 11
406.0
 21
100.0
 31
0.0
  0
LINE
 39
0.0
 62
1
  8
LINES
 10
406.0
 20
100.0
 30
0.0
 11
309.0
 21
100.0
 31
0.0
  0
LINE
 39
0.0
 62
1
  8
LINES
 10
309.0
 20
100.0
 30
0.0
 11
309.0
 21
97.0
 31
0.0
  0
LINE
 39
0.0
 62
1
  8
LINES
 10
309.0
 20
97.0
 30
0.0
 11
309.0
 21
94.8
 31
0.0
  0
LINE
 39
0.0
 62
1
  8
LINES
 10
309.0
 20
94.8
 30
0.0
 11
312.0
 21
94.8
 31
0.0
  0
LINE
 39
0.0
 62
1
  8
LINES
 10
312.0
 20
94.8
 30
0.0
 11
312.0
 21
89.8
 31
0.0
  0
LINE
 39
0.0
 62
1
  8
LINES
 10
312.0
 20
89.8
 30
0.0
 11
309.0
 21
89.8
 31
0.0
  0
LINE
 39
0.0
 62
1
  8
LINES
 10
309.0
 20
89.8
 30
0.0
 11
309.0
 21
87.6
 31
0.0
  0
LINE
 39
0.0
 62
1
  8
LINES
 10
309.0
 20
87.6
 30
0.0
 11
309.0
 21
85.39999999999999
 31
0.0
  0
LINE
 39
0.0
 62
1
  8
LINES
 10
309.0
 20
85.39999999999999
 30
0.0
 11
312.0
 21
85.39999999999999
 31
0.0
  0
LINE
 39
0.0
 62
1
  8
LINES
 10
312.0
 20
85.39999999999999
 30
0.0
 11
312.0
 21
80.39999999999999
 31
0.0
  0
LINE
 39
0.0
 62
1
  8
LINES
 10
312.0
 20
80.39999999999999
 30
0.0
 11
309.0
 21
80.39999999999999
 31
0.0
  0
LINE
 39
0.0
 62
1
  8
LINES
 10
309.0
 20
80.39999999999999
 30
0.0
 11
309.0
 21
78.19999999999999
 31
0.0
  0
LINE
 39
0.0
 62
1
  8
LINES
 10
309.0
 20
78.19999999999999
 30
0.0
 11
309.0
 21
75.99999999999999
 31
0.0
  0
LINE
 39
0.0
 62
1
  8
LINES
 10
309.0
 20
75.99999999999999
 30
0.0
 11
312.0
 21
75.99999999999999
 31
0.0
  0
LINE
 39
0.0
 62
1
  8
LINES
 10
312.0
 20
75.99999999999999
 30
0.0
 11
312.0
 21
70.99999999999999
 31
0.0
  0
LINE
 39
0.0
 62
1
  8
LINES
 10
312.0
 20
70.99999999999999
 30
0.0
 11
309.0
 21
70.99999999999999
 31
0.0
  0
LINE
 39
0.0
 62
1
  8
LINES
 10
309.0
 20
70.99999999999999
 30
0.0
 11
309.0
 21
68.79999999999998
 31
0.0
  0
LINE
 39
0.0
 62
1
  8
LINES
 10
309.0
 20
68.79999999999998
 30
0.0
 11
309.0
 21
66.59999999999998
 31
0.0
  0
LINE
 39
0.0
 62
1
  8
LINES
 10
309.0
 20
66.59999999999998
 30
0.0
 11
312.0
 21
66.59999999999998
 31
0.0
  0
LINE
 39
0.0
 62
1
  8
LINES
 10
312.0
 20
66.59999999999998
 30
0.0
 11
312.0
 21
61.59999999999998
 31
0.0
  0
LINE
 39
0.0
 62
1
  8
LINES
 10
312.0
 20
61.59999999999998
 30
0.0
 11
309.0
 21
61.59999999999998
 31
0.0
  0
LINE
 39
0.0
 62
1
  8
LINES
 10
309.0
 20
61.59999999999998
 30
0.0
 11
309.0
 21
59.39999999999998
 31
0.0
  0
LINE
 39
0.0
 62
1
  8
LINES
 10
309.0
 20
59.39999999999998
 30
0.0
 11
309.0
 21
57.199999999999974
 31
0.0
  0
LINE
 39
0.0
 62
1
  8
LINES
 10
309.0
 20
57.199999999999974
 30
0.0
 11
312.0
 21
57.199999999999974
 31
0.0
  0
LINE
 39
0.0
 62
1
  8
LINES
 10
312.0
 20
57.199999999999974
 30
0.0
 11
312.0
 21
52.199999999999974
 31
0.0
  0
LINE
 39
0.0
 62
1
  8
LINES
 10
312.0
 20
52.199999999999974
 30
0.0
 11
309.0
 21
52.199999999999974
 31
0.0
  0
LINE
 39
0.0
 62
1
  8
LINES
 10
309.0
 20
52.199999999999974
 30
0.0
 11
309.0
 21
49.99999999999997
 31
0.0
  0
LINE
 39
0.0
 62
1
  8
LINES
 10
309.0
 20
49.99999999999997
 30
0.0
 11
309.0
 21
47.79999999999997
 31
0.0
  0
LINE
 39
0.0
 62
1
  8
LINES
 10
309.0
 20
47.79999999999997
 30
0.0
 11
312.0
 21
47.79999999999997
 31
0.0
  0
LINE
 39
0.0
 62
1
  8
LINES
 10
312.0
 20
47.79999999999997
 30
0.0
 11
312.0
 21
42.79999999999997
 31
0.0
  0
LINE
 39
0.0
 62
1
  8
LINES
 10
312.0
 20
42.79999999999997
 30
0.0
 11
309.0
 21
42.79999999999997
 31
0.0
  0
LINE
 39
0.0
 62
1
  8
LINES
 10
309.0
 20
42.79999999999997
 30
0.0
 11
309.0
 21
40.599999999999966
 31
0.0
  0
LINE
 39
0.0
 62
1
  8
LINES
 10
309.0
 20
40.599999999999966
 30
0.0
 11
309.0
 21
38.39999999999996
 31
0.0
  0
LINE
 39
0.0
 62
1
  8
LINES
 10
309.0
 20
38.39999999999996
 30
0.0
 11
312.0
 21
38.39999999999996
 31
0.0
  0
LINE
 39
0.0
 62
1
  8
LINES
 10
312.0
 20
38.39999999999996
 30
0.0
 11
312.0
 21
33.39999999999996
 31
0.0
  0
LINE
 39
0.0
 62
1
  8
LINES
 10
312.0
 20
33.39999999999996
 30
0.0
 11
309.0
 21
33.39999999999996
 31
0.0
  0
LINE
 39
0.0
 62
1
  8
LINES
 10
309.0
 20
33.39999999999996
 30
0.0
 11
309.0
 21
31.199999999999964
 31
0.0
  0
LINE
 39
0.0
 62
1
  8
LINES
 10
309.0
 20
31.199999999999964
 30
0.0
 11
309.0
 21
28.999999999999964
 31
0.0
  0
LINE
 39
0.0
 62
1
  8
LINES
 10
309.0
 20
28.999999999999964
 30
0.0
 11
312.0
 21
28.999999999999964
 31
0.0
  0
LINE
 39
0.0
 62
1
  8
LINES
 10
312.0
 20
28.999999999999964
 30
0.0
 11
312.0
 21
23.999999999999964
 31
0.0
  0
LINE
 39
0.0
 62
1
  8
LINES
 10
312.0
 20
23.999999999999964
 30
0.0
 11
309.0
 21
23.999999999999964
 31
0.0
  0
LINE
 39
0.0
 62
1
  8
LINES
 10
309.0
 20
23.999999999999964
 30
0.0
 11
309.0
 21
21.799999999999965
 31
0.0
  0
LINE
 39
0.0
 62
1
  8
LINES
 10
309.0
 20
21.799999999999965
 30
0.0
 11
309.0
 21
19.599999999999966
 31
0.0
  0
LINE
 39
0.0
 62
1
  8
LINES
 10
309.0
 20
19.599999999999966
 30
0.0
 11
312.0
 21
19.599999999999966
 31
0.0
  0
LINE
 39
0.0
 62
1
  8
LINES
 10
312.0
 20
19.599999999999966
 30
0.0
 11
312.0
 21
14.599999999999966
 31
0.0
  0
LINE
 39
0.0
 62
1
  8
LINES
 10
312.0
 20
14.599999999999966
 30
0.0
 11
309.0
 21
14.599999999999966
 31
0.0
  0
LINE
 39
0.0
 62
1
  8
LINES
 10
309.0
 20
14.599999999999966
 30
0.0
 11
309.0
 21
12.399999999999967
 31
0.0
  0
LINE
 39
0.0
 62
1
  8
LINES
 10
309.0
 20
12.399999999999967
 30
0.0
 11
309.0
 21
10.199999999999967
 31
0.0
  0
LINE
 39
0.0
 62
1
  8
LINES
 10
309.0
 20
10.199999999999967
 30
0.0
 11
312.0
 21
10.199999999999967
 31
0.0
  0
LINE
 39
0.0
 62
1
  8
LINES
 10
312.0
 20
10.199999999999967
 30
0.0
 11
312.0
 21
5.199999999999967
 31
0.0
  0
LINE
 39
0.0
 62
1
  8
LINES
 10
312.0
 20
5.199999999999967
 30
0.0
 11
309.0
 21
5.199999999999967
 31
0.0
  0
LINE
 39
0.0
 62
1
  8
LINES
 10
309.0
 20
5.199999999999967
 30
0.0
 11
309.0
 21
2.999999999999967
 31
0.0
  0
LINE
 39
0.0
 62
1
  8
LINES
 10
309.0
 20
2.999999999999967
 30
0.0
 11
309.0
 21
-3.2862601528904634e-14
 31
0.0
  0
LINE
 39
0.0
 62
1
  8
LINES
 10
0.0
 20
-3.2862601528904634e-14
 30
0.0
 11
0.0
 21
0.0
 31
0.0
  0
LINE
 39
0.0
 62
1
  8
LINES
 10
412.0
 20
0.0
 30
0.0
 11
417.2
 21
0.0
 31
0.0
  0
LINE
 39
0.0
 62
1
  8
LINES
 10
417.2
 20
0.0
 30
0.0
 11
417.2
 21
3.0
 31
0.0
  0
LINE
 39
0.0
 62
1
  8
LINES
 10
417.2
 20
3.0
 30
0.0
 11
422.2
 21
3.0
 31
0.0
  0
LINE
 39
0.0
 62
1
  8
LINES
 10
422.2
 20
3.0
 30
0.0
 11
422.2
 21
0.0
 31
0.0
  0
LINE
 39
0.0
 62
1
  8
LINES
 10
422.2
 20
0.0
 30
0.0
 11
426.6
 21
0.0
 31
0.0
  0
LINE
 39
0.0
 62
1
  8
LINES
 10
426.6
 20
0.0
 30
0.0
 11
426.6
 21
3.0
 31
0.0
  0
LINE
 39
0.0
 62
1
  8
LINES
 10
426.6
 20
3.0
 30
0.0
 11
431.6
 21
3.0
 31
0.0
  0
LINE
 39
0.0
 62
1
  8
LINES
 10
431.6
 20
3.0
 30
0.0
 11
431.6
 21
0.0
 31
0.0
  0
LINE
 39
0.0
 62
1
  8
LINES
 10
431.6
 20
0.0
 30
0.0
 11
436.0
 21
0.0
 31
0.0
  0
LINE
 39
0.0
 62
1
  8
LINES
 10
436.0
 20
0.0
 30
0.0
 11
436.0
 21
3.0
 31
0.0
  0
LINE
 39
0.0
 62
1
  8
LINES
 10
436.0
 20
3.0
 30
0.0
 11
441.0
 21
3.0
 31
0.0
  0
LINE
 39
0.0
 62
1
  8
LINES
 10
441.0
 20
3.0
 30
0.0
 11
441.0
 21
0.0
 31
0.0
  0
LINE
 39
0.0
 62
1
  8
LINES
 10
441.0
 20
0.0
 30
0.0
 11
445.4
 21
0.0
 31
0.0
  0
LINE
 39
0.0
 62
1
  8
LINES
 10
445.4
 20
0.0
 30
0.0
 11
445.4
 21
3.0
 31
0.0
  0
LINE
 39
0.0
 62
1
  8
LINES
 10
445.4
 20
3.0
 30
0.0
 11
450.4
 21
3.0
 31
0.0
  0
LINE
 39
0.0
 62
1
  8
LINES
 10
450.4
 20
3.0
 30
0.0
 11
450.4
 21
0.0
 31
0.0
  0
LINE
 39
0.0
 62
1
  8
LINES
 10
450.4
 20
0.0
 30
0.0
 11
454.8
 21
0.0
 31
0.0
  0
LINE
 39
0.0
 62
1
  8
LINES
 10
454.8
 20
0.0
 30
0.0
 11
454.8
 21
3.0
 31
0.0
  0
LINE
 39
0.0
 62
1
  8
LINES
 10
454.8
 20
3.0
 30
0.0
 11
459.8
 21
3.0
 31
0.0
  0
LINE
 39
0.0
 62
1
  8
LINES
 10
459.8
 20
3.0
 30
0.0
 11
459.8
 21
0.0
 31
0.0
  0
LINE
 39
0.0
 62
1
  8
LINES
 10
459.8
 20
0.0
 30
0.0
 11
464.2
 21
0.0
 31
0.0
  0
LINE
 39
0.0
 62
1
  8
LINES
 10
464.2
 20
0.0
 30
0.0
 11
464.2
 21
3.0
 31
0.0
  0
LINE
 39
0.0
 62
1
  8
LINES
 10
464.2
 20
3.0
 30
0.0
 11
469.2
 21
3.0
 31
0.0
  0
LINE
 39
0.0
 62
1
  8
LINES
 10
469.2
 20
3.0
 30
0.0
 11
469.2
 21
0.0
 31
0.0
  0
LINE
 39
0.0
 62
1
  8
LINES
 10
469.2
 20
0.0
 30
0.0
 11
473.6
 21
0.0
 31
0.0
  0
LINE
 39
0.0
 62
1
  8
LINES
 10
473.6
 20
0.0
 30
0.0
 11
473.6
 21
3.0
 31
0.0
  0
LINE
 39
0.0
 62
1
  8
LINES
 10
473.6
 20
3.0
 30
0.0
 11
478.6
 21
3.0
 31
0.0
  0
LINE
 39
0.0
 62
1
  8
LINES
 10
478.6
 20
3.0
 30
0.0
 11
478.6
 21
0.0
 31
0.0
  0
LINE
 39
0.0
 62
1
  8
LINES
 10
478.6
 20
0.0
 30
0.0
 11
483.0
 21
0.0
 31
0.0
  0
LINE
 39
0.0
 62
1
  8
LINES
 10
483.0
 20
0.0
 30
0.0
 11
483.0
 21
3.0
 31
0.0
  0
LINE
 39
0.0
 62
1
  8
LINES
 10
483.0
 20
3.0
 30
0.0
 11
488.0
 21
3.0
 31
0.0
  0
LINE
 39
0.0
 62
1
  8
LINES
 10
488.0
 20
3.0
 30
0.0
 11
488.0
 21
0.0
 31
0.0
  0
LINE
 39
0.0
 62
1
  8
LINES
 10
488.0
 20
0.0
 30
0.0
 11
492.4
 21
0.0
 31
0.0
  0
LINE
 39
0.0
 62
1
  8
LINES
 10
492.4
 20
0.0
 30
0.0
 11
492.4
 21
3.0
 31
0.0
  0
LINE
 39
0.0
 62
1
  8
LINES
 10
492.4
 20
3.0
 30
0.0
 11
497.4
 21
3.0
 31
0.0
  0
LINE
 39
0.0
 62
1
  8
LINES
 10
497.4
 20
3.0
 30
0.0
 11
497.4
 21
0.0
 31
0.0
  0
LINE
 39
0.0
 62
1
  8
LINES
 10
497.4
 20
0.0
 30
0.0
 11
501.8
 21
0.0
 31
0.0
  0
LINE
 39
0.0
 62
1
  8
LINES
 10
501.8
 20
0.0
 30
0.0
 11
501.8
 21
3.0
 31
0.0
  0
LINE
 39
0.0
 62
1
  8
LINES
 10
501.8
 20
3.0
 30
0.0
 11
506.8
 21
3.0
 31
0.0
  0
LINE
 39
0.0
 62
1
  8
LINES
 10
506.8
 20
3.0
 30
0.0
 11
506.8
 21
0.0
 31
0.0
  0
LINE
 39
0.0
 62
1
  8
LINES
 10
506.8
 20
0.0
 30
0.0
 11
509.8
 21
0.0
 31
0.0
  0
LINE
 39
0.0
 62
1
  8
LINES
 10
509.8
 20
0.0
 30
0.0
 11
509.0
 21
0.0
 31
0.0
  0
LINE
 39
0.0
 62
1
  8
LINES
 10
509.0
 20
0.0
 30
0.0
 11
509.0
 21
3.0
 31
0.0
  0
LINE
 39
0.0
 62
1
  8
LINES
 10
509.0
 20
3.0
 30
0.0
 11
509.0
 21
5.2
 31
0.0
  0
LINE
 39
0.0
 62
1
  8
LINES
 10
509.0
 20
5.2
 30
0.0
 11
512.0
 21
5.2
 31
0.0
  0
LINE
 39
0.0
 62
1
  8
LINES
 10
512.0
 20
5.2
 30
0.0
 11
512.0
 21
10.6
 31
0.0
  0
LINE
 39
0.0
 62
1
  8
LINES
 10
512.0
 20
10.6
 30
0.0
 11
509.0
 21
10.6
 31
0.0
  0
LINE
 39
0.0
 62
1
  8
LINES
 10
509.0
 20
10.6
 30
0.0
 11
509.0
 21
12.4
 31
0.0
  0
LINE
 39
0.0
 62
1
  8
LINES
 10
509.0
 20
12.4
 30
0.0
 11
509.0
 21
14.600000000000001
 31
0.0
  0
LINE
 39
0.0
 62
1
  8
LINES
 10
509.0
 20
14.600000000000001
 30
0.0
 11
512.0
 21
14.600000000000001
 31
0.0
  0
LINE
 39
0.0
 62
1
  8
LINES
 10
512.0
 20
14.600000000000001
 30
0.0
 11
512.0
 21
20.0
 31
0.0
  0
LINE
 39
0.0
 62
1
  8
LINES
 10
512.0
 20
20.0
 30
0.0
 11
509.0
 21
20.0
 31
0.0
  0
LINE
 39
0.0
 62
1
  8
LINES
 10
509.0
 20
20.0
 30
0.0
 11
509.0
 21
21.8
 31
0.0
  0
LINE
 39
0.0
 62
1
  8
LINES
 10
509.0
 20
21.8
 30
0.0
 11
509.0
 21
24.0
 31
0.0
  0
LINE
 39
0.0
 62
1
  8
LINES
 10
509.0
 20
24.0
 30
0.0
 11
512.0
 21
24.0
 31
0.0
  0
LINE
 39
0.0
 62
1
  8
LINES
 10
512.0
 20
24.0
 30
0.0
 11
512.0
 21
29.4
 31
0.0
  0
LINE
 39
0.0
 62
1
  8
LINES
 10
512.0
 20
29.4
 30
0.0
 11
509.0
 21
29.4
 31
0.0
  0
LINE
 39
0.0
 62
1
  8
LINES
 10
509.0
 20
29.4
 30
0.0
 11
509.0
 21
31.2
 31
0.0
  0
LINE
 39
0.0
 62
1
  8
LINES
 10
509.0
 20
31.2
 30
0.0
 11
509.0
 21
33.4
 31
0.0
  0
LINE
 39
0.0
 62
1
  8
LINES
 10
509.0
 20
33.4
 30
0.0
 11
512.0
 21
33.4
 31
0.0
  0
LINE
 39
0.0
 62
1
  8
LINES
 10
512.0
 20
33.4
 30
0.0
 11
512.0
 21
38.8
 31
0.0
  0
LINE
 39
0.0
 62
1
  8
LINES
 10
512.0
 20
38.8
 30
0.0
 11
509.0
 21
38.8
 31
0.0
  0
LINE
 39
0.0
 62
1
  8
LINES
 10
509.0
 20
38.8
 30
0.0
 11
509.0
 21
40.6
 31
0.0
  0
LINE
 39
0.0
 62
1
  8
LINES
 10
509.0
 20
40.6
 30
0.0
 11
509.0
 21
42.800000000000004
 31
0.0
  0
LINE
 39
0.0
 62
1
  8
LINES
 10
509.0
 20
42.800000000000004
 30
0.0
 11
512.0
 21
42.800000000000004
 31
0.0
  0
LINE
 39
0.0
 62
1
  8
LINES
 10
512.0
 20
42.800000000000004
 30
0.0
 11
512.0
 21
48.2
 31
0.0
  0
LINE
 39
0.0
 62
1
  8
LINES
 10
512.0
 20
48.2
 30
0.0
 11
509.0
 21
48.2
 31
0.0
  0
LINE
 39
0.0
 62
1
  8
LINES
 10
509.0
 20
48.2
 30
0.0
 11
509.0
 21
50.00000000000001
 31
0.0
  0
LINE
 39
0.0
 62
1
  8
LINES
 10
509.0
 20
50.00000000000001
 30
0.0
 11
509.0
 21
52.20000000000001
 31
0.0
  0
LINE
 39
0.0
 62
1
  8
LINES
 10
509.0
 20
52.20000000000001
 30
0.0
 11
512.0
 21
52.20000000000001
 31
0.0
  0
LINE
 39
0.0
 62
1
  8
LINES
 10
512.0
 20
52.20000000000001
 30
0.0
 11
512.0
 21
57.60000000000001
 31
0.0
  0
LINE
 39
0.0
 62
1
  8
LINES
 10
512.0
 20
57.60000000000001
 30
0.0
 11
509.0
 21
57.60000000000001
 31
0.0
  0
LINE
 39
0.0
 62
1
  8
LINES
 10
509.0
 20
57.60000000000001
 30
0.0
 11
509.0
 21
59.40000000000001
 31
0.0
  0
LINE
 39
0.0
 62
1
  8
LINES
 10
509.0
 20
59.40000000000001
 30
0.0
 11
509.0
 21
61.600000000000016
 31
0.0
  0
LINE
 39
0.0
 62
1
  8
LINES
 10
509.0
 20
61.600000000000016
 30
0.0
 11
512.0
 21
61.600000000000016
 31
0.0
  0
LINE
 39
0.0
 62
1
  8
LINES
 10
512.0
 20
61.600000000000016
 30
0.0
 11
512.0
 21
67.00000000000003
 31
0.0
  0
LINE
 39
0.0
 62
1
  8
LINES
 10
512.0
 20
67.00000000000003
 30
0.0
 11
509.0
 21
67.00000000000003
 31
0.0
  0
LINE
 39
0.0
 62
1
  8
LINES
 10
509.0
 20
67.00000000000003
 30
0.0
 11
509.0
 21
68.80000000000003
 31
0.0
  0
LINE
 39
0.0
 62
1
  8
LINES
 10
509.0
 20
68.80000000000003
 30
0.0
 11
509.0
 21
71.00000000000003
 31
0.0
  0
LINE
 39
0.0
 62
1
  8
LINES
 10
509.0
 20
71.00000000000003
 30
0.0
 11
512.0
 21
71.00000000000003
 31
0.0
  0
LINE
 39
0.0
 62
1
  8
LINES
 10
512.0
 20
71.00000000000003
 30
0.0
 11
512.0
 21
76.40000000000003
 31
0.0
  0
LINE
 39
0.0
 62
1
  8
LINES
 10
512.0
 20
76.40000000000003
 30
0.0
 11
509.0
 21
76.40000000000003
 31
0.0
  0
LINE
 39
0.0
 62
1
  8
LINES
 10
509.0
 20
76.40000000000003
 30
0.0
 11
509.0
 21
78.20000000000003
 31
0.0
  0
LINE
 39
0.0
 62
1
  8
LINES
 10
509.0
 20
78.20000000000003
 30
0.0
 11
509.0
 21
80.40000000000003
 31
0.0
  0
LINE
 39
0.0
 62
1
  8
LINES
 10
509.0
 20
80.40000000000003
 30
0.0
 11
512.0
 21
80.40000000000003
 31
0.0
  0
LINE
 39
0.0
 62
1
  8
LINES
 10
512.0
 20
80.40000000000003
 30
0.0
 11
512.0
 21
85.80000000000004
 31
0.0
  0
LINE
 39
0.0
 62
1
  8
LINES
 10
512.0
 20
85.80000000000004
 30
0.0
 11
509.0
 21
85.80000000000004
 31
0.0
  0
LINE
 39
0.0
 62
1
  8
LINES
 10
509.0
 20
85.80000000000004
 30
0.0
 11
509.0
 21
87.60000000000004
 31
0.0
  0
LINE
 39
0.0
 62
1
  8
LINES
 10
509.0
 20
87.60000000000004
 30
0.0
 11
509.0
 21
89.80000000000004
 31
0.0
  0
LINE
 39
0.0
 62
1
  8
LINES
 10
509.0
 20
89.80000000000004
 30
0.0
 11
512.0
 21
89.80000000000004
 31
0.0
  0
LINE
 39
0.0
 62
1
  8
LINES
 10
512.0
 20
89.80000000000004
 30
0.0
 11
512.0
 21
95.20000000000005
 31
0.0
  0
LINE
 39
0.0
 62
1
  8
LINES
 10
512.0
 20
95.20000000000005
 30
0.0
 11
509.0
 21
95.20000000000005
 31
0.0
  0
LINE
 39
0.0
 62
1
  8
LINES
 10
509.0
 20
95.20000000000005
 30
0.0
 11
509.0
 21
97.00000000000004
 31
0.0
  0
LINE
 39
0.0
 62
1
  8
LINES
 10
509.0
 20
97.00000000000004
 30
0.0
 11
509.0
 21
100.00000000000004
 31
0.0
  0
LINE
 39
0.0
 62
1
  8
LINES
 10
509.0
 20
100.00000000000004
 30
0.0
 11
509.0
 21
100.0
 31
0.0
  0
LINE
 39
0.0
 62
1
  8
LINES
 10
509.0
 20
100.0
 30
0.0
 11
412.0
 21
100.0
 31
0.0
  0
LINE
 39
0.0
 62
1
  8
LINES
 10
412.0
 20
100.0
 30
0.0
 11
412.0
 21
97.0
 31
0.0
  0
LINE
 39
0.0
 62
1
  8
LINES
 10
412.0
 20
97.0
 30
0.0
 11
412.0
 21
94.8
 31
0.0
  0
LINE
 39
0.0
 62
1
  8
LINES
 10
412.0
 20
94.8
 30
0.0
 11
415.0
 21
94.8
 31
0.0
  0
LINE
 39
0.0
 62
1
  8
LINES
 10
415.0
 20
94.8
 30
0.0
 11
415.0
 21
89.8
 31
0.0
  0
LINE
 39
0.0
 62
1
  8
LINES
 10
415.0
 20
89.8
 30
0.0
 11
412.0
 21
89.8
 31
0.0
  0
LINE
 39
0.0
 62
1
  8
LINES
 10
412.0
 20
89.8
 30
0.0
 11
412.0
 21
87.6
 31
0.0
  0
LINE
 39
0.0
 62
1
  8
LINES
 10
412.0
 20
87.6
 30
0.0
 11
412.0
 21
85.39999999999999
 31
0.0
  0
LINE
 39
0.0
 62
1
  8
LINES
 10
412.0
 20
85.39999999999999
 30
0.0
 11
415.0
 21
85.39999999999999
 31
0.0
  0
LINE
 39
0.0
 62
1
  8
LINES
 10
415.0
 20
85.39999999999999
 30
0.0
 11
415.0
 21
80.39999999999999
 31
0.0
  0
LINE
 39
0.0
 62
1
  8
LINES
 10
415.0
 20
80.39999999999999
 30
0.0
 11
412.0
 21
80.39999999999999
 31
0.0
  0
LINE
 39
0.0
 62
1
  8
LINES
 10
412.0
 20
80.39999999999999
 30
0.0
 11
412.0
 21
78.19999999999999
 31
0.0
  0
LINE
 39
0.0
 62
1
  8
LINES
 10
412.0
 20
78.19999999999999
 30
0.0
 11
412.0
 21
75.99999999999999
 31
0.0
  0
LINE
 39
0.0
 62
1
  8
LINES
 10
412.0
 20
75.99999999999999
 30
0.0
 11
415.0
 21
75.99999999999999
 31
0.0
  0
LINE
 39
0.0
 62
1
  8
LINES
 10
415.0
 20
75.99999999999999
 30
0.0
 11
415.0
 21
70.99999999999999
 31
0.0
  0
LINE
 39
0.0
 62
1
  8
LINES
 10
415.0
 20
70.99999999999999
 30
0.0
 11
412.0
 21
70.99999999999999
 31
0.0
  0
LINE
 39
0.0
 62
1
  8
LINES
 10
412.0
 20
70.99999999999999
 30
0.0
 11
412.0
 21
68.79999999999998
 31
0.0
  0
LINE
 39
0.0
 62
1
  8
LINES
 10
412.0
 20
68.79999999999998
 30
0.0
 11
412.0
 21
66.59999999999998
 31
0.0
  0
LINE
 39
0.0
 62
1
  8
LINES
 10
412.0
 20
66.59999999999998
 30
0.0
 11
415.0
 21
66.59999999999998
 31
0.0
  0
LINE
 39
0.0
 62
1
  8
LINES
 10
415.0
 20
66.59999999999998
 30
0.0
 11
415.0
 21
61.59999999999998
 31
0.0
  0
LINE
 39
0.0
 62
1
  8
LINES
 10
415.0
 20
61.59999999999998
 30
0.0
 11
412.0
 21
61.59999999999998
 31
0.0
  0
LINE
 39
0.0
 62
1
  8
LINES
 10
412.0
 20
61.59999999999998
 30
0.0
 11
412.0
 21
59.39999999999998
 31
0.0
  0
LINE
 39
0.0
 62
1
  8
LINES
 10
412.0
 20
59.39999999999998
 30
0.0
 11
412.0
 21
57.199999999999974
 31
0.0
  0
LINE
 39
0.0
 62
1
  8
LINES
 10
412.0
 20
57.199999999999974
 30
0.0
 11
415.0
 21
57.199999999999974
 31
0.0
  0
LINE
 39
0.0
 62
1
  8
LINES
 10
415.0
 20
57.199999999999974
 30
0.0
 11
415.0
 21
52.199999999999974
 31
0.0
  0
LINE
 39
0.0
 62
1
  8
LINES
 10
415.0
 20
52.199999999999974
 30
0.0
 11
412.0
 21
52.199999999999974
 31
0.0
  0
LINE
 39
0.0
 62
1
  8
LINES
 10
412.0
 20
52.199999999999974
 30
0.0
 11
412.0
 21
49.99999999999997
 31
0.0
  0
LINE
 39
0.0
 62
1
  8
LINES
 10
412.0
 20
49.99999999999997
 30
0.0
 11
412.0
 21
47.79999999999997
 31
0.0
  0
LINE
 39
0.0
 62
1
  8
LINES
 10
412.0
 20
47.79999999999997
 30
0.0
 11
415.0
 21
47.79999999999997
 31
0.0
  0
LINE
 39
0.0
 62
1
  8
LINES
 10
415.0
 20
47.79999999999997
 30
0.0
 11
415.0
 21
42.79999999999997
 31
0.0
  0
LINE
 39
0.0
 62
1
  8
LINES
 10
415.0
 20
42.79999999999997
 30
0.0
 11
412.0
 21
42.79999999999997
 31
0.0
  0
LINE
 39
0.0
 62
1
  8
LINES
 10
412.0
 20
42.79999999999997
 30
0.0
 11
412.0
 21
40.599999999999966
 31
0.0
  0
LINE
 39
0.0
 62
1
  8
LINES
 10
412.0
 20
40.599999999999966
 30
0.0
 11
412.0
 21
38.39999999999996
 31
0.0
  0
LINE
 39
0.0
 62
1
  8
LINES
 10
412.0
 20
38.39999999999996
 30
0.0
 11
415.0
 21
38.39999999999996
 31
0.0
  0
LINE
 39
0.0
 62
1
  8
LINES
 10
415.0
 20
38.39999999999996
 30
0.0
 11
415.0
 21
33.39999999999996
 31
0.0
  0
LINE
 39
0.0
 62
1
  8
LINES
 10
415.0
 20
33.39999999999996
 30
0.0
 11
412.0
 21
33.39999999999996
 31
0.0
  0
LINE
 39
0.0
 62
1
  8
LINES
 10
412.0
 20
33.39999999999996
 30
0.0
 11
412.0
 21
31.199999999999964
 31
0.0
  0
LINE
 39
0.0
 62
1
  8
LINES
 10
412.0
 20
31.199999999999964
 30
0.0
 11
412.0
 21
28.999999999999964
 31
0.0
  0
LINE
 39
0.0
 62
1
  8
LINES
 10
412.0
 20
28.999999999999964
 30
0.0
 11
415.0
 21
28.999999999999964
 31
0.0
  0
LINE
 39
0.0
 62
1
  8
LINES
 10
415.0
 20
28.999999999999964
 30
0.0
 11
415.0
 21
23.999999999999964
 31
0.0
  0
LINE
 39
0.0
 62
1
  8
LINES
 10
415.0
 20
23.999999999999964
 30
0.0
 11
412.0
 21
23.999999999999964
 31
0.0
  0
LINE
 39
0.0
 62
1
  8
LINES
 10
412.0
 20
23.999999999999964
 30
0.0
 11
412.0
 21
21.799999999999965
 31
0.0
  0
LINE
 39
0.0
 62
1
  8
LINES
 10
412.0
 20
21.799999999999965
 30
0.0
 11
412.0
 21
19.599999999999966
 31
0.0
  0
LINE
 39
0.0
 62
1
  8
LINES
 10
412.0
 20
19.599999999999966
 30
0.0
 11
415.0
 21
19.599999999999966
 31
0.0
  0
LINE
 39
0.0
 62
1
  8
LINES
 10
415.0
 20
19.599999999999966
 30
0.0
 11
415.0
 21
14.599999999999966
 31
0.0
  0
LINE
 39
0.0
 62
1
  8
LINES
 10
415.0
 20
14.599999999999966
 30
0.0
 11
412.0
 21
14.599999999999966
 31
0.0
  0
LINE
 39
0.0
 62
1
  8
LINES
 10
412.0
 20
14.599999999999966
 30
0.0
 11
412.0
 21
12.399999999999967
 31
0.0
  0
LINE
 39
0.0
 62
1
  8
LINES
 10
412.0
 20
12.399999999999967
 30
0.0
 11
412.0
 21
10.199999999999967
 31
0.0
  0
LINE
 39
0.0
 62
1
  8
LINES
 10
412.0
 20
10.199999999999967
 30
0.0
 11
415.0
 21
10.199999999999967
 31
0.0
  0
LINE
 39
0.0
 62
1
  8
LINES
 10
415.0
 20
10.199999999999967
 30
0.0
 11
415.0
 21
5.199999999999967
 31
0.0
  0
LINE
 39
0.0
 62
1
  8
LINES
 10
415.0
 20
5.199999999999967
 30
0.0
 11
412.0
 21
5.199999999999967
 31
0.0
  0
LINE
 39
0.0
 62
1
  8
LINES
 10
412.0
 20
5.199999999999967
 30
0.0
 11
412.0
 21
2.999999999999967
 31
0.0
  0
LINE
 39
0.0
 62
1
  8
LINES
 10
412.0
 20
2.999999999999967
 30
0.0
 11
412.0
 21
-3.2862601528904634e-14
 31
0.0
  0
LINE
 39
0.0
 62
1
  8
LINES
 10
0.0
 20
-3.2862601528904634e-14
 30
0.0
 11
0.0
 21
0.0
 31
0.0
  0
ENDSEC
  0
EOF
